<svg width="32" height="32" viewBox="0 0 32 32" xmlns="http://www.w3.org/2000/svg">
<path d="M24.6573 9.71363L31.7189 6.6872L16.2188 0L2.15453 6.06775V13.409C1.06321 13.796 0.279297 14.8382 0.279297 16.0605V20.7486H2.15453V32H30.283V13.2477H24.6573V9.71363ZM9.65545 10.5173L16.2188 13.3301L22.7821 10.5173V14.4325L16.2188 17.2453L9.65545 14.4325V10.5173ZM16.2188 2.04231L26.9718 6.68151L16.2188 11.29L5.46568 6.68151L16.2188 2.04231ZM4.02976 8.10631L7.78022 9.71363V13.2477H4.02976V8.10631ZM2.15453 16.0605C2.15453 15.5435 2.57514 15.1229 3.09214 15.1229C3.60914 15.1229 4.02976 15.5435 4.02976 16.0605V18.8734H2.15453V16.0605ZM28.4078 15.1229V30.1248H4.02976V20.7486H5.90499V16.0605C5.90499 15.7319 5.84779 15.4164 5.74372 15.1229H7.78022V15.6691L16.2188 19.2855L24.6573 15.6691V15.1229H28.4078Z" fill="currentColor"/>
<path d="M7.7793 20.749V26.3747H22.0649L27.6906 23.5619L22.0649 20.749H7.7793ZM9.65453 22.6243H11.5298V24.4995H9.65453V22.6243ZM21.6222 24.4995H13.405V22.6243H21.6222L23.4974 23.5619L21.6222 24.4995Z" fill="currentColor"/>
</svg>
