<svg width="32" height="32" viewBox="0 0 32 32" xmlns="http://www.w3.org/2000/svg">
<path d="M22.4589 13.9916V12.4854C22.4589 10.8992 21.6244 9.50502 20.3721 8.71627C21.8108 6.81171 20.4131 4.00396 18.0068 4.01665C15.6006 4.00383 14.2026 6.81215 15.6415 8.71627C14.3891 9.50502 13.5547 10.8992 13.5547 12.4854V13.9916C13.5547 14.5094 13.9744 14.9291 14.4922 14.9291H21.5214C22.0391 14.9291 22.4589 14.5094 22.4589 13.9916ZM18.0068 5.89165C18.5972 5.89165 19.0776 6.37202 19.0776 6.96246C19.0187 8.38308 16.9945 8.38265 16.9359 6.96246C16.9359 6.37202 17.4163 5.89165 18.0068 5.89165ZM20.5839 13.0541H15.4297V12.4854C15.5716 9.06571 20.4432 9.06833 20.5839 12.4854V13.0541Z" fill="currentColor"/>
<path d="M6.4599 10.9121H10.4766C11.7205 10.8625 11.7195 9.08617 10.4766 9.03711H6.4599C5.21602 9.08667 5.21696 10.863 6.4599 10.9121Z" fill="currentColor"/>
<path d="M6.4599 6.89551H10.4766C11.7205 6.84595 11.7195 5.06957 10.4766 5.02051H6.4599C5.21602 5.07007 5.21696 6.84645 6.4599 6.89551Z" fill="currentColor"/>
<path d="M6.4599 14.9297H10.4766C11.7205 14.8801 11.7195 13.1038 10.4766 13.0547H6.4599C5.21602 13.1042 5.21696 14.8806 6.4599 14.9297Z" fill="currentColor"/>
<path d="M29.5559 4.01669H26.4767V0.9375C26.4767 0.41975 26.0569 0 25.5392 0H2.44336C1.92561 0 1.50586 0.41975 1.50586 0.9375V27.0458C1.50586 27.5636 1.92561 27.9833 2.44336 27.9833H5.52255V31.0625C5.52255 31.5802 5.9423 32 6.46005 32H29.5559C30.0736 32 30.4934 31.5802 30.4934 31.0625V4.95419C30.4934 4.43637 30.0736 4.01669 29.5559 4.01669ZM3.38086 26.1083V1.875H24.6017V18.075H17.5059C16.9881 18.075 16.5684 18.4948 16.5684 19.0125V26.1083H3.38086ZM23.2759 19.95L18.4434 24.7825V19.95H23.2759ZM28.6184 30.125H7.39755V27.9833H17.5059C17.7545 27.9833 17.9929 27.8845 18.1687 27.7087L26.2021 19.6754C26.3779 19.4996 26.4767 19.2612 26.4767 19.0126V5.89169H28.6184V30.125Z" fill="currentColor"/>
<path d="M13.489 17.0703H6.4599C5.21602 17.1199 5.21696 18.8963 6.4599 18.9453H13.4891C14.733 18.8958 14.732 17.1194 13.489 17.0703Z" fill="currentColor"/>
<path d="M13.489 21.0879H6.4599C5.21602 21.1375 5.21696 22.9138 6.4599 22.9629H13.4891C14.733 22.9133 14.732 21.137 13.489 21.0879Z" fill="currentColor"/>
</svg>
