<svg width="16" height="16" viewBox="0 0 16 16" xmlns="http://www.w3.org/2000/svg">
<path d="M1 4C0.447715 4 1.11564e-07 3.55228 8.74228e-08 3C6.32816e-08 2.44772 0.447715 2 1 2L2.17071 2C2.06015 2.31278 2 2.64936 2 3C2 3.35064 2.06015 3.68722 2.17071 4L1 4Z" fill="currentColor"/>
<path d="M8 3C8 2.64936 7.93985 2.31278 7.82929 2L15 2C15.5523 2 16 2.44771 16 3C16 3.55228 15.5523 4 15 4L7.82929 4C7.93985 3.68722 8 3.35064 8 3Z" fill="currentColor"/>
<path d="M7 3C7 1.89543 6.10457 1 5 1C3.89543 1 3 1.89543 3 3C3 4.10457 3.89543 5 5 5C6.10457 5 7 4.10457 7 3Z" fill="currentColor"/>
<path d="M1 14C0.447716 14 6.36101e-07 13.5523 6.11959e-07 13C5.87818e-07 12.4477 0.447716 12 1 12L2.17071 12C2.06015 12.3128 2 12.6494 2 13C2 13.3506 2.06015 13.6872 2.17071 14L1 14Z" fill="currentColor"/>
<path d="M8 13C8 12.6494 7.93985 12.3128 7.82929 12L15 12C15.5523 12 16 12.4477 16 13C16 13.5523 15.5523 14 15 14L7.82929 14C7.93985 13.6872 8 13.3506 8 13Z" fill="currentColor"/>
<path d="M7 13C7 11.8954 6.10457 11 5 11C3.89543 11 3 11.8954 3 13C3 14.1046 3.89543 15 5 15C6.10457 15 7 14.1046 7 13Z" fill="currentColor"/>
<path d="M16 8C16 8.55228 15.5523 9 15 9L13.8293 9C13.9398 8.68722 14 8.35063 14 8C14 7.64936 13.9398 7.31278 13.8293 7L15 7C15.5523 7 16 7.44771 16 8Z" fill="currentColor"/>
<path d="M8.17071 7C8.06015 7.31278 8 7.64936 8 8C8 8.35064 8.06015 8.68722 8.17071 9L1 9C0.447715 9 3.73832e-07 8.55228 3.49691e-07 8C3.2555e-07 7.44772 0.447715 7 1 7L8.17071 7Z" fill="currentColor"/>
<path d="M11 6C9.89543 6 9 6.89543 9 8C9 9.10457 9.89543 10 11 10C12.1046 10 13 9.10457 13 8C13 6.89543 12.1046 6 11 6Z" fill="currentColor"/>
</svg>
