<svg width="16" height="16" viewBox="0 0 16 16" xmlns="http://www.w3.org/2000/svg">
<path fill-rule="evenodd" clip-rule="evenodd" d="M2 2C2 0.895431 2.89543 0 4 0H9.41421L14.5364 5.12218C15.2294 5.81515 14.7386 7 13.7586 7H9.2C8.53726 7 8 6.46274 8 5.8V2H5C4.44772 2 4 2.44772 4 3V13C4 13.5523 4.44772 14 5 14H13V9.5C13 8.94772 13.4477 8.5 14 8.5C14.5523 8.5 15 8.94772 15 9.5V14.8C15 15.4627 14.4627 16 13.8 16H4C2.89543 16 2 15.1046 2 14V2ZM10 3.41421L11.5858 5H10V3.41421Z" fill="currentColor"/>
<path d="M6 9.5C6 9.22386 6.22386 9 6.5 9H10.5C10.7761 9 11 9.22386 11 9.5C11 9.77614 10.7761 10 10.5 10H6.5C6.22386 10 6 9.77614 6 9.5Z" fill="currentColor"/>
<path d="M6.5 11C6.22386 11 6 11.2239 6 11.5C6 11.7761 6.22386 12 6.5 12H10.5C10.7761 12 11 11.7761 11 11.5C11 11.2239 10.7761 11 10.5 11H6.5Z" fill="currentColor"/>
</svg>
