<svg width="32" height="32" viewBox="0 0 32 32" xmlns="http://www.w3.org/2000/svg">
<path d="M8.85938 4.95996H17.3887V6.83464H8.85938V4.95996Z" fill="currentColor"/>
<path d="M31.1625 27.1285L27.2579 23.2238L25.9029 24.5789L24.8604 23.5364C27.1856 20.556 26.9785 16.2278 24.2384 13.4877C23.6501 12.8995 22.9884 12.4284 22.2828 12.0736V0H0V31.9983H22.2828V25.6542C22.7193 25.4348 23.139 25.1708 23.5348 24.862L24.5773 25.9045L23.2222 27.2596L27.1268 31.1641C27.6658 31.7031 28.3824 31.9999 29.1447 31.9999C29.9069 31.9999 30.6236 31.7031 31.1625 31.1641C31.7015 30.6252 31.9983 29.9085 31.9983 29.1463C31.9983 28.3841 31.7016 27.6674 31.1625 27.1285ZM22.9128 22.9144C20.6793 25.1479 17.0452 25.1479 14.8116 22.9144C12.5781 20.6809 12.5781 17.0468 14.8116 14.8133C15.9284 13.6965 17.3953 13.1382 18.8622 13.1382C20.3291 13.1382 21.796 13.6966 22.9127 14.8133C25.1463 17.0468 25.1463 20.681 22.9128 22.9144ZM1.87468 1.87468H4.12429V30.1236H1.87468V1.87468ZM20.4081 30.1236H5.99897V1.87468H20.4081V11.4225C19.413 11.2174 18.3847 11.2123 17.388 11.4077V9.6729H8.85867V11.5476H16.8009C15.5861 11.8876 14.4398 12.534 13.4861 13.4877C13.2027 13.7711 12.9465 14.0717 12.7173 14.3859H8.85867V16.2606H11.7199C11.3885 17.1741 11.2374 18.1387 11.2669 19.0989H8.85867V20.9736H11.5596C11.9032 22.1704 12.5451 23.2989 13.4861 24.24C14.9683 25.7222 16.9153 26.4633 18.8623 26.4633C19.3805 26.4633 19.8986 26.4103 20.4081 26.3053V30.1236ZM29.837 29.8386C29.6521 30.0235 29.4062 30.1253 29.1447 30.1253C28.8833 30.1253 28.6374 30.0235 28.4525 29.8386L25.8735 27.2596L27.258 25.8751L29.837 28.4541C30.0219 28.639 30.1237 28.8849 30.1237 29.1464C30.1237 29.4078 30.0219 29.6537 29.837 29.8386Z" fill="currentColor"/>
</svg>
