<svg width="32" height="32" viewBox="0 0 32 32" xmlns="http://www.w3.org/2000/svg">
<path d="M7.5 5.93066H9.375V11.5557H7.5V5.93066Z" fill="currentColor"/>
<path d="M7.5 13.4307H9.375V15.3057H7.5V13.4307Z" fill="currentColor"/>
<path d="M22.5625 19.0557H24.4375V20.9307H22.5625V19.0557Z" fill="currentColor"/>
<path d="M23.5 13.4307C24.0169 13.4307 24.4375 13.8512 24.4375 14.3682C24.4375 14.7176 24.2451 15.0359 23.9353 15.1989C23.0885 15.6445 22.5625 16.567 22.5625 17.6067H24.4375C24.4375 17.2757 24.5866 16.975 24.8084 16.8583C25.7361 16.3701 26.3125 15.416 26.3125 14.3682C26.3125 12.8174 25.0508 11.5557 23.5 11.5557C21.9492 11.5557 20.6875 12.8174 20.6875 14.3682H22.5625C22.5625 13.8512 22.9831 13.4307 23.5 13.4307Z" fill="currentColor"/>
<path d="M1.875 24.1315L6.95081 19.0557H15.0625V24.6807H24.9867L30.125 29.819V24.6807H32V7.80566H16.9375V2.18066H0V19.0557H1.875V24.1315ZM30.125 9.6806V22.8056H28.25V25.2923L25.7633 22.8056H16.9375C16.9375 22.162 16.9375 10.305 16.9375 9.6806H30.125ZM1.875 4.0556H15.0625V17.1806H6.17419L3.75 19.6048V17.1806H1.875V4.0556Z" fill="currentColor"/>
</svg>
