<svg width="16" height="16" viewBox="0 0 16 16" xmlns="http://www.w3.org/2000/svg">
<path fill-rule="evenodd" clip-rule="evenodd" d="M8.00072 0.333984L4.63317 4.82404L0.271484 3.37015L3.32369 11.0007H12.6778L15.73 3.37015L11.3683 4.82404L8.00072 0.333984ZM8.00072 3.66732L10.6332 7.17726L12.2715 6.63116L11.3237 9.00065H4.67775L3.72995 6.63116L5.36826 7.17726L8.00072 3.66732Z" fill="currentColor"/>
<path d="M4.00072 12.0007C3.44843 12.0007 3.00072 12.4484 3.00072 13.0007C3.00072 13.5529 3.44843 14.0007 4.00072 14.0007H12.0007C12.553 14.0007 13.0007 13.5529 13.0007 13.0007C13.0007 12.4484 12.553 12.0007 12.0007 12.0007H4.00072Z" fill="currentColor"/>
</svg>
