<svg width="20" height="20" viewBox="0 0 20 20" xmlns="http://www.w3.org/2000/svg">
<path d="M8.28125 10.9375H0.78125C0.349766 10.9375 0 11.2873 0 11.7188V19.2188C0 19.6502 0.349766 20 0.78125 20H8.28125C8.71273 20 9.0625 19.6502 9.0625 19.2188V11.7188C9.0625 11.2873 8.71273 10.9375 8.28125 10.9375ZM7.5 18.4375H1.5625V12.5H7.5V18.4375ZM8.28125 0H0.78125C0.349766 0 0 0.349766 0 0.78125V8.28125C0 8.71273 0.349766 9.0625 0.78125 9.0625H8.28125C8.71273 9.0625 9.0625 8.71273 9.0625 8.28125V0.78125C9.0625 0.349766 8.71273 0 8.28125 0ZM7.5 7.5H1.5625V1.5625H7.5V7.5ZM19.2188 10.9375H11.7188C11.2873 10.9375 10.9375 11.2873 10.9375 11.7188V19.2188C10.9375 19.6502 11.2873 20 11.7188 20H19.2188C19.6502 20 20 19.6502 20 19.2188V11.7188C20 11.2873 19.6502 10.9375 19.2188 10.9375ZM18.4375 18.4375H12.5V12.5H18.4375V18.4375ZM19.2188 0H11.7188C11.2873 0 10.9375 0.349766 10.9375 0.78125V8.28125C10.9375 8.71273 11.2873 9.0625 11.7188 9.0625H19.2188C19.6502 9.0625 20 8.71273 20 8.28125V0.78125C20 0.349766 19.6502 0 19.2188 0ZM18.4375 7.5H12.5V1.5625H18.4375V7.5Z" fill="currentColor"/>
</svg>
