<svg width="16" height="16" viewBox="0 0 16 16" xmlns="http://www.w3.org/2000/svg">
<path fill-rule="evenodd" clip-rule="evenodd" d="M8.00209 4.0166C5.80568 4.0166 4.01875 5.80348 4.01875 7.99986C4.01875 10.1962 5.80568 11.9831 8.00209 11.9831C10.1985 11.9831 11.9854 10.1962 11.9854 7.99986C11.9854 5.80348 10.1985 4.0166 8.00209 4.0166ZM8.00209 11.0456C6.32262 11.0456 4.95625 9.6793 4.95625 7.99986C4.95625 6.32042 6.32262 4.9541 8.00209 4.9541C9.68159 4.9541 11.0479 6.32042 11.0479 7.99986C11.0479 9.6793 9.68159 11.0456 8.00209 11.0456Z" fill="currentColor"/>
<path d="M11.4347 2.63467C11.5835 2.48533 11.7893 2.4 12 2.4C12.2107 2.4 12.4171 2.48533 12.5659 2.63467C12.7147 2.78347 12.8 2.98987 12.8 3.2C12.8 3.41067 12.7147 3.61707 12.5659 3.76587C12.4171 3.91467 12.2107 4 12 4C11.7893 4 11.5835 3.91467 11.4347 3.76587C11.2854 3.61707 11.2 3.41067 11.2 3.2C11.2 2.98933 11.2853 2.78347 11.4347 2.63467Z" fill="currentColor"/>
<path fill-rule="evenodd" clip-rule="evenodd" d="M11.7656 0H4.23438C1.89953 0 0 1.89953 0 4.23438V11.7656C0 14.1005 1.89953 16 4.23438 16H11.7656C14.1005 16 16 14.1005 16 11.7656V4.23438C16 1.89953 14.1005 0 11.7656 0ZM15.0625 11.7656C15.0625 13.5835 13.5835 15.0625 11.7656 15.0625H4.23438C2.41647 15.0625 0.9375 13.5835 0.9375 11.7656V4.23438C0.9375 2.41647 2.41647 0.9375 4.23438 0.9375H11.7656C13.5835 0.9375 15.0625 2.41647 15.0625 4.23438V11.7656Z" fill="currentColor"/>
</svg>
