<svg width="16" height="16" viewBox="0 0 16 16" xmlns="http://www.w3.org/2000/svg">
<path fill-rule="evenodd" clip-rule="evenodd" d="M8.06319 6.57246C8.64783 5.87702 9 4.97964 9 4C9 1.79086 7.20914 0 5 0C2.79086 0 1 1.79086 1 4C1 4.97964 1.35217 5.87702 1.93681 6.57246C0.776139 7.27263 0 8.54567 0 10V11C0 11.5523 0.447715 12 1 12C1.55228 12 2 11.5523 2 11V10C2 8.89543 2.89543 8 4 8H6C7.10457 8 8 8.89543 8 10V11C8 11.5523 8.44772 12 9 12C9.55229 12 10 11.5523 10 11V10C10 8.54567 9.22386 7.27263 8.06319 6.57246ZM5 6C6.10457 6 7 5.10457 7 4C7 2.89543 6.10457 2 5 2C3.89543 2 3 2.89543 3 4C3 5.10457 3.89543 6 5 6Z" fill="currentColor"/>
<path d="M12 1C11.4477 1 11 1.44772 11 2C11 2.55228 11.4477 3 12 3H15C15.5523 3 16 2.55228 16 2C16 1.44772 15.5523 1 15 1H12Z" fill="currentColor"/>
<path d="M12 5C11.4477 5 11 5.44772 11 6C11 6.55228 11.4477 7 12 7H15C15.5523 7 16 6.55228 16 6C16 5.44772 15.5523 5 15 5H12Z" fill="currentColor"/>
<path d="M0 15C0 14.4477 0.447715 14 1 14H15C15.5523 14 16 14.4477 16 15C16 15.5523 15.5523 16 15 16H1C0.447715 16 0 15.5523 0 15Z" fill="currentColor"/>
<path d="M12 10C12 9.44771 12.4477 9 13 9H15C15.5523 9 16 9.44771 16 10C16 10.5523 15.5523 11 15 11H13C12.4477 11 12 10.5523 12 10Z" fill="currentColor"/>
</svg>
