<svg width="24" height="24" viewBox="0 0 24 24" xmlns="http://www.w3.org/2000/svg">
<path d="M1.45312 23.2969C1.45312 23.6852 1.76788 24 2.15625 24H6.375C7.05103 24 7.65344 23.6799 8.03979 23.1837C9.75366 23.7252 11.5327 24 13.3323 24H19.0312C20.1943 24 21.1406 23.0537 21.1406 21.8906C21.1406 21.6161 21.0873 21.3539 20.9916 21.1132C21.8866 20.8693 22.5469 20.0495 22.5469 19.0781C22.5469 18.5383 22.3427 18.0454 22.008 17.6719C22.3429 17.2983 22.5469 16.8054 22.5469 16.2656C22.5469 15.7258 22.3427 15.2329 22.008 14.8594C22.3429 14.4858 22.5469 13.9929 22.5469 13.4531C22.5469 12.29 21.6006 11.3438 20.4375 11.3438H16.5888C16.6434 11.2145 16.6998 11.0834 16.7573 10.9501C17.1839 9.96075 17.625 8.93774 17.625 7.82812C17.625 5.88464 16.053 4.26562 14.1094 4.26562C13.7743 4.26562 13.4857 4.5022 13.42 4.83087L13.0609 6.62622C12.5892 8.98425 12.0683 9.25122 10.1301 10.2444C9.6178 10.5068 9.01593 10.8153 8.31354 11.2158C7.99017 10.4648 7.2431 9.9375 6.375 9.9375H2.15625C1.76788 9.9375 1.45312 10.2523 1.45312 10.6406V23.2969ZM10.7712 11.4959C11.8207 10.9581 12.5788 10.5698 13.1724 9.91223C13.7794 9.23969 14.1467 8.36755 14.4399 6.90198L14.6697 5.75244C15.5515 6.01062 16.2188 6.85675 16.2188 7.82812C16.2188 8.64734 15.8361 9.53485 15.4658 10.3932C15.3316 10.7047 15.1946 11.0231 15.0727 11.3438H14.1094C13.721 11.3438 13.4062 11.6585 13.4062 12.0469C13.4062 12.4352 13.721 12.75 14.1094 12.75H20.4375C20.8251 12.75 21.1406 13.0655 21.1406 13.4531C21.1406 13.8408 20.8251 14.1562 20.4375 14.1562H19.0312C18.6429 14.1562 18.3281 14.471 18.3281 14.8594C18.3281 15.2477 18.6429 15.5625 19.0312 15.5625H20.4375C20.8251 15.5625 21.1406 15.878 21.1406 16.2656C21.1406 16.6533 20.8251 16.9688 20.4375 16.9688H19.0312C18.6429 16.9688 18.3281 17.2835 18.3281 17.6719C18.3281 18.0602 18.6429 18.375 19.0312 18.375H20.4375C20.8251 18.375 21.1406 18.6905 21.1406 19.0781C21.1406 19.4658 20.8251 19.7812 20.4375 19.7812H19.0312C18.6429 19.7812 18.3281 20.096 18.3281 20.4844C18.3281 20.8727 18.6429 21.1875 19.0312 21.1875C19.4189 21.1875 19.7344 21.503 19.7344 21.8906C19.7344 22.2783 19.4189 22.5938 19.0312 22.5938H13.3323C11.6841 22.5938 10.0547 22.3433 8.48438 21.8496V12.744C9.39093 12.2034 10.1492 11.8147 10.7712 11.4959ZM2.85938 11.3438H6.375C6.76263 11.3438 7.07812 11.6592 7.07812 12.0469V21.8906C7.07812 22.2783 6.76263 22.5938 6.375 22.5938H2.85938V11.3438Z" fill="currentColor"/>
<path d="M5.67188 20.4844C5.67188 20.8727 5.35712 21.1875 4.96875 21.1875C4.58038 21.1875 4.26562 20.8727 4.26562 20.4844C4.26562 20.096 4.58038 19.7812 4.96875 19.7812C5.35712 19.7812 5.67188 20.096 5.67188 20.4844Z" fill="currentColor"/>
<path d="M14.1094 0.703125V2.15625C14.1094 2.54462 14.4241 2.85938 14.8125 2.85938C15.2009 2.85938 15.5156 2.54462 15.5156 2.15625V0.703125C15.5156 0.314758 15.2009 0 14.8125 0C14.4241 0 14.1094 0.314758 14.1094 0.703125Z" fill="currentColor"/>
<path d="M18.5325 1.86504L17.538 2.85948C17.2634 3.13414 17.2634 3.57927 17.538 3.85393C17.8127 4.1284 18.2578 4.1284 18.5325 3.85393L19.5267 2.85948C19.8014 2.58482 19.8014 2.13969 19.5267 1.86504C19.2521 1.59056 18.8069 1.59056 18.5325 1.86504Z" fill="currentColor"/>
<path d="M10.0966 1.86504C9.82196 2.13969 9.82196 2.58482 10.0966 2.85948L11.0909 3.85393C11.3655 4.1284 11.8107 4.1284 12.0853 3.85393C12.3598 3.57927 12.3598 3.13414 12.0853 2.85948L11.0909 1.86504C10.8164 1.59056 10.3711 1.59056 10.0966 1.86504Z" fill="currentColor"/>
</svg>
