<svg width="16" height="16" viewBox="0 0 16 16" fill="none" xmlns="http://www.w3.org/2000/svg">
<path fill-rule="evenodd" clip-rule="evenodd" d="M10.4016 7.00039C10.9538 7.00039 11.4016 7.44811 11.4016 8.00039C11.4016 8.55268 10.9538 9.00039 10.4016 9.00039L4.01578 9.00039L6.30867 11.2933C6.69919 11.6838 6.69919 12.317 6.30867 12.7075C5.91814 13.098 5.28498 13.098 4.89446 12.7075L0.894456 8.7075C0.503931 8.31697 0.503931 7.68381 0.894456 7.29328L4.89446 3.29328C5.28498 2.90276 5.91815 2.90276 6.30867 3.29328C6.69919 3.68381 6.69919 4.31697 6.30867 4.7075L4.01578 7.00039L10.4016 7.00039ZM11.2016 13.4004C10.6493 13.4004 10.2016 13.8481 10.2016 14.4004C10.2016 14.9527 10.6493 15.4004 11.2016 15.4004L14.4016 15.4004C14.9538 15.4004 15.4016 14.9527 15.4016 14.4004L15.4016 1.60039C15.4016 1.04811 14.9538 0.600391 14.4016 0.600391L11.2016 0.600391C10.6493 0.600391 10.2016 1.04811 10.2016 1.60039C10.2016 2.15268 10.6493 2.60039 11.2016 2.60039L13.4016 2.60039L13.4016 13.4004L11.2016 13.4004Z" fill="currentColor"/>
</svg>
