<svg width="16" height="16" viewBox="0 0 16 16" xmlns="http://www.w3.org/2000/svg">
<path fill-rule="evenodd" clip-rule="evenodd" d="M11.1071 3.10696L12.8929 4.89274C13.2834 5.28327 13.9166 5.28327 14.3071 4.89274L15.2929 3.90696C15.6834 3.51643 15.6834 2.88327 15.2929 2.49274L13.5071 0.706956C13.1166 0.316432 12.4834 0.316432 12.0929 0.706956L11.1071 1.69274C10.7166 2.08327 10.7166 2.71643 11.1071 3.10696ZM0 15.9998L2.4 10.3998L8.89289 3.90696C9.28342 3.51643 9.91658 3.51643 10.3071 3.90696L12.0929 5.69274C12.4834 6.08327 12.4834 6.71643 12.0929 7.10696L5.6 13.5998L0 15.9998Z" fill="currentColor"/>
</svg>
