<svg width="24" height="24" viewBox="0 0 24 24" xmlns="http://www.w3.org/2000/svg">
<path d="M3.38755 9.81111C2.46252 8.96667 2 7.88472 2 6.56528C2 5.24583 2.45362 4.17268 3.36086 3.34583C4.30368 2.51898 5.47776 2.10556 6.8831 2.10556C8.28844 2.10556 9.45362 2.51898 10.3787 3.34583C11.3037 4.15509 11.7662 5.22824 11.7662 6.56528C11.7662 7.88472 11.3037 8.96667 10.3787 9.81111C9.43583 10.638 8.27065 11.0514 6.8831 11.0514C5.49555 11.0514 4.33037 10.638 3.38755 9.81111ZM4.00127 6.56528C4.00127 7.37454 4.277 8.04306 4.82846 8.57083C5.39771 9.08102 6.08259 9.33611 6.8831 9.33611C7.7014 9.33611 8.38628 9.08102 8.93774 8.57083C9.4892 8.04306 9.76493 7.37454 9.76493 6.56528C9.76493 5.77361 9.4892 5.12269 8.93774 4.6125C8.38628 4.08472 7.7014 3.82083 6.8831 3.82083C6.0648 3.82083 5.37992 4.08472 4.82846 4.6125C4.277 5.12269 4.00127 5.77361 4.00127 6.56528ZM14.6213 19.6542C13.6963 18.8097 13.2338 17.7278 13.2338 16.4083C13.2338 15.0889 13.6874 14.0157 14.5947 13.1889C15.5375 12.362 16.7116 11.9486 18.1169 11.9486C19.5222 11.9486 20.6874 12.362 21.6125 13.1889C22.5375 13.9981 23 15.0713 23 16.4083C23 17.7278 22.5375 18.8097 21.6125 19.6542C20.6696 20.481 19.5044 20.8944 18.1169 20.8944C16.7294 20.8944 15.5642 20.481 14.6213 19.6542ZM15.2351 16.4083C15.2351 17.2176 15.5108 17.8861 16.0623 18.4139C16.6315 18.9241 17.3164 19.1792 18.1169 19.1792C18.9352 19.1792 19.6201 18.9241 20.1715 18.4139C20.723 17.8861 20.9987 17.2176 20.9987 16.4083C20.9987 15.6167 20.723 14.9657 20.1715 14.4556C19.6201 13.9278 18.9352 13.6639 18.1169 13.6639C17.2986 13.6639 16.6137 13.9278 16.0623 14.4556C15.5108 14.9657 15.2351 15.6167 15.2351 16.4083ZM6.29606 21L5.04193 20.1292L18.7573 2L19.9848 2.89722L6.29606 21Z" fill="currentColor"/>
</svg>
