<svg width="24" height="24" viewBox="0 0 24 24" xmlns="http://www.w3.org/2000/svg">
<path d="M17.671 0H6.32671C2.77935 0 0 2.78013 0 6.32826V17.6725C0 21.2206 2.77935 24 6.32671 24H17.671C21.2199 24 24 21.2206 24 17.6717V6.32826C24 2.78013 21.2199 0 17.671 0ZM22.4516 17.6717C22.4516 20.3961 20.3969 22.4508 17.671 22.4508H6.32671C3.60232 22.4508 1.54839 20.3969 1.54839 17.6717V6.32826C1.54839 3.6031 3.60232 1.54839 6.32671 1.54839H17.671C20.3969 1.54839 22.4516 3.6031 22.4516 6.32826V17.6717Z" fill="currentColor"/>
<path d="M12.3428 4.90991C8.34413 4.90991 6.32812 7.68462 6.32812 9.99791C6.32812 11.3992 6.87625 12.6449 8.05071 13.1102C8.10025 13.1295 8.14903 13.1396 8.19471 13.1396C8.32632 13.1396 8.43238 13.0591 8.47264 12.9058C8.51213 12.7633 8.60348 12.4033 8.64529 12.2516C8.70103 12.0472 8.68013 11.9768 8.52451 11.7987C8.18542 11.4116 7.96787 10.9107 7.96787 10.2023C7.96787 8.14295 9.56116 6.30114 12.1129 6.30114C14.3728 6.30114 15.6146 7.6374 15.6146 9.42191C15.6146 11.77 14.5408 13.7528 12.9467 13.7528C12.0649 13.7528 11.4068 13.0475 11.6182 12.1835C11.8714 11.1515 12.3622 10.0382 12.3622 9.29417C12.3622 8.62682 11.9914 8.07172 11.2264 8.07172C10.3253 8.07172 9.60219 8.97211 9.60219 10.1798C9.60219 10.9478 9.87084 11.4689 9.87084 11.4689C9.87084 11.4689 8.95109 15.2454 8.78929 15.9073C8.46722 17.2242 8.74051 18.8392 8.76374 19.0018C8.77148 19.0598 8.82103 19.0916 8.87213 19.0916C8.90619 19.0916 8.94103 19.0777 8.96348 19.0482C9.04709 18.9445 10.1186 17.6632 10.4832 16.3827C10.5877 16.0204 11.0755 14.1445 11.0755 14.1445C11.3681 14.6841 12.2228 15.1587 13.1325 15.1587C15.8375 15.1587 17.6732 12.7734 17.6732 9.5783C17.6724 7.16049 15.5581 4.90991 12.3428 4.90991Z" fill="currentColor"/>
</svg>
