<svg width="24" height="24" viewBox="0 0 24 24" xmlns="http://www.w3.org/2000/svg">
<path d="M0 12C0 5.37258 5.37258 0 12 0C18.6274 0 24 5.37258 24 12C24 18.6274 18.6274 24 12 24C5.37258 24 0 18.6274 0 12Z" fill="#F8FBFD"/>
<path d="M13.1998 5.9998C13.1998 5.33706 12.6625 4.7998 11.9998 4.7998C11.3371 4.7998 10.7998 5.33706 10.7998 5.9998V10.7998H5.9998C5.33706 10.7998 4.7998 11.3371 4.7998 11.9998C4.7998 12.6625 5.33706 13.1998 5.9998 13.1998H10.7998V17.9998C10.7998 18.6625 11.3371 19.1998 11.9998 19.1998C12.6625 19.1998 13.1998 18.6625 13.1998 17.9998V13.1998H17.9998C18.6625 13.1998 19.1998 12.6625 19.1998 11.9998C19.1998 11.3371 18.6625 10.7998 17.9998 10.7998H13.1998V5.9998Z" fill="currentColor"/>
<path d="M12 22C6.47715 22 2 17.5228 2 12H-2C-2 19.732 4.26801 26 12 26V22ZM22 12C22 17.5228 17.5228 22 12 22V26C19.732 26 26 19.732 26 12H22ZM12 2C17.5228 2 22 6.47715 22 12H26C26 4.26801 19.732 -2 12 -2V2ZM12 -2C4.26801 -2 -2 4.26801 -2 12H2C2 6.47715 6.47715 2 12 2V-2Z" fill="currentColor"/>
</svg>
