<svg width="24" height="24" viewBox="0 0 24 24" xmlns="http://www.w3.org/2000/svg">
<path d="M17.6617 0H6.33832C2.784 0 0 2.784 0 6.33832V17.6617C0 21.216 2.784 24 6.33832 24H17.6617C21.216 24 24 21.216 24 17.6617V6.33832C24 2.784 21.2152 0 17.6617 0ZM22.4516 17.6617C22.4516 20.3481 20.3474 22.4516 17.6617 22.4516H6.33832C3.65265 22.4516 1.54839 20.3474 1.54839 17.6617V6.33832C1.54839 3.65265 3.65265 1.54839 6.33832 1.54839H17.6617C20.3481 1.54839 22.4516 3.65265 22.4516 6.33832V17.6617Z" fill="currentColor"/>
<path d="M19.547 6.12778C19.2985 5.94584 18.9656 5.93036 18.7 6.0852C18.4352 6.24081 17.8484 6.31746 17.3777 6.37939C17.2802 6.39255 17.1842 6.40494 17.0912 6.4181C16.4324 5.87152 15.5909 5.56494 14.723 5.56494C12.7682 5.56494 11.164 7.07772 11.0502 8.98068C9.27731 8.68184 7.65383 7.75746 6.50338 6.36855C6.33228 6.16107 6.06673 6.05965 5.79886 6.09449C5.53254 6.13165 5.30493 6.3043 5.19731 6.55049C5.14776 6.66352 4.71576 7.72649 4.71576 10.3557C4.71576 12.6326 6.51267 14.3056 7.74518 15.1858C6.90209 15.5691 5.93047 15.71 5.00764 15.6078C4.64686 15.5691 4.30931 15.7812 4.19009 16.1211C4.07086 16.4617 4.20247 16.8395 4.50751 17.0323C5.96299 17.9505 7.64531 18.4359 9.37331 18.4359C14.9227 18.4359 18.2812 14.0764 18.4058 9.7781C18.5653 9.54662 18.8696 9.09604 19.3836 8.30559C19.5896 7.98739 19.7622 7.30146 19.8466 6.92133C19.914 6.62094 19.7955 6.30894 19.547 6.12778ZM17.0092 9.07436C16.914 9.20597 16.8621 9.36546 16.8621 9.52804C16.8621 12.5838 14.5387 16.8875 9.37409 16.8875C8.90725 16.8875 8.44428 16.8449 7.9906 16.7613C8.59602 16.5322 9.16815 16.2124 9.69383 15.8075C9.90441 15.6457 10.0167 15.3856 9.99189 15.1216C9.96712 14.8576 9.80841 14.6238 9.57073 14.5038C9.53744 14.4867 6.26493 12.7657 6.26493 10.3564C6.26493 9.54894 6.30828 8.9141 6.36557 8.43101C7.88531 9.73939 9.81925 10.5221 11.8546 10.6227C11.8701 10.6235 11.8863 10.6243 11.9011 10.6235C12.3516 10.6104 12.683 10.2798 12.683 9.84933C12.683 9.74249 12.6613 9.64107 12.6218 9.54817C12.6025 9.43204 12.5924 9.31513 12.5924 9.19823C12.5924 8.04855 13.5478 7.11333 14.723 7.11333C15.3129 7.11333 15.8804 7.35488 16.2807 7.77526C16.4634 7.96572 16.7305 8.05165 16.9883 8.00133C17.164 7.96804 17.3669 7.94172 17.5798 7.91384C17.6556 7.90378 17.7323 7.89372 17.8105 7.88288C17.2291 8.76855 17.0192 9.06043 17.0092 9.07436Z" fill="currentColor"/>
</svg>
