<svg width="24" height="24" viewBox="0 0 24 24" xmlns="http://www.w3.org/2000/svg">
<path fill-rule="evenodd" clip-rule="evenodd" d="M4.80839 9.63119L18.3808 4.20264C18.5787 4.1234 18.7956 4.104 19.0045 4.14686C19.2134 4.18972 19.4051 4.29295 19.5559 4.44374C19.7066 4.59453 19.8098 4.78626 19.8526 4.99516C19.8955 5.20405 19.876 5.42091 19.7967 5.61886L14.3685 19.1899C14.2918 19.3859 14.1594 19.5551 13.9877 19.6766C13.816 19.7982 13.6124 19.8668 13.4022 19.874C13.3863 19.875 13.3704 19.875 13.3545 19.875C13.1523 19.8762 12.9538 19.8203 12.7819 19.7138C12.61 19.6074 12.4716 19.4546 12.3826 19.273L11.1073 16.7226C10.9487 16.4067 10.896 16.0482 10.9571 15.7001L11.5055 12.54L11.4601 12.4949L8.30436 13.0456C7.95556 13.1048 7.59698 13.0522 7.27986 12.8954L4.72558 11.6171C4.5378 11.5231 4.38118 11.3768 4.27457 11.1959C4.16795 11.015 4.11589 10.8072 4.12463 10.5973C4.13338 10.3875 4.20257 10.1847 4.32388 10.0133C4.44518 9.84192 4.61343 9.70922 4.80839 9.63119ZM13.3237 18.808C13.3276 18.8166 13.3311 18.8245 13.3583 18.8249L18.8218 5.22867L18.771 5.17791L5.19861 10.6065L5.19579 10.6777L7.75007 11.9561C7.86544 12.0143 7.99662 12.0336 8.12387 12.0109L11.2796 11.4602C11.4517 11.4302 11.6285 11.4421 11.7951 11.4947C11.9617 11.5474 12.1131 11.6393 12.2367 11.7628C12.3603 11.8862 12.4524 12.0376 12.5052 12.2041C12.5581 12.3706 12.5701 12.5474 12.5403 12.7195L11.9919 15.8797C11.9694 16.0067 11.9887 16.1377 12.0467 16.2529L13.3214 18.8034L13.3237 18.808Z" fill="currentColor"/>
<path fill-rule="evenodd" clip-rule="evenodd" d="M0 6C0 2.68629 2.68629 0 6 0H18C21.3137 0 24 2.68629 24 6V18C24 21.3137 21.3137 24 18 24H6C2.68629 24 0 21.3137 0 18V6ZM6 1.56H18C20.4521 1.56 22.44 3.54786 22.44 6V18C22.44 20.4521 20.4521 22.44 18 22.44H6C3.54786 22.44 1.56 20.4521 1.56 18V6C1.56 3.54786 3.54786 1.56 6 1.56Z" fill="currentColor"/>
</svg>
