<svg width="16" height="16" viewBox="0 0 16 16" xmlns="http://www.w3.org/2000/svg">
<path fill-rule="evenodd" clip-rule="evenodd" d="M11.3344 8.72588C12.3567 7.81038 13 6.48031 13 5C13 2.23858 10.7614 0 8 0C5.23858 0 3 2.23858 3 5C3 6.48031 3.6433 7.81038 4.66559 8.72588C2.50116 9.71967 0.856605 11.6511 0.252035 14C0.087506 14.6392 0 15.3094 0 16H16C16 15.3094 15.9125 14.6392 15.748 14C15.1434 11.6511 13.4988 9.71967 11.3344 8.72588ZM11 5C11 6.65685 9.65685 8 8 8C6.34315 8 5 6.65685 5 5C5 3.34315 6.34315 2 8 2C9.65685 2 11 3.34315 11 5ZM8 10C5.38756 10 3.16508 11.6696 2.34141 14H13.6586C12.8349 11.6696 10.6124 10 8 10Z" fill="currentColor"/>
</svg>
