<svg width="16" height="16" viewBox="0 0 16 16" xmlns="http://www.w3.org/2000/svg">
<path d="M15.76 7.60039C13.68 4.24039 10.96 2.40039 8 2.40039C5.04 2.40039 2.32 4.24039 0.24 7.60039L0 8.00039L0.24 8.40039C2.24 11.7604 5.04 13.6004 8 13.6004C10.96 13.6004 13.68 11.7604 15.76 8.40039L16 8.00039L15.76 7.60039ZM8 12.0004C5.76 12.0004 3.6 10.5604 1.92 8.00039C3.6 5.44039 5.76 4.00039 8 4.00039C10.24 4.00039 12.4 5.44039 14.08 8.00039C12.4 10.5604 10.24 12.0004 8 12.0004Z" fill="currentColor"/>
<path d="M8.00156 10.4006C9.32705 10.4006 10.4016 9.32607 10.4016 8.00059C10.4016 6.6751 9.32705 5.60059 8.00156 5.60059C6.67608 5.60059 5.60156 6.6751 5.60156 8.00059C5.60156 9.32607 6.67608 10.4006 8.00156 10.4006Z" fill="currentColor"/>
</svg>
