<svg width="24" height="24" viewBox="0 0 24 24" xmlns="http://www.w3.org/2000/svg">
<path d="M12.0254 17.62C11.2541 17.62 10.5418 17.5829 9.33366 16.9997C8.89046 16.8201 5.14815 15.1238 2.92581 8.31488C2.81138 7.97583 2.78809 7.42969 3.09732 6.9968C3.29818 6.71555 3.7112 6.3803 4.53774 6.3803H6.49716C6.79979 6.3803 7.06848 6.57394 7.1642 6.86105C7.16823 6.87314 7.58077 8.10178 8.19854 9.35635C8.61591 10.204 8.97643 10.7649 9.27146 11.1362V9.04233C9.27146 9.00314 9.27179 8.98228 9.27812 8.94502C9.28379 8.88741 9.31834 8.41402 8.97465 8.03597C8.91474 7.97006 8.86791 7.89338 8.8366 7.80994C8.74946 7.57753 8.73451 7.21622 8.95416 6.89934C9.19285 6.55491 9.61684 6.38025 10.2144 6.38025H12.8525C12.8858 6.38025 12.919 6.38259 12.9519 6.38733C13.4448 6.45773 13.9753 6.93075 13.9753 7.80286V10.6239C14.4881 10.0787 15.2253 9.08255 15.8437 7.63238C15.9829 7.16138 16.4933 6.38025 17.5889 6.38025H19.4695C19.4884 6.38025 19.5074 6.381 19.5262 6.38255C19.7996 6.40467 20.1639 6.56362 20.3659 6.94341C20.7375 7.64166 20.2445 8.51869 20.0825 8.80688C20.0725 8.82446 20.0619 8.84166 20.0505 8.85835L18.4532 11.202C18.3233 11.3925 18.2128 11.547 18.1053 11.6881C17.9106 11.9438 17.8723 12.1646 17.9914 12.3444C18.0012 12.3591 18.0179 12.3797 18.041 12.4054L20.3141 14.9385C20.3678 14.9945 20.5697 15.2113 20.7573 15.4842C20.8993 15.6909 21.3315 16.3197 21.0695 16.9405C20.9389 17.2502 20.6124 17.6192 19.799 17.6192H18.3492C17.5847 17.6192 16.845 17.3466 16.2663 16.8514L16.2506 16.838C16.241 16.8298 16.2316 16.8213 16.2225 16.8126L14.0653 14.7573C14.0369 14.7401 14.0004 14.7212 13.9604 14.7082V16.1919C13.9627 16.3305 13.9398 16.7823 13.5811 17.1587C13.3809 17.3688 13.0089 17.6192 12.3731 17.6192C12.312 17.6192 12.2524 17.6194 12.194 17.6197C12.1374 17.6199 12.0812 17.62 12.0254 17.62ZM12.5549 16.2282C12.555 16.2299 12.5551 16.2317 12.5551 16.2335C12.555 16.2317 12.555 16.23 12.5549 16.2282ZM9.8642 15.6974C9.88716 15.7057 9.90137 15.7121 9.92391 15.7231C10.9414 16.2177 11.41 16.2164 12.1892 16.2134C12.2492 16.2132 12.3105 16.2129 12.3732 16.2129C12.4693 16.2129 12.5273 16.1997 12.5543 16.1898V14.223C12.5543 14.0248 12.6378 13.8359 12.7844 13.7027C13.5757 12.9834 14.5308 13.3481 14.9252 13.6414C14.9482 13.6584 14.9701 13.6769 14.9907 13.6966L17.1799 15.7823C17.5048 16.0602 17.9197 16.2129 18.3492 16.2129H19.5504C19.4735 16.108 19.383 15.9984 19.2945 15.9069C19.2884 15.9007 19.2815 15.8933 19.2757 15.8868L16.9945 13.3448C16.924 13.2662 16.8683 13.1952 16.8193 13.1213C16.361 12.4297 16.4236 11.5755 16.9864 10.8361C17.0787 10.7151 17.1755 10.5796 17.2912 10.4099L18.8708 8.09236C18.9392 7.96852 18.9869 7.86745 19.0201 7.7865H17.5889C17.3792 7.7865 17.2462 7.86816 17.1933 8.02927C17.1849 8.07624 17.1776 8.08852 17.1574 8.13633C16.095 10.6525 14.7865 11.826 14.4541 12.0959C14.2374 12.3386 13.9588 12.4746 13.6602 12.4814C13.1434 12.4929 12.7982 12.1171 12.7346 12.0417C12.6276 11.9148 12.5689 11.7542 12.5689 11.5883V7.80291C12.5689 7.79724 12.5689 7.7918 12.5688 7.78655H10.4665C10.7177 8.36297 10.6962 8.8935 10.6776 9.08218V12.5394C10.6776 12.754 10.5796 12.9568 10.4116 13.0902C10.2435 13.2236 10.0236 13.2729 9.81474 13.2241C8.84002 12.9967 7.89648 11.9303 6.93024 9.96413C6.51052 9.11007 6.18577 8.28549 6.00104 7.78655H4.5377C4.38165 7.78655 4.29554 7.8067 4.25406 7.82095C4.25504 7.84242 4.25785 7.86427 4.25795 7.8645C4.25907 7.86783 4.2602 7.87116 4.26127 7.87449C5.35402 11.2243 6.82398 13.1752 7.86474 14.2219C8.95557 15.3189 9.81385 15.677 9.8642 15.6974Z" fill="currentColor"/>
<path d="M17.3241 24H6.67594C2.99484 24 0 21.0052 0 17.3241V6.67594C0 2.9948 2.99484 0 6.67594 0H17.3241C21.0052 0 24 2.9948 24 6.67594V17.3241C24 21.0052 21.0052 24 17.3241 24ZM6.67594 1.40625C3.77025 1.40625 1.40625 3.77025 1.40625 6.67594V17.3241C1.40625 20.2297 3.77025 22.5938 6.67594 22.5938H17.3241C20.2297 22.5938 22.5938 20.2297 22.5938 17.3241V6.67594C22.5938 3.77025 20.2297 1.40625 17.3241 1.40625H6.67594Z" fill="currentColor"/>
</svg>
