<svg width="24" height="24" viewBox="0 0 24 24" xmlns="http://www.w3.org/2000/svg">
<path d="M22.125 11.1094V4.6875H2.8125C2.29556 4.6875 1.875 4.26694 1.875 3.75C1.875 3.23306 2.29556 2.8125 2.8125 2.8125H20.25V0.9375H2.8125C1.26169 0.9375 0 2.19919 0 3.75V20.25C0 21.8008 1.26169 23.0625 2.8125 23.0625H22.125V16.7344H24V11.1094H22.125ZM20.25 21.1875H2.8125C2.29556 21.1875 1.875 20.7669 1.875 20.25V6.40125C2.16844 6.50531 2.48386 6.5625 2.8125 6.5625H20.25V11.1094H18.0938C16.5429 11.1094 15.2812 12.3711 15.2812 13.9219C15.2812 15.4727 16.5429 16.7344 18.0938 16.7344H20.25V21.1875ZM22.125 14.8594H18.0938C17.5768 14.8594 17.1562 14.4388 17.1562 13.9219C17.1562 13.4049 17.5768 12.9844 18.0938 12.9844H22.125V14.8594Z" fill="currentColor"/>
</svg>
