<svg width="212" height="60" viewBox="0 0 212 60" fill="none" xmlns="http://www.w3.org/2000/svg">
<path d="M30.2535 31.7408C29.0529 29.9395 27.22 28.3883 24.6973 27.3167C16.8746 23.9935 7.73332 28.8354 7.5493 37.6324C7.43248 43.2171 11.5524 48.611 16.9783 49.977C18.6552 50.3991 20.4458 50.465 22.105 49.9775C30.9197 47.387 34.4502 38.0369 30.2535 31.7408Z" fill="#F6B38F"/>
<path d="M26.1139 28.6049C26.1919 28.6476 26.2902 28.7014 26.3988 28.7608C26.5083 28.819 26.6284 28.8824 26.7447 28.9518C26.982 29.0841 27.2083 29.2338 27.3501 29.3413C27.4456 29.42 27.536 29.5052 27.6259 29.5901C27.7155 29.6752 27.7996 29.7658 27.8914 29.8469C27.9152 29.8698 27.9394 29.8932 27.9627 29.9154C28.3716 30.3191 28.8412 30.6646 29.2197 31.1045C29.5254 31.4572 29.6478 31.7164 29.8314 32.0199L30.6559 31.4723C30.5647 31.3447 30.4758 31.217 30.3816 31.0918C30.2841 30.9691 30.1907 30.8419 30.0871 30.7187C29.8436 30.4199 29.5803 30.1386 29.3202 29.8561C29.2145 29.7402 29.1111 29.6219 29.0094 29.5013C28.9053 29.383 28.7957 29.2703 28.678 29.1671C28.5766 29.0822 28.4277 28.9755 28.2993 28.8784C27.9324 28.5984 27.5566 28.3878 27.1668 28.1033C26.8202 27.8525 26.488 27.6534 26.1524 27.4785L25.6836 28.3493C25.8112 28.4243 25.945 28.513 26.1139 28.6049Z" fill="#F6B38F"/>
<path d="M20.8168 26.847C20.994 26.8603 21.2642 26.8806 21.5343 26.901C21.8048 26.924 22.0729 26.9705 22.2471 27.007C22.4894 27.0618 22.7167 27.1734 22.953 27.2398C22.9844 27.2503 23.0164 27.2609 23.047 27.2713C23.3171 27.3779 23.5982 27.448 23.8778 27.5285L24.295 27.6586L24.5032 27.7266C24.5718 27.7518 24.6394 27.7803 24.7068 27.8087C24.9251 27.8989 25.0917 27.9892 25.2428 28.078C25.3958 28.1635 25.529 28.2562 25.6831 28.3496L26.1519 27.4789C25.8774 27.3338 25.5999 27.2062 25.3098 27.0748C25.1338 27.0014 24.9615 26.9217 24.7825 26.8541C24.6038 26.786 24.4258 26.7165 24.2497 26.6426C24.1071 26.5784 23.962 26.5211 23.8184 26.4579C23.6744 26.3962 23.5295 26.3361 23.3803 26.2914C23.2526 26.2587 23.0727 26.2261 22.9157 26.1935C22.8039 26.1668 22.6934 26.1434 22.5834 26.1211C22.472 26.1052 22.3612 26.0892 22.2497 26.0733C22.0265 26.0425 21.8038 25.9976 21.5656 25.9571C21.3554 25.9178 21.1549 25.8781 20.9585 25.8552C20.7616 25.8362 20.5704 25.8209 20.3809 25.8076L20.3203 26.7943C20.4666 26.8156 20.6255 26.8344 20.8168 26.847Z" fill="#F6B38F"/>
<path d="M15.3011 27.5431C15.4658 27.477 15.7168 27.3764 15.9678 27.2755C16.2219 27.1824 16.4812 27.1011 16.6539 27.058C16.8976 27.0107 17.1481 27.0009 17.3897 26.959C17.4228 26.9564 17.4566 26.9537 17.4888 26.9511C17.7782 26.9294 18.0599 26.8614 18.3477 26.8228L18.7788 26.7526C18.9235 26.7383 19.0686 26.7258 19.2141 26.7185C19.3313 26.7139 19.4369 26.7072 19.535 26.7131C19.6331 26.7187 19.7236 26.7263 19.8106 26.7348C19.9843 26.7549 20.1444 26.7645 20.3223 26.7944L20.3829 25.8077C20.2277 25.7927 20.0727 25.799 19.9171 25.7959C19.7615 25.7958 19.6046 25.7924 19.4447 25.7948C19.0618 25.8131 18.6791 25.8284 18.298 25.8628C17.9859 25.8763 17.6692 25.8726 17.361 25.9249C17.2304 25.9434 17.0545 25.9945 16.899 26.0359C16.6749 26.0882 16.4596 26.1436 16.2465 26.2184C16.1393 26.2532 16.0312 26.2872 15.9203 26.3187C15.8646 26.3338 15.8084 26.3488 15.7516 26.3641C15.6954 26.3815 15.6382 26.3983 15.5798 26.4143C15.3734 26.4715 15.1763 26.5261 14.9892 26.5906C14.8039 26.6605 14.6254 26.7315 14.4492 26.8034L14.833 27.7147C14.9738 27.6693 15.1243 27.6161 15.3011 27.5431Z" fill="#F6B38F"/>
<path d="M10.7259 30.6568C10.9443 30.3821 11.4121 29.8251 11.6888 29.6004C11.7806 29.5179 11.8844 29.4497 11.9888 29.3832C12.0924 29.3158 12.1957 29.2488 12.2938 29.1759C12.3209 29.1572 12.3485 29.1381 12.3749 29.1198C12.8638 28.8169 13.2906 28.4134 13.8056 28.139C13.9079 28.082 14.001 28.0328 14.0891 27.9901C14.1795 27.9519 14.2638 27.9188 14.3454 27.8881C14.5097 27.8291 14.6577 27.7683 14.8296 27.715L14.4458 26.8037C14.2997 26.8587 14.1639 26.9347 14.0226 27.0003C13.8832 27.0703 13.7392 27.1331 13.5988 27.2109L13.0955 27.4905C12.9283 27.5845 12.7683 27.6908 12.6016 27.7855C12.5339 27.8249 12.4647 27.8618 12.3945 27.8978L12.19 28.015C12.0536 28.0932 11.9179 28.1734 11.7918 28.266C11.6868 28.3464 11.5535 28.473 11.4323 28.5791C11.344 28.6534 11.257 28.7259 11.1753 28.804C11.0957 28.8841 11.0165 28.9639 10.9368 29.0441C10.8569 29.124 10.7759 29.2036 10.6912 29.2823C10.6093 29.3639 10.5274 29.4484 10.4374 29.5301C10.1134 29.8143 9.86486 30.1155 9.62109 30.4086L10.3945 31.026C10.493 30.917 10.6048 30.8036 10.7259 30.6568Z" fill="#F6B38F"/>
<path d="M8.29321 35.5918C8.34738 35.2446 8.46799 34.5272 8.59823 34.1961C8.6743 33.9612 8.81365 33.7516 8.91034 33.5282C8.92464 33.4988 8.93933 33.4686 8.95338 33.4398C9.01109 33.3084 9.08387 33.1842 9.14031 33.0523C9.20094 32.9224 9.25119 32.787 9.31131 32.6561L9.49824 32.2657C9.53001 32.2007 9.56127 32.1354 9.59494 32.0714L9.70847 31.8869C9.77099 31.7887 9.82985 31.7018 9.8863 31.6223C9.9149 31.5829 9.94236 31.5452 9.9692 31.5083C9.99894 31.4738 10.0279 31.4403 10.0563 31.4074C10.1712 31.2772 10.2804 31.1603 10.3965 31.0255L9.62304 30.4082C9.53039 30.5343 9.43838 30.6595 9.34573 30.7856C9.29979 30.8489 9.25372 30.9123 9.20739 30.9764C9.16487 31.0429 9.12196 31.11 9.07855 31.1779C8.97641 31.341 8.86769 31.5 8.77175 31.6667C8.67797 31.8347 8.58292 32.0018 8.48381 32.1665C8.40028 32.2997 8.32573 32.4379 8.24182 32.5717C8.16246 32.7076 8.07627 32.8413 8.01995 32.9877C7.97249 33.1115 7.91541 33.286 7.86301 33.4385C7.77466 33.6522 7.72859 33.8725 7.66734 34.0896C7.63633 34.1981 7.60532 34.3072 7.57355 34.4184C7.54634 34.5307 7.51558 34.6442 7.47926 34.7599C7.33915 35.1675 7.27954 35.5521 7.21094 35.9263L8.18955 36.0777C8.22587 35.9348 8.26106 35.7796 8.29321 35.5918Z" fill="#F6B38F"/>
<path d="M8.55537 41.1107C8.52803 41.0267 8.49499 40.9203 8.45437 40.8038C8.41298 40.6875 8.36931 40.5596 8.33236 40.4299C8.24958 40.1722 8.18668 39.9091 8.15934 39.7338C8.13719 39.6123 8.13719 39.4877 8.1301 39.3647C8.12428 39.2416 8.11859 39.1189 8.11289 38.9966C8.112 38.9638 8.11112 38.9302 8.11036 38.898C8.09441 38.3242 7.98265 37.7538 8.01974 37.1702C8.02429 37.0533 8.0305 36.948 8.03986 36.8507C8.05492 36.7539 8.07112 36.665 8.08783 36.5796C8.12264 36.4097 8.15478 36.2526 8.19073 36.0771L7.21212 35.9258C7.17605 36.2353 7.14238 36.5409 7.11846 36.8599C7.10479 37.2429 7.08289 37.6239 7.08353 38.0086C7.07733 38.1654 7.07112 38.3227 7.06505 38.4798C7.06188 38.5585 7.05885 38.6373 7.05859 38.7159C7.06138 38.7942 7.06657 38.8724 7.07555 38.9501C7.09137 39.0815 7.1177 39.2625 7.15175 39.4201C7.1701 39.5338 7.19098 39.6453 7.21275 39.7558C7.23655 39.866 7.26578 39.9744 7.29148 40.0842C7.3402 40.3043 7.4026 40.5233 7.44399 40.7621C7.48322 40.9729 7.53613 41.1698 7.58473 41.3617C7.64244 41.5508 7.70028 41.7337 7.76281 41.913L8.69801 41.5876C8.6589 41.4456 8.61738 41.2916 8.55537 41.1107Z" fill="#F6B38F"/>
<path d="M11.325 45.9377C11.0812 45.682 10.557 45.1685 10.3636 44.8665C10.2188 44.6647 10.1195 44.433 9.98925 44.2249C9.97381 44.1956 9.95798 44.1656 9.9428 44.137C9.66448 43.631 9.30668 43.1658 9.05912 42.6373C8.95546 42.4269 8.89901 42.2466 8.84168 42.0825C8.7903 41.916 8.75296 41.7592 8.70081 41.5879L7.76562 41.9132C7.82169 42.0584 7.87726 42.2025 7.9332 42.3477C7.99218 42.4916 8.05723 42.6341 8.12001 42.7812C8.19481 42.9573 8.28442 43.1266 8.36491 43.2999L8.62158 43.8121C8.7646 44.0884 8.86902 44.3893 9.04216 44.6488C9.11177 44.7605 9.22264 44.9051 9.32035 45.0323C9.58221 45.41 9.88723 45.7146 10.1696 46.1052C10.4273 46.4461 10.6843 46.7358 10.9539 47.0025L11.6593 46.3086C11.5592 46.2004 11.459 46.0749 11.325 45.9377Z" fill="#F6B38F"/>
<path d="M15.8943 49.0895C15.7267 49.0338 15.4737 48.9428 15.2185 48.8524C14.9686 48.7508 14.7159 48.6502 14.5639 48.5574C14.3471 48.4377 14.156 48.2754 13.9502 48.1426C13.9229 48.1241 13.8955 48.1044 13.8698 48.0846C13.4019 47.7483 12.883 47.4768 12.4315 47.1062C12.0689 46.8079 11.8955 46.578 11.6585 46.3086L10.9531 47.0025C11.0651 47.1104 11.1745 47.2193 11.2894 47.3239C11.4056 47.4271 11.5228 47.531 11.6424 47.6372L12.0858 48.002C12.2383 48.1176 12.3875 48.2373 12.5379 48.3553C12.6625 48.4495 12.7802 48.5533 12.8993 48.6559C13.021 48.7548 13.1459 48.85 13.2781 48.9331C13.3888 49.0051 13.5549 49.0832 13.6964 49.1595C13.8945 49.2769 14.1032 49.3601 14.3054 49.4592C14.5134 49.5472 14.7191 49.6457 14.9363 49.7537C15.1289 49.8486 15.3126 49.9397 15.4987 50.0094C15.683 50.0837 15.8633 50.1517 16.0464 50.2064L16.3576 49.2679C16.2892 49.2418 16.2178 49.2145 16.1412 49.1852C16.0653 49.1538 15.9839 49.122 15.8943 49.0895Z" fill="#F6B38F"/>
<path d="M21.3487 49.633C21.1794 49.6687 20.9229 49.7361 20.6602 49.7822C20.3985 49.8331 20.1314 49.8618 19.9556 49.8635C19.7104 49.8662 19.4662 49.823 19.224 49.8054C19.1915 49.8012 19.1584 49.797 19.1265 49.7929C18.5595 49.7266 17.9769 49.7349 17.4057 49.6199C17.2914 49.5953 17.1893 49.5692 17.0948 49.5435C17.0016 49.5143 16.9163 49.4848 16.8346 49.4556C16.753 49.4259 16.6746 49.3981 16.5965 49.3669C16.519 49.3345 16.4406 49.3019 16.3581 49.2676L16.0469 50.206C16.3437 50.3052 16.6446 50.3775 16.9566 50.4543C17.3309 50.5415 17.7105 50.6059 18.0896 50.6695C18.3988 50.7219 18.7072 50.8115 19.0231 50.8223C19.1561 50.8294 19.3406 50.8218 19.503 50.8169C19.9694 50.8134 20.3993 50.7371 20.8886 50.7018C21.323 50.6686 21.7125 50.5904 22.0861 50.485L21.825 49.5315C21.6845 49.5622 21.5308 49.5901 21.3487 49.633Z" fill="#F6B38F"/>
<path d="M26.4112 47.2859C26.342 47.3417 26.2547 47.4123 26.1582 47.4902C26.0596 47.5656 25.9518 47.6481 25.8438 47.7306C25.6313 47.9014 25.4029 48.0501 25.2464 48.1365C25.1373 48.1964 25.0253 48.251 24.9119 48.3018C24.796 48.3484 24.6804 48.3946 24.5689 48.4477C24.5384 48.461 24.5073 48.4745 24.4776 48.4875C23.9466 48.7214 23.4468 49.0317 22.9 49.2456C22.7914 49.2919 22.6896 49.3229 22.5944 49.3494C22.4993 49.3766 22.4109 49.3993 22.3255 49.4202C22.1556 49.4594 21.9946 49.5018 21.8242 49.5321L22.0853 50.4856C22.2414 50.4448 22.3838 50.3925 22.5307 50.3428C22.677 50.2929 22.8245 50.2425 22.9751 50.1911C23.1557 50.1311 23.3297 50.0517 23.5075 49.984C23.684 49.9123 23.8642 49.8505 24.038 49.7726C24.1813 49.7126 24.3296 49.6635 24.4776 49.6126C24.5512 49.5864 24.6259 49.5627 24.6974 49.5318C24.7684 49.5003 24.8385 49.4665 24.9067 49.4295C25.0222 49.3668 25.1773 49.2725 25.315 49.1914C25.5153 49.0805 25.6942 48.9475 25.8821 48.8257C26.0717 48.7062 26.2539 48.5706 26.4617 48.4482C26.5531 48.3927 26.6422 48.3388 26.7295 48.2859C26.8161 48.2315 26.8955 48.1705 26.976 48.1135C27.1351 47.997 27.2895 47.8841 27.4373 47.7658L26.8183 46.9941C26.6964 47.0785 26.5627 47.1677 26.4112 47.2859Z" fill="#F6B38F"/>
<path d="M30.0743 43.0926C29.9997 43.2534 29.8721 43.4911 29.7496 43.7332C29.6902 43.8555 29.6208 43.9718 29.5555 44.0771C29.4907 44.1827 29.4301 44.2773 29.3782 44.3497C29.3085 44.4522 29.2227 44.5429 29.1381 44.6341C29.0538 44.7253 28.9698 44.816 28.8922 44.9113C28.8704 44.9362 28.8483 44.9616 28.827 44.986C28.4283 45.4048 28.1143 45.9029 27.6906 46.3065C27.3591 46.6404 27.1028 46.7784 26.8164 46.9944L27.4354 47.7661C27.5529 47.6645 27.6695 47.5636 27.7869 47.462C27.9041 47.3603 28.023 47.2588 28.1357 47.1454L28.5478 46.747C28.6798 46.6089 28.8104 46.4697 28.9459 46.3352C29.0007 46.2797 29.0591 46.2276 29.116 46.174L29.2836 46.0098C29.3954 45.9005 29.5063 45.7896 29.6046 45.669C29.6858 45.5655 29.7836 45.4111 29.8745 45.2791C29.9418 45.1862 30.0069 45.094 30.0684 45.0001C30.1261 44.9037 30.1836 44.8078 30.2414 44.7113C30.2995 44.615 30.3589 44.519 30.4219 44.4227C30.4848 44.3265 30.5426 44.2245 30.6114 44.1251C30.8585 43.7748 31.0341 43.429 31.207 43.0913L30.3172 42.6572C30.2414 42.7838 30.1608 42.9218 30.0743 43.0926Z" fill="#F6B38F"/>
<path d="M31.4916 37.7451C31.4866 37.9208 31.5117 38.1898 31.4992 38.4591C31.4958 38.594 31.4923 38.7289 31.4892 38.8521C31.4787 38.9749 31.4642 39.0858 31.4496 39.1731C31.428 39.2947 31.4008 39.4151 31.3693 39.5342C31.3329 39.6526 31.2965 39.7704 31.2681 39.8894C31.2593 39.9211 31.2503 39.9536 31.2417 39.9845L31.1342 40.4027C31.1 40.5426 31.0739 40.6849 31.043 40.8263L30.9373 41.248C30.919 41.3183 30.9016 41.389 30.8808 41.4585L30.808 41.6636C30.6522 42.1058 30.4836 42.3408 30.3164 42.6568L31.2062 43.0909C31.2689 42.9484 31.3311 42.807 31.3939 42.6646C31.425 42.5933 31.4561 42.5218 31.4875 42.4497C31.5154 42.3762 31.5435 42.3021 31.5719 42.2272C31.6379 42.0474 31.7091 41.8695 31.77 41.6881C31.828 41.5055 31.8876 41.3237 31.9515 41.1433C32.0038 40.996 32.0534 40.8475 32.1091 40.7004C32.1612 40.5524 32.2198 40.4054 32.2443 40.2507C32.2682 40.1207 32.2925 39.9395 32.3162 39.7805C32.356 39.5537 32.364 39.3294 32.3869 39.1055C32.3997 38.9936 32.4039 38.88 32.4116 38.7648C32.4197 38.6496 32.4311 38.5326 32.4477 38.4123C32.4646 38.3059 32.4735 38.2016 32.478 38.0989C32.4831 37.9961 32.488 37.8956 32.4928 37.7964C32.5052 37.598 32.497 37.4055 32.4873 37.2148L31.4977 37.25C31.492 37.3966 31.4984 37.5548 31.4916 37.7451Z" fill="#F6B38F"/>
<path d="M30.0809 32.447C30.1824 32.5909 30.3147 32.8225 30.4589 33.0499C30.5335 33.1623 30.5904 33.2838 30.6469 33.3929C30.702 33.5026 30.7501 33.603 30.7841 33.6844C30.8724 33.9138 30.9134 34.1598 30.9917 34.3893C30.9988 34.4212 31.0062 34.4539 31.0131 34.4853C31.0763 34.7652 31.178 35.0327 31.2535 35.3103C31.2922 35.4485 31.3447 35.5844 31.3736 35.7256C31.4059 35.8661 31.4364 36.0072 31.4619 36.1493C31.4855 36.2634 31.4909 36.3684 31.4975 36.4655C31.5036 36.5627 31.5069 36.6527 31.509 36.7391C31.5179 36.9117 31.5014 37.072 31.4974 37.25L32.487 37.2149C32.4771 37.0587 32.4776 36.9033 32.4569 36.748C32.4391 36.5926 32.4212 36.4361 32.4028 36.2763C32.3942 36.1804 32.3784 36.0855 32.3605 35.9908L32.3107 35.7062C32.2936 35.6115 32.2803 35.5162 32.2614 35.4218L32.2013 35.1396C32.168 34.9862 32.1555 34.8274 32.1242 34.6729C32.0934 34.5184 32.0603 34.3636 32.0124 34.214C31.976 34.0862 31.8979 33.9189 31.8339 33.7702C31.7916 33.6624 31.7471 33.5574 31.7021 33.4537C31.6571 33.3498 31.6 33.2517 31.55 33.1501C31.4465 32.9482 31.3514 32.7401 31.2436 32.522C31.1973 32.4246 31.152 32.3295 31.1077 32.2364C31.0848 32.1901 31.062 32.1444 31.0395 32.0989C31.0138 32.0553 30.9882 32.0121 30.9629 31.9693C30.8609 31.7982 30.7589 31.6341 30.6565 31.4727L29.832 32.0202C29.9006 32.1496 29.9787 32.2872 30.0809 32.447Z" fill="#F6B38F"/>
<path d="M25.3839 22.4293C25.3086 22.753 25.3451 23.4675 25.7053 23.7121C26.0904 23.9776 26.3447 24.1449 26.8171 24.1411C27.0235 24.1372 27.5238 23.8685 27.6726 23.7778C27.8999 23.6351 27.9246 23.3052 27.9253 23.0824C27.9241 22.8891 27.9447 22.7074 27.9925 22.5279C28.0333 22.3756 28.0737 22.2249 28.114 22.0747L25.7352 21.3896C25.6829 21.5325 25.6292 21.6821 25.5808 21.8452C25.5306 22.0077 25.4262 22.2354 25.3839 22.4293Z" fill="#F6B38F"/>
<path d="M26.656 19.4954C26.5829 19.535 26.5134 19.5803 26.4497 19.6298C26.2398 19.7936 26.2044 20.0781 26.1522 20.3149C26.1308 20.4109 26.1069 20.507 26.0675 20.5972C25.9509 20.8565 25.8416 21.1088 25.7344 21.3899L28.1132 22.0749C28.1532 21.9332 28.1929 21.7919 28.2328 21.6507C28.2842 21.4695 28.4124 21.2674 28.4676 21.0885C28.5573 20.7979 28.6615 20.6195 28.5121 20.2489C28.3457 19.8381 27.8657 19.4012 27.3489 19.35C27.0909 19.3257 26.8554 19.387 26.656 19.4954Z" fill="#F6B38F"/>
<path d="M35.1244 28.0664C34.9342 28.1861 34.6071 28.5652 34.6726 28.9755C34.7459 29.4158 34.7814 29.7114 35.0513 30.0942C35.1678 30.2634 35.6389 30.5191 35.7942 30.5796C36.0295 30.6749 36.2688 30.4927 36.4079 30.3508C36.5296 30.2286 36.6538 30.1261 36.7934 30.0408C36.9121 29.9688 37.0274 29.894 37.142 29.8188L35.8027 27.7402C35.708 27.7858 35.6117 27.8366 35.509 27.892C35.407 27.9484 35.2396 27.9961 35.1244 28.0664Z" fill="#F6B38F"/>
<path d="M37.142 27.1191C37.0735 27.1036 37.0076 27.0946 36.9439 27.0899C36.7345 27.0741 36.6208 27.2393 36.4992 27.3574C36.4502 27.4053 36.3997 27.4525 36.3379 27.4826C36.1601 27.568 35.9886 27.6505 35.8008 27.7407L37.1401 29.8193C37.2477 29.7468 37.3546 29.6745 37.4598 29.5995C37.595 29.5046 37.7962 29.4357 37.9277 29.3341C38.1391 29.1708 38.3106 29.0894 38.3453 28.7186C38.3846 28.305 38.1293 27.7235 37.73 27.407C37.5303 27.2476 37.3292 27.1619 37.142 27.1191Z" fill="#F6B38F"/>
<path d="M37.9235 38.9553C37.6768 38.9019 37.1283 38.9946 36.9529 39.3742C36.7596 39.7796 36.6496 40.0479 36.6566 40.5154C36.6635 40.7195 36.8386 41.1879 36.8908 41.3255C36.9772 41.5357 37.1851 41.5269 37.3307 41.5068C37.4565 41.4872 37.5746 41.4909 37.6888 41.5213C37.7857 41.5476 37.8816 41.5736 37.977 41.5995L38.7032 39.2368C38.597 39.1936 38.4855 39.1491 38.3628 39.1113C38.2412 39.072 38.0712 38.9837 37.9235 38.9553Z" fill="#F6B38F"/>
<path d="M40.0615 40.055C40.0429 39.9863 40.0187 39.9207 39.9899 39.8611C39.8939 39.6638 39.6742 39.637 39.4967 39.5955C39.4246 39.5782 39.353 39.5587 39.2874 39.5245C39.0998 39.4219 38.915 39.3275 38.7066 39.2373L37.9805 41.6C38.0703 41.6268 38.1599 41.6533 38.2496 41.68C38.3649 41.7146 38.4821 41.8215 38.5941 41.8602C38.7775 41.9238 38.8769 42.0076 39.1648 41.8436C39.4827 41.6602 39.9097 41.1966 40.0496 40.7086C40.1176 40.4647 40.113 40.2425 40.0615 40.055Z" fill="#F6B38F"/>
<path d="M32.863 49.4981C32.6563 49.2771 32.1073 48.9375 31.7039 49.0813C31.27 49.2357 30.981 49.3327 30.6903 49.7031C30.5628 49.8652 30.4704 50.4247 30.458 50.6004C30.4388 50.8696 30.6976 51.0888 30.8818 51.2153C31.0421 51.3255 31.1811 51.4434 31.3037 51.5813C31.408 51.6974 31.5114 51.8124 31.6143 51.9269L33.4762 50.2981C33.3922 50.1852 33.3026 50.0683 33.2028 49.9481C33.1032 49.8273 32.9863 49.6297 32.863 49.4981Z" fill="#F6B38F"/>
<path d="M34.5288 51.9808C34.5344 51.9002 34.5332 51.82 34.5257 51.7426C34.5006 51.4874 34.2842 51.3215 34.1184 51.164C34.0512 51.1 33.985 51.0339 33.9329 50.9576C33.7836 50.7358 33.6407 50.523 33.4752 50.2979L31.6133 51.9266C31.7101 52.0342 31.8065 52.1412 31.9031 52.2482C32.0268 52.3851 32.1279 52.5952 32.2484 52.7312C32.4439 52.9519 32.5385 53.1273 32.9258 53.1807C33.3555 53.239 33.9717 53.0445 34.286 52.6342C34.4418 52.429 34.5139 52.2007 34.5288 51.9808Z" fill="#F6B38F"/>
<path d="M22.6701 56.4896C22.638 56.301 22.429 55.9179 22.0291 55.8224C21.5984 55.7238 21.3145 55.6401 20.8533 55.7184C20.6503 55.7496 20.2206 56.0497 20.1017 56.1611C19.9176 56.3266 19.987 56.6029 20.0619 56.7746C20.1252 56.9246 20.1705 57.0686 20.1947 57.22C20.2144 57.3485 20.2392 57.475 20.2646 57.6007L22.6957 57.1338C22.6917 57.0436 22.6831 56.9508 22.6738 56.8514C22.6632 56.7519 22.6872 56.6033 22.6701 56.4896Z" fill="#F6B38F"/>
<path d="M22.756 58.4117C22.7953 58.3582 22.8277 58.3052 22.8557 58.2533C22.9481 58.0827 22.8394 57.9463 22.7773 57.8134C22.7522 57.7599 22.7279 57.7054 22.7242 57.6461C22.7104 57.4762 22.7089 57.311 22.6968 57.1338L20.2656 57.6006C20.2918 57.7193 20.3176 57.8374 20.348 57.9545C20.385 58.1046 20.3747 58.3046 20.4213 58.4534C20.4961 58.692 20.5114 58.8717 20.8448 59.0125C21.2169 59.1708 21.8451 59.1007 22.2787 58.8379C22.4969 58.7072 22.6479 58.5582 22.756 58.4117Z" fill="#F6B38F"/>
<path d="M12.8767 54.9495C12.9466 54.7568 12.9372 54.2941 12.6097 54.0444C12.2577 53.7759 12.0275 53.597 11.5749 53.4795C11.3767 53.4281 10.875 53.491 10.7257 53.5222C10.4973 53.5701 10.4539 53.8013 10.4469 53.9607C10.441 54.0991 10.4177 54.225 10.3702 54.3451C10.33 54.4469 10.2914 54.5483 10.2539 54.6495L12.5582 55.5533C12.6037 55.4699 12.6487 55.382 12.6928 55.2861C12.737 55.1903 12.8348 55.065 12.8767 54.9495Z" fill="#F6B38F"/>
<path d="M11.836 56.671C11.9008 56.6537 11.9606 56.632 12.0156 56.6075C12.1966 56.5262 12.1992 56.3419 12.2295 56.1923C12.2417 56.1317 12.2559 56.0711 12.2874 56.0178C12.3784 55.8643 12.4704 55.7179 12.5603 55.5531L10.256 54.6494C10.2205 54.7453 10.1858 54.8412 10.1515 54.9372C10.1076 55.0603 9.99431 55.189 9.95242 55.3128C9.8847 55.5128 9.79801 55.6335 9.97874 55.9208C10.1797 56.2403 10.6978 56.5963 11.1961 56.6877C11.4453 56.7333 11.6589 56.7184 11.836 56.671Z" fill="#F6B38F"/>
<path d="M5.36331 47.9037C5.52987 47.7933 5.78858 47.4217 5.67188 47.028C5.54633 46.6048 5.46621 46.3254 5.17371 45.9613C5.04562 45.8019 4.61036 45.5511 4.47366 45.4864C4.26432 45.3873 4.09661 45.5443 3.99941 45.6662C3.91499 45.772 3.82399 45.8576 3.71716 45.9242C3.62654 45.9806 3.53744 46.0376 3.44922 46.0952L4.76224 48.1905C4.8464 48.1518 4.93285 48.1092 5.02322 48.0598C5.11359 48.0104 5.26357 47.9698 5.36331 47.9037Z" fill="#F6B38F"/>
<path d="M3.54353 48.6401C3.60504 48.6653 3.66516 48.684 3.723 48.6974C3.91373 48.7416 4.02195 48.5974 4.13219 48.4972C4.17686 48.4567 4.22293 48.4173 4.27875 48.394C4.43948 48.3272 4.59693 48.2664 4.76324 48.19L3.45025 46.0947C3.36672 46.1493 3.28395 46.2043 3.20143 46.2596C3.09562 46.3306 2.93134 46.3646 2.82692 46.4374C2.65796 46.555 2.5195 46.5985 2.49798 46.9339C2.47393 47.3071 2.68125 47.8989 3.025 48.2697C3.19687 48.4553 3.37546 48.5715 3.54353 48.6401Z" fill="#F6B38F"/>
<path d="M1.75721 38.2503C1.92566 38.2585 2.29042 38.1095 2.41522 37.7228C2.54938 37.307 2.63974 37.0342 2.63152 36.5686C2.62797 36.3646 2.46572 35.9069 2.40762 35.7745C2.31852 35.5718 2.12538 35.6005 1.99743 35.6422C1.8863 35.6784 1.78125 35.6943 1.67545 35.6856C1.58571 35.6781 1.49661 35.6722 1.40789 35.667L1.20703 38.1303C1.28335 38.1483 1.36321 38.1645 1.44915 38.1774C1.53509 38.1903 1.65621 38.2455 1.75721 38.2503Z" fill="#F6B38F"/>
<path d="M0.162172 37.7797C0.190396 37.8361 0.221025 37.8864 0.252794 37.9311C0.357718 38.0785 0.504537 38.0253 0.629965 38.0089C0.680719 38.0022 0.731979 37.9974 0.78134 38.0113C0.923476 38.0514 1.06017 38.0944 1.21091 38.1301L1.41177 35.6668C1.32773 35.662 1.24394 35.658 1.16003 35.6544C1.05257 35.6499 0.925121 35.5811 0.817665 35.5787C0.643888 35.5749 0.528838 35.529 0.341391 35.7876C0.132934 36.0753 -0.0333754 36.6753 0.00573398 37.1764C0.025352 37.4274 0.0849653 37.6258 0.162172 37.7797Z" fill="#F6B38F"/>
<path d="M4.07041 28.0625C4.26608 28.1575 4.75322 28.183 5.01218 27.8615C5.29315 27.5183 5.46781 27.2888 5.59792 26.8404C5.65222 26.6436 5.63095 26.1528 5.62108 26.0083C5.60172 25.7862 5.40997 25.7457 5.27252 25.7344C5.1533 25.7258 5.04698 25.6978 4.95054 25.6458C4.86865 25.6017 4.7874 25.5581 4.70665 25.5146L3.47656 27.6594C3.55706 27.7179 3.64186 27.7777 3.73691 27.8349C3.8312 27.8932 3.95283 28.0075 4.07041 28.0625Z" fill="#F6B38F"/>
<path d="M2.48086 26.7042C2.4825 26.7717 2.48984 26.8362 2.50212 26.8961C2.54313 27.0941 2.73057 27.1438 2.87637 27.2062C2.93561 27.2317 2.99395 27.2592 3.04293 27.301C3.18266 27.4235 3.31935 27.5411 3.47668 27.6592L4.70664 25.5143L4.47844 25.3891C4.38074 25.3356 4.29606 25.2133 4.20038 25.1583C4.04445 25.0685 3.96788 24.9721 3.66766 25.0927C3.33505 25.2279 2.85435 25.6299 2.62906 26.0824C2.51781 26.3088 2.47592 26.5201 2.48086 26.7042Z" fill="#F6B38F"/>
<path d="M13.6817 21.8138C13.7601 21.9891 14.0654 22.3031 14.4757 22.2802C14.9165 22.2526 15.2103 22.2471 15.6315 22.044C15.817 21.9568 16.1512 21.5657 16.2385 21.434C16.374 21.2352 16.2414 21.0083 16.1305 20.8733C16.0351 20.7553 15.9595 20.637 15.9037 20.5062C15.8568 20.395 15.8068 20.2865 15.7564 20.1787L13.5 21.1956C13.5252 21.2821 13.5549 21.3704 13.5882 21.4644C13.6224 21.5581 13.6359 21.708 13.6817 21.8138Z" fill="#F6B38F"/>
<path d="M13.176 19.965C13.1472 20.0246 13.1252 20.0826 13.1078 20.1387C13.05 20.3233 13.1837 20.4358 13.2719 20.5519C13.3076 20.5987 13.3425 20.6468 13.359 20.7036C13.4054 20.8663 13.4501 21.0235 13.4992 21.1954L15.7557 20.1785C15.7067 20.0769 15.6578 19.976 15.6062 19.8761C15.5413 19.7482 15.5146 19.5631 15.4434 19.4374C15.3289 19.2355 15.285 19.0751 14.9389 19.0142C14.553 18.9456 13.9504 19.1298 13.5691 19.4627C13.3773 19.629 13.2547 19.802 13.176 19.965Z" fill="#F6B38F"/>
<path d="M184.925 12.8624C185.35 13.4597 185.998 14.8069 186.359 15.4337C186.612 15.8703 186.903 16.2897 187.142 16.7351C187.174 16.795 187.207 16.8561 187.238 16.9146C187.819 17.9591 188.086 19.1407 188.453 20.2633C188.488 20.3774 188.522 20.4857 188.555 20.5894C188.567 20.6258 188.579 20.6613 188.591 20.6961C188.601 20.7249 188.612 20.7532 188.622 20.7808C188.664 20.8868 188.703 20.9848 188.74 21.079C188.812 21.2475 188.877 21.403 188.951 21.5767L187.66 23.6609C187.443 22.8629 187.264 22.0671 187.019 21.2666L186.859 20.7332C186.813 20.5677 186.75 20.4083 186.695 20.2458C186.576 19.9244 186.474 19.5965 186.329 19.2856C186.216 19.0299 186.083 18.7826 185.953 18.5356C185.818 18.2909 185.677 18.0501 185.568 17.7957C185.524 17.6874 185.47 17.5584 185.415 17.4231C185.356 17.2895 185.294 17.1499 185.236 17.0192C185.147 16.8351 185.063 16.6515 184.982 16.4678C184.898 16.2856 184.807 16.1077 184.718 15.9268C184.628 15.7466 184.536 15.5657 184.437 15.3844C184.331 15.2074 184.217 15.0302 184.093 14.8528C183.984 14.6952 183.878 14.5413 183.774 14.3906C183.667 14.2417 183.563 14.0959 183.46 13.9523C183.359 13.8071 183.26 13.6641 183.163 13.5223C183.061 13.3834 182.96 13.2461 182.86 13.1092L184.312 12.04C184.508 12.2714 184.712 12.5306 184.925 12.8624Z" fill="#78BD80"/>
<path d="M176.74 4.82697C177.044 5.02835 177.477 5.37929 177.91 5.72469C178.33 6.08806 178.76 6.43416 179.04 6.66527C179.239 6.82103 179.447 6.96528 179.656 7.10975C179.863 7.25607 180.062 7.41207 180.256 7.57336C180.309 7.61553 180.364 7.65862 180.416 7.69986C181.338 8.45726 182.062 9.42088 182.813 10.3338C183.128 10.6926 183.369 10.9898 183.613 11.2493C183.859 11.508 184.074 11.7567 184.311 12.0396L182.859 13.1088C182.54 12.653 182.201 12.2217 181.847 11.771C181.631 11.5055 181.406 11.2467 181.184 10.9852C180.962 10.7235 180.717 10.4829 180.478 10.2382C180.283 10.0368 180.059 9.86583 179.842 9.69024C179.622 9.51697 179.414 9.33263 179.208 9.14783C179.037 8.98815 178.811 8.75542 178.608 8.55265C178.3 8.28306 178.011 8.01001 177.714 7.73788C177.405 7.4805 177.092 7.21644 176.726 6.98279C176.08 6.57103 175.498 6.19982 174.925 5.83506L175.863 4.29492C176.126 4.44354 176.41 4.61106 176.74 4.82697Z" fill="#78BD80"/>
<path d="M166.111 0.518805C166.834 0.641158 168.243 1.14348 168.941 1.33357C169.43 1.46284 169.93 1.561 170.414 1.70594C170.479 1.72598 170.545 1.74626 170.609 1.76584C171.756 2.10157 172.779 2.74928 173.829 3.28893C174.248 3.51981 174.598 3.67512 174.918 3.83226C175.237 3.9901 175.536 4.12835 175.865 4.2961L174.928 5.83624C174.448 5.55604 173.988 5.25534 173.479 4.99128C173.179 4.82676 172.879 4.65971 172.568 4.515C172.259 4.36822 171.954 4.21015 171.633 4.0908C171.372 3.98826 171.104 3.906 170.838 3.82097C170.568 3.74609 170.3 3.67074 170.043 3.56751C169.828 3.4758 169.528 3.35253 169.261 3.25022C169.068 3.18224 168.88 3.11035 168.692 3.03708C168.503 2.97118 168.314 2.90551 168.124 2.83938C167.933 2.77463 167.741 2.71057 167.542 2.65228C167.342 2.60181 167.137 2.55596 166.924 2.51748C166.735 2.48199 166.552 2.44743 166.372 2.41333C166.191 2.38314 166.014 2.35365 165.84 2.32462C165.492 2.26148 165.157 2.19604 164.821 2.1488L165.097 0.367188C165.248 0.381474 165.405 0.396451 165.573 0.419032C165.74 0.446452 165.918 0.478942 166.111 0.518805Z" fill="#78BD80"/>
<path d="M154.64 0.579337C155 0.519889 155.555 0.464588 156.105 0.404217C156.243 0.389009 156.38 0.373802 156.515 0.359055C156.65 0.345229 156.783 0.343156 156.909 0.333708C157.161 0.31804 157.39 0.300067 157.57 0.277255C158.07 0.213428 158.567 0.0825488 159.072 0.0625021C159.139 0.0560503 159.208 0.0493681 159.275 0.0429163C160.462 -0.0854284 161.653 0.1049 162.83 0.211124C163.78 0.30721 164.361 0.292463 165.096 0.367119L164.82 2.14874C164.545 2.1068 164.273 2.05657 163.998 2.0174C163.721 1.98376 163.443 1.95011 163.159 1.91555C162.819 1.86785 162.476 1.85495 162.134 1.82615C161.963 1.81509 161.792 1.79965 161.621 1.79527L161.107 1.7932C160.546 1.78421 159.991 1.91486 159.437 1.92362C159.203 1.92799 158.878 1.91371 158.592 1.91186C158.184 1.94528 157.787 1.95634 157.384 1.97592C157.183 1.98629 156.98 1.99597 156.774 2.01671C156.57 2.04827 156.363 2.08583 156.152 2.13376C155.777 2.21833 155.421 2.28999 155.074 2.35381C154.73 2.43469 154.397 2.51303 154.067 2.59069L153.647 0.83741C153.937 0.751002 154.255 0.664824 154.64 0.579337Z" fill="#78BD80"/>
<path d="M144.064 5.01981C144.14 4.96958 144.226 4.9129 144.319 4.85092C144.416 4.79354 144.523 4.73686 144.634 4.6758C144.858 4.55575 145.102 4.42417 145.347 4.29283C145.593 4.16426 145.832 4.02508 146.059 3.9131C146.287 3.80342 146.491 3.70065 146.65 3.61171C147.093 3.37115 147.495 3.04602 147.955 2.83726C148.015 2.80569 148.077 2.7732 148.136 2.74233C148.666 2.4725 149.21 2.2271 149.786 2.06627L150.639 1.80428L151.064 1.66994L151.493 1.55174C151.952 1.41832 152.313 1.2909 152.647 1.16463C152.98 1.03582 153.296 0.948263 153.648 0.837891L154.068 2.59117C153.797 2.65154 153.527 2.71168 153.256 2.77228C152.989 2.84924 152.719 2.92712 152.444 3.00639C152.117 3.10593 151.783 3.18773 151.46 3.30087C151.138 3.41908 150.817 3.54028 150.5 3.66908C149.976 3.8654 149.514 4.20274 149.005 4.41841C148.792 4.5145 148.48 4.61312 148.222 4.73594C147.495 5.1083 146.754 5.35761 146.051 5.87122C145.893 5.9786 145.738 6.08321 145.586 6.18598C145.432 6.28506 145.283 6.38391 145.142 6.49152C144.857 6.69959 144.577 6.89614 144.297 7.08854L143.238 5.62928C143.476 5.4408 143.739 5.2424 144.064 5.01981Z" fill="#78BD80"/>
<path d="M136.138 12.9088C136.205 12.812 136.294 12.6952 136.397 12.5645C136.427 12.5274 136.44 12.5081 136.486 12.4542C136.528 12.4037 136.572 12.3526 136.616 12.3007C136.704 12.1972 136.794 12.0917 136.884 11.986C137.063 11.774 137.241 11.562 137.404 11.3684C137.483 11.27 137.558 11.1765 137.628 11.0896C137.7 11.0048 137.767 10.9267 137.826 10.8576C138.145 10.4668 138.419 10.0361 138.737 9.64303C138.778 9.58865 138.826 9.53795 138.868 9.48726C139.26 9.04001 139.688 8.62341 140.136 8.23377C140.602 7.86095 141.069 7.49319 141.518 7.10701C141.894 6.81345 142.182 6.56137 142.446 6.32081C142.577 6.19938 142.702 6.08255 142.829 5.96481C142.959 5.85098 143.096 5.74314 143.24 5.62793L144.299 7.08719L143.955 7.32222C143.843 7.40287 143.735 7.49089 143.625 7.57499C143.405 7.7455 143.183 7.91717 142.957 8.09252L142.551 8.40797L142.166 8.74899C141.91 8.97711 141.656 9.20776 141.409 9.44417C141.012 9.83958 140.709 10.3232 140.311 10.7076C140.137 10.8661 139.918 11.1039 139.718 11.309C139.447 11.6157 139.16 11.8924 138.89 12.191C138.631 12.4989 138.374 12.8171 138.132 13.1763C138.078 13.2556 138.025 13.3337 137.972 13.4109C137.944 13.4524 137.922 13.4807 137.89 13.5323L137.791 13.6899C137.658 13.8987 137.528 14.1033 137.4 14.3047C137.141 14.7065 136.884 15.093 136.63 15.4711L135.781 13.489C135.883 13.3047 135.994 13.118 136.138 12.9088Z" fill="#78BD80"/>
<path d="M125.933 13.8102C126.292 13.7365 126.845 13.6531 127.395 13.5681C127.533 13.5494 127.669 13.5197 127.805 13.5098C127.94 13.4985 128.073 13.4874 128.2 13.4768C128.453 13.454 128.681 13.4296 128.861 13.4019C129.111 13.3632 129.36 13.31 129.61 13.2563C129.861 13.2178 130.113 13.1881 130.365 13.1681C130.433 13.1609 130.502 13.1535 130.569 13.1464C131.761 12.9948 132.958 13.2114 134.134 13.3526C134.37 13.3796 134.583 13.4038 134.78 13.4264C134.877 13.436 134.97 13.4453 135.06 13.4545C135.114 13.4572 135.166 13.46 135.216 13.4628C135.417 13.4718 135.588 13.4727 135.769 13.4895L135.778 13.4902L136.627 15.4723L136.608 15.4829C136.21 15.4004 135.815 15.3186 135.417 15.2361C135.219 15.2001 135.02 15.1607 134.821 15.1299C134.683 15.1084 134.545 15.0868 134.405 15.0651C133.736 14.9702 133.061 14.8985 132.385 14.8932C132.109 14.8909 131.833 14.9156 131.559 14.9455C131.284 14.9842 131.012 15.0195 130.739 15.0259C130.509 15.0315 130.189 15.023 129.906 15.0195C129.503 15.0488 129.113 15.0771 128.717 15.1059C128.519 15.1209 128.32 15.1379 128.117 15.161C127.915 15.1847 127.714 15.2435 127.507 15.2967C127.142 15.3974 126.795 15.4845 126.456 15.5631C126.118 15.646 125.8 15.7621 125.478 15.8509L124.952 14.1264C125.238 14.0236 125.549 13.9077 125.933 13.8102Z" fill="#78BD80"/>
<path d="M115.89 19.356C116.141 19.0885 116.608 18.774 117.049 18.4357C117.274 18.2717 117.49 18.0968 117.699 17.9532C117.911 17.8136 118.101 17.6841 118.246 17.5746C118.449 17.4223 118.642 17.2578 118.837 17.0928C118.935 17.0122 119.029 16.9235 119.132 16.8507C119.236 16.7776 119.341 16.7062 119.447 16.6375C119.503 16.599 119.561 16.5594 119.616 16.5218C120.113 16.1905 120.628 15.8813 121.189 15.6665L122.015 15.3202C122.153 15.2647 122.286 15.1976 122.427 15.1485L122.847 14.9951C123.295 14.8241 123.645 14.6672 123.969 14.5137C124.296 14.3695 124.606 14.2568 124.953 14.125L125.479 15.8495C125.215 15.9253 124.953 16.0006 124.69 16.0764C124.431 16.1663 124.175 16.2691 123.91 16.3682C123.596 16.4914 123.276 16.6013 122.965 16.7345C122.661 16.882 122.358 17.0322 122.059 17.1896C121.937 17.2539 121.818 17.323 121.7 17.394L121.524 17.5016L121.357 17.6246C121.134 17.7889 120.912 17.9491 120.675 18.0843C120.478 18.2035 120.182 18.3325 119.945 18.4855C119.285 18.9445 118.588 19.28 117.981 19.8901C117.842 20.0183 117.707 20.1431 117.574 20.2657C117.507 20.3259 117.44 20.3853 117.374 20.4443C117.313 20.5079 117.252 20.571 117.191 20.6335C116.947 20.8828 116.707 21.1197 116.467 21.3524L115.173 20.0964C115.377 19.8713 115.604 19.6309 115.89 19.356Z" fill="#78BD80"/>
<path d="M109.97 28.4666C110 28.3774 110.044 28.2709 110.097 28.1495C110.121 28.0882 110.153 28.0251 110.19 27.9606L110.238 27.8739L110.329 27.6857C110.447 27.4343 110.566 27.1829 110.674 26.9532C110.779 26.722 110.87 26.5117 110.955 26.3504C111.173 25.8937 111.339 25.4086 111.557 24.9494C111.582 24.8858 111.614 24.8238 111.646 24.7658C111.931 24.2411 112.262 23.7402 112.613 23.2577C112.995 22.7957 113.383 22.3429 113.742 21.8696C114.059 21.5106 114.297 21.2094 114.512 20.9237C114.619 20.7799 114.722 20.6417 114.826 20.502C114.93 20.3626 115.051 20.2368 115.173 20.0977L116.467 21.3537L116.171 21.6383L115.898 21.9445C115.716 22.1493 115.532 22.3558 115.344 22.5666C115.233 22.6943 115.116 22.8166 115.01 22.948L114.705 23.3535C114.503 23.6245 114.303 23.8975 114.111 24.1747C113.816 24.6418 113.629 25.1722 113.329 25.6271C113.297 25.675 113.262 25.7278 113.225 25.7835C113.192 25.8414 113.157 25.9022 113.121 25.9644C113.048 26.0886 112.972 26.2183 112.901 26.34C112.715 26.6976 112.498 27.026 112.317 27.3794C112.147 27.7389 111.984 28.1034 111.841 28.5115C111.815 28.5822 111.789 28.6525 111.762 28.7226C111.741 28.7889 111.72 28.8548 111.699 28.9203C111.655 29.0511 111.62 29.1825 111.581 29.3122C111.504 29.5719 111.428 29.8261 111.353 30.0768C111.2 30.5772 111.046 31.0593 110.893 31.5307L109.82 29.0129C109.86 28.8336 109.904 28.659 109.97 28.4666Z" fill="#78BD80"/>
<path d="M101.287 27.4833C101.63 27.4594 102.153 27.4455 102.673 27.4737C103.194 27.4882 103.71 27.5442 104.05 27.5559C104.523 27.5773 105.003 27.5566 105.475 27.6161C105.539 27.6207 105.604 27.6273 105.666 27.6352C106.225 27.693 106.768 27.8474 107.297 28.0327C107.562 28.1234 107.821 28.2306 108.08 28.3338L108.466 28.4949L108.78 28.6301C109.249 28.8345 109.519 28.894 109.795 29.0027C109.803 29.0057 109.811 29.009 109.82 29.0124L110.893 31.5302L110.85 31.5586C110.206 31.1982 109.54 30.8228 108.866 30.4908C108.656 30.3917 108.447 30.2871 108.237 30.2019L107.973 30.0947C107.903 30.0645 107.831 30.0406 107.76 30.0136C107.474 29.9067 107.184 29.8124 106.888 29.7378C106.406 29.6124 105.901 29.6005 105.421 29.5064C105.218 29.4624 104.938 29.4004 104.688 29.3537C103.97 29.2534 103.288 29.115 102.516 29.1919C102.175 29.2143 101.854 29.2652 101.542 29.2917C101.231 29.3373 100.928 29.367 100.631 29.418L100.333 27.6398C100.611 27.5686 100.918 27.5299 101.287 27.4833Z" fill="#78BD80"/>
<path d="M91.6773 32.1025C91.926 31.8654 92.3256 31.5269 92.745 31.2169C93.1634 30.9059 93.5928 30.6151 93.8677 30.4146L94.4299 29.9766L94.7132 29.7579C94.8111 29.6906 94.9102 29.6247 95.0109 29.5618C95.0641 29.5263 95.1185 29.4899 95.1706 29.4551C96.117 28.8434 97.222 28.5457 98.2843 28.2357C98.7166 28.1171 99.0565 28.0003 99.3782 27.9081C99.6967 27.8032 99.9951 27.7214 100.333 27.6396L100.631 29.4178C100.143 29.4959 99.6635 29.5851 99.1719 29.7174C98.5802 29.8625 98.0027 30.0678 97.4448 30.3105C97.222 30.4218 97.0063 30.5473 96.7954 30.678C96.5887 30.8174 96.3767 30.9421 96.1615 31.0598C95.982 31.1633 95.7149 31.2752 95.4967 31.4054C94.8722 31.7734 94.2633 32.1075 93.7103 32.6486C93.2211 33.1246 92.7968 33.5675 92.3933 34.0156L91.0386 32.8258C91.2061 32.5944 91.4211 32.3707 91.6773 32.1025Z" fill="#78BD80"/>
<path d="M87.1411 41.7497C87.1856 41.4089 87.2777 40.8935 87.4096 40.3886C87.4651 40.1342 87.5464 39.8858 87.6068 39.6566C87.6702 39.4277 87.7273 39.2211 87.7727 39.0568L87.9322 38.3616C87.9889 38.1305 88.037 37.8952 88.1211 37.6729C88.1405 37.612 88.1603 37.5496 88.1792 37.4899C88.5283 36.418 89.2019 35.4928 89.8269 34.5808C90.0873 34.2165 90.2755 33.9101 90.4673 33.6363C90.5604 33.4972 90.6498 33.3631 90.7401 33.2278C90.8369 33.0971 90.9346 32.9651 91.0378 32.8262L92.3926 34.0161C92.2297 34.202 92.0621 34.3817 91.9103 34.5769C91.7522 34.7672 91.5962 34.9617 91.4498 35.1702C91.0858 35.6587 90.7578 36.1772 90.4852 36.7217C90.2677 37.1708 90.1492 37.6604 89.9603 38.1116C89.8796 38.3026 89.7515 38.5607 89.6616 38.7982C89.5305 39.1374 89.4158 39.4699 89.2968 39.8086C89.1982 40.1522 89.0959 40.5031 89.0609 40.8882C89.0146 41.226 89 41.5506 88.9629 41.8619C88.9461 42.1753 88.9136 42.4781 88.9044 42.7795L87.1026 42.7138C87.0883 42.4292 87.1125 42.1198 87.1411 41.7497Z" fill="#78BD80"/>
<path d="M89.7715 52.0856C89.3454 51.5319 88.8096 50.2208 88.5121 49.6113C88.4167 49.3938 88.3077 49.1818 88.1982 48.9689C88.1448 48.862 88.086 48.7567 88.0383 48.6474C87.9927 48.5375 87.9487 48.4267 87.9081 48.3147C87.8844 48.2553 87.8602 48.1942 87.8369 48.1359C87.4288 47.0831 87.356 45.9398 87.2806 44.8367C87.229 44.3913 87.22 44.0337 87.179 43.7015C87.1359 43.3692 87.1189 43.0609 87.1055 42.7139L88.9073 42.7795C88.8785 43.2736 88.8926 43.7616 88.9032 44.272C88.9225 44.5761 88.9548 44.8796 88.9813 45.1838C89.0135 45.487 89.0802 45.7852 89.1371 46.0838C89.179 46.329 89.2866 46.5589 89.3657 46.7928C89.4081 46.9092 89.4495 47.0253 89.4869 47.1423C89.5302 47.2575 89.5744 47.3718 89.609 47.4891C89.6733 47.6852 89.7245 47.9702 89.809 48.2085C89.8736 48.3776 89.9316 48.5461 89.9881 48.7147L90.0731 48.9677L90.1757 49.2136C90.2448 49.3779 90.3162 49.5431 90.3941 49.7088C90.4695 49.8758 90.5766 50.0297 90.6803 50.191C90.7732 50.333 90.8637 50.4712 90.9527 50.6067C91.0481 50.7376 91.1417 50.8659 91.2336 50.9922C91.3232 51.1199 91.4115 51.2457 91.4988 51.3701C91.5931 51.4895 91.6864 51.6077 91.7793 51.7252L90.3695 52.849C90.2736 52.7425 90.175 52.6298 90.072 52.5068C89.9685 52.3847 89.8772 52.2393 89.7715 52.0856Z" fill="#78BD80"/>
<path d="M98.5536 58.1299C98.2261 58.0306 97.733 57.8643 97.2571 57.65C96.7729 57.4606 96.3167 57.208 95.9975 57.09C95.7788 56.999 95.561 56.9045 95.3384 56.8191C95.1179 56.729 94.8905 56.6504 94.6858 56.5287C94.6289 56.4997 94.5706 56.4697 94.5148 56.4412C94.268 56.3082 94.018 56.1783 93.7919 56.0107C93.565 55.8446 93.3435 55.6711 93.1248 55.4955C92.9096 55.3151 92.7103 55.1151 92.5029 54.928C92.292 54.7443 92.0994 54.5409 91.8996 54.3462C91.7392 54.1886 91.5859 54.0556 91.4502 53.9254C91.3179 53.7915 91.1928 53.6708 91.0704 53.5554C90.9474 53.4404 90.8292 53.3296 90.7098 53.218C90.5989 53.098 90.4869 52.977 90.369 52.8494L91.7788 51.7256C91.9297 51.9196 92.0738 52.1171 92.2431 52.2959C92.4086 52.4777 92.5658 52.6705 92.7441 52.8505C92.9637 53.0593 93.1764 53.2766 93.4009 53.4812C93.6355 53.6743 93.8708 53.8669 94.1123 54.0501C94.5303 54.3215 94.9822 54.5305 95.4046 54.7773C95.5793 54.8884 95.812 55.0584 96.0358 55.1789C96.3565 55.349 96.6538 55.5425 96.9801 55.6918C97.1412 55.7706 97.3034 55.8511 97.4728 55.9232C97.6456 55.9868 97.8238 56.0462 98.0095 56.099C98.6681 56.2833 99.2677 56.4278 99.8613 56.5644L99.4905 58.3288C99.2124 58.279 98.9082 58.2325 98.5536 58.1299Z" fill="#78BD80"/>
<path d="M108.922 58.9638C108.29 58.929 106.985 58.7698 106.335 58.7809C105.886 58.7859 105.433 58.8525 104.981 58.8567C104.92 58.8592 104.857 58.8618 104.798 58.8643C103.728 58.9032 102.654 58.6873 101.576 58.5502C101.14 58.4882 100.788 58.4622 100.46 58.4327C100.132 58.3954 99.8256 58.3827 99.4861 58.3288L99.8569 56.5645C100.346 56.6675 100.83 56.7695 101.346 56.8387C101.961 56.9313 102.587 56.9983 103.217 57.0195C103.733 57.0354 104.251 56.9543 104.769 56.9778C104.987 56.9887 105.288 57.0195 105.557 57.0384C106.325 57.0691 107.05 57.1762 107.872 57.1458C108.603 57.12 109.267 57.1405 109.92 57.1845L109.812 58.9841C109.55 58.985 109.263 58.9855 108.922 58.9638Z" fill="#78BD80"/>
<path d="M119.17 59.3931C118.522 59.3807 117.197 59.2284 116.548 59.2309C116.096 59.2339 115.642 59.2938 115.191 59.295C115.13 59.2973 115.068 59.2996 115.009 59.3017C113.944 59.3335 112.886 59.1127 111.825 59.0233C111.397 58.9899 111.052 58.9745 110.731 58.9745C110.421 58.9777 110.135 58.9807 109.815 58.9842L109.923 57.1846C110.192 57.2076 110.458 57.2304 110.726 57.2535C110.985 57.2781 111.246 57.303 111.513 57.3284C112.149 57.3846 112.787 57.4401 113.427 57.4553C113.949 57.4664 114.475 57.3857 114.994 57.415C115.213 57.4279 115.516 57.4583 115.784 57.4823C116.552 57.5196 117.269 57.6339 118.082 57.5963C118.802 57.5638 119.453 57.5631 120.092 57.5737L120.081 59.3766C119.812 59.3913 119.521 59.4014 119.17 59.3931Z" fill="#78BD80"/>
<path d="M129.4 59.4147C128.753 59.4075 127.432 59.2773 126.786 59.2964C126.336 59.3098 125.886 59.3833 125.438 59.3997C125.378 59.4041 125.316 59.4084 125.257 59.4126C124.202 59.4833 123.155 59.2953 122.1 59.2778C121.25 59.2605 120.737 59.3384 120.083 59.3764L120.093 57.5736C120.618 57.5846 121.135 57.5955 121.675 57.607C122.321 57.6188 122.969 57.6388 123.616 57.6254C124.144 57.6137 124.675 57.5206 125.198 57.5277C125.419 57.5321 125.725 57.554 125.995 57.5688C126.768 57.5835 127.489 57.6817 128.305 57.6319C129.027 57.5876 129.678 57.5812 130.318 57.586L130.31 59.3888C130.042 59.4068 129.75 59.4186 129.4 59.4147Z" fill="#78BD80"/>
<path d="M139.635 59.3881C138.988 59.3809 137.665 59.2507 137.019 59.2699C136.57 59.2832 136.12 59.357 135.673 59.3731C135.612 59.3775 135.551 59.3819 135.492 59.386C134.437 59.4561 133.381 59.2892 132.326 59.2752C131.475 59.2639 130.962 59.345 130.309 59.3885L130.317 57.5857C130.841 57.5929 131.358 57.5998 131.898 57.6071C132.544 57.6143 133.19 57.6297 133.835 57.6104C134.362 57.5947 134.889 57.4906 135.412 57.5007C135.634 57.5051 135.94 57.527 136.21 57.5417C136.983 57.5565 137.705 57.6546 138.521 57.6048C139.242 57.5608 139.894 57.5541 140.534 57.559L140.545 59.3618C140.276 59.3802 139.985 59.392 139.635 59.3881Z" fill="#78BD80"/>
<path d="M149.867 59.319C149.22 59.316 147.898 59.1944 147.253 59.2176C146.804 59.234 146.355 59.3105 145.908 59.3296C145.848 59.3342 145.787 59.3391 145.728 59.3437C144.675 59.4183 143.619 59.2653 142.563 59.2483C141.712 59.237 141.2 59.3181 140.547 59.3619L140.536 57.5591C141.06 57.5662 141.577 57.5731 142.117 57.5805C142.763 57.5876 143.41 57.6042 144.055 57.5791C144.582 57.56 145.108 57.4526 145.632 57.4593C145.854 57.462 146.16 57.4821 146.431 57.4952C147.205 57.5049 147.929 57.5985 148.744 57.5434C149.466 57.4945 150.118 57.4837 150.759 57.4846L150.775 59.2875C150.507 59.307 150.216 59.3206 149.867 59.319Z" fill="#78BD80"/>
<path d="M160.093 59.2291C159.447 59.2256 158.125 59.1026 157.48 59.1258C157.031 59.1422 156.582 59.2187 156.135 59.2378C156.075 59.2424 156.014 59.2473 155.955 59.2519C154.902 59.3286 153.845 59.1687 152.791 59.1616C151.941 59.1558 151.429 59.2401 150.777 59.288L150.76 57.4852C151.285 57.4889 151.803 57.4926 152.343 57.4965C152.99 57.4995 153.637 57.5108 154.282 57.4873C154.809 57.4682 155.335 57.3608 155.859 57.3675C156.081 57.3703 156.388 57.3903 156.658 57.4034C157.432 57.4129 158.156 57.5069 158.972 57.4527C159.694 57.4046 160.346 57.3942 160.987 57.3956L161.002 59.1984C160.734 59.2175 160.443 59.2309 160.093 59.2291Z" fill="#78BD80"/>
<path d="M170.316 59.145C169.67 59.1415 168.348 59.0185 167.703 59.0415C167.253 59.0574 166.805 59.1335 166.358 59.1524C166.298 59.157 166.237 59.1616 166.178 59.1662C165.125 59.2422 164.069 59.0812 163.014 59.0731C162.164 59.0667 161.653 59.1505 161 59.1978L160.985 57.395C161.51 57.3991 162.028 57.4033 162.568 57.4076C163.214 57.4111 163.862 57.4231 164.507 57.4C165.035 57.3814 165.561 57.2744 166.085 57.2816C166.307 57.2846 166.613 57.3049 166.884 57.3182C167.658 57.3286 168.381 57.4228 169.197 57.3685C169.92 57.3203 170.572 57.3099 171.213 57.3113L171.225 59.1141C170.956 59.1335 170.665 59.1468 170.316 59.145Z" fill="#78BD80"/>
<path d="M180.542 59.061C179.896 59.0576 178.575 58.9345 177.929 58.9576C177.48 58.9735 177.032 59.0495 176.585 59.0684C176.525 59.073 176.463 59.0776 176.404 59.0822C175.351 59.1583 174.295 58.9972 173.241 58.9891C172.391 58.9827 171.879 59.0665 171.227 59.1138L171.215 57.311C171.74 57.3151 172.258 57.3193 172.798 57.3236C173.444 57.3271 174.092 57.3391 174.737 57.316C175.265 57.2974 175.791 57.1905 176.315 57.1976C176.537 57.2006 176.843 57.2209 177.114 57.2342C177.888 57.2446 178.612 57.3389 179.427 57.2845C180.15 57.2363 180.802 57.2259 181.443 57.2273L181.451 59.0301C181.183 59.0497 180.892 59.0631 180.542 59.061Z" fill="#78BD80"/>
<path d="M190.765 58.977C190.119 58.9736 188.797 58.8505 188.152 58.8736C187.703 58.8895 187.254 58.9655 186.807 58.9844C186.747 58.989 186.686 58.9939 186.627 58.9982C185.574 59.0743 184.518 58.9132 183.464 58.9052C182.614 58.8987 182.102 58.9826 181.45 59.0298L181.441 57.227C181.966 57.2311 182.484 57.2353 183.024 57.2397C183.67 57.2431 184.318 57.2551 184.963 57.2321C185.491 57.2134 186.017 57.1065 186.542 57.1136C186.763 57.1166 187.07 57.1369 187.34 57.1503C188.114 57.1606 188.838 57.2549 189.653 57.2005C190.376 57.1523 191.028 57.142 191.669 57.1433L191.674 58.9462C191.406 58.9655 191.114 58.9789 190.765 58.977Z" fill="#78BD80"/>
<path d="M201.102 56.8706C200.801 57.0307 200.314 57.2116 199.831 57.3936C199.342 57.5579 198.854 57.7215 198.534 57.8291C198.096 58.0015 197.661 58.19 197.212 58.3349C197.152 58.3533 197.09 58.3722 197.031 58.3902C195.967 58.7285 194.835 58.7319 193.74 58.7842C193.297 58.8158 192.941 58.8241 192.611 58.8623C192.287 58.8921 192.002 58.9222 191.674 58.9467L191.669 57.1439C191.931 57.1457 192.192 57.1475 192.454 57.1494C192.705 57.1471 192.958 57.1448 193.217 57.1425C193.525 57.1409 193.832 57.1095 194.139 57.0929C194.447 57.0687 194.751 57.0197 195.055 56.9745C195.55 56.8773 196.021 56.6881 196.504 56.5777C196.71 56.5406 196.994 56.4791 197.245 56.4233C197.954 56.2385 198.638 56.0915 199.334 55.7383C199.638 55.5756 199.933 55.4355 200.209 55.2786C200.349 55.2046 200.488 55.132 200.624 55.0599C200.758 54.9834 200.891 54.9076 201.023 54.832L201.93 56.3906C201.812 56.4687 201.688 56.5484 201.553 56.6312C201.417 56.7116 201.266 56.7876 201.102 56.8706Z" fill="#78BD80"/>
<path d="M208.79 49.5555C208.447 50.1472 207.568 51.2251 207.143 51.7459L206.731 52.3199C206.592 52.5109 206.46 52.7086 206.301 52.8812C206.26 52.9298 206.219 52.9796 206.179 53.0273C205.465 53.8828 204.517 54.4987 203.627 55.1407C203.261 55.3925 202.986 55.6195 202.717 55.8128C202.453 56.0133 202.212 56.2052 201.923 56.3903L201.017 54.8317L201.343 54.6492L201.66 54.4524C201.873 54.3218 202.089 54.1911 202.297 54.0402L202.677 53.7778C202.803 53.6884 202.923 53.5916 203.045 53.4983C203.167 53.4031 203.29 53.3109 203.408 53.2114L203.751 52.9024C203.939 52.7356 204.1 52.5397 204.261 52.3471C204.342 52.2512 204.424 52.1563 204.508 52.0646C204.588 51.9685 204.67 51.8752 204.758 51.7871C204.906 51.6388 205.124 51.4452 205.299 51.2569C205.8 50.7214 206.288 50.2217 206.692 49.5541C207.031 48.9534 207.346 48.4209 207.626 47.8799L209.229 48.7057C209.121 48.9677 208.978 49.2394 208.79 49.5555Z" fill="#78BD80"/>
<path d="M211.325 39.2458C211.331 39.5859 211.316 40.1037 211.261 40.6175C211.251 40.7459 211.24 40.8742 211.229 40.9998C211.214 41.1249 211.199 41.2475 211.184 41.3643C211.156 41.598 211.138 41.8097 211.127 41.9782C211.08 42.4448 211.103 42.9231 211.027 43.3881C211.02 43.451 211.013 43.5155 211.006 43.5771C210.866 44.6835 210.4 45.714 209.996 46.7343C209.911 46.9401 209.841 47.1272 209.779 47.3027C209.712 47.4765 209.651 47.6371 209.592 47.7919C209.483 48.1058 209.373 48.3922 209.234 48.7067L207.631 47.8809C207.869 47.4417 208.081 46.9972 208.285 46.5253C208.522 45.9582 208.747 45.3815 208.894 44.784C209.024 44.2976 209.032 43.7858 209.141 43.3031C209.18 43.0973 209.258 42.8164 209.311 42.5648C209.359 42.201 209.45 41.8535 209.488 41.4936C209.512 41.3141 209.534 41.133 209.551 40.9479C209.561 40.7627 209.56 40.573 209.553 40.3783C209.527 39.6892 209.488 39.0705 209.441 38.4631L211.236 38.2939C211.271 38.5737 211.319 38.8783 211.325 39.2458Z" fill="#78BD80"/>
<path d="M207.891 29.1999C208.092 29.4748 208.339 29.9326 208.583 30.3865C208.7 30.6167 208.817 30.8467 208.923 31.0568C209.025 31.2688 209.116 31.4615 209.198 31.6092C209.314 31.8135 209.434 32.0163 209.549 32.2228C209.663 32.4292 209.79 32.6304 209.88 32.8477C209.908 32.9048 209.936 32.9634 209.962 33.0193C210.442 34.0263 210.608 35.1448 210.817 36.2227C210.974 37.0964 211.127 37.6149 211.236 38.2944L209.441 38.4635C209.429 38.2137 209.389 37.969 209.365 37.7202C209.344 37.4709 209.3 37.2232 209.258 36.9695C209.213 36.6646 209.148 36.3637 209.08 36.0634C209.02 35.7609 208.926 35.4673 208.834 35.1738C208.764 34.9325 208.646 34.7072 208.543 34.4788C208.443 34.2493 208.329 34.0267 208.241 33.7947C208.205 33.6963 208.165 33.5777 208.124 33.453C208.078 33.3304 208.03 33.2023 207.985 33.0823C207.706 32.4044 207.457 31.752 207.016 31.1085C206.612 30.5499 206.259 30.0411 205.883 29.5619L207.301 28.4482C207.394 28.5542 207.493 28.6635 207.591 28.7877C207.687 28.9128 207.786 29.049 207.891 29.1999Z" fill="#78BD80"/>
<path d="M199.582 22.593C199.742 22.6534 199.932 22.7527 200.142 22.8617C200.352 22.9721 200.583 23.0873 200.804 23.2232C201.026 23.3562 201.251 23.4811 201.451 23.6046C201.65 23.7299 201.833 23.8398 201.981 23.9198L202.607 24.2491C202.818 24.3557 203.027 24.4654 203.222 24.5981C203.276 24.6313 203.331 24.6652 203.384 24.6975C204.33 25.2873 205.07 26.1411 205.829 26.9337C206.133 27.2574 206.39 27.5031 206.621 27.7413C206.739 27.8577 206.853 27.9699 206.968 28.0828C207.077 28.2015 207.187 28.3213 207.303 28.4476L205.885 29.5612C205.732 29.3635 205.585 29.1642 205.42 28.9759C205.257 28.7863 205.104 28.5861 204.924 28.4019C204.713 28.1775 204.509 27.9457 204.283 27.7363L203.949 27.4169C203.833 27.3148 203.714 27.2178 203.595 27.1203C203.497 27.0411 203.397 26.966 203.294 26.8929L202.975 26.6913C202.762 26.5574 202.554 26.4206 202.352 26.277C202.182 26.1544 201.964 25.9592 201.752 25.8139C201.599 25.7118 201.452 25.6067 201.306 25.5005C201.158 25.3982 201.007 25.3012 200.855 25.2014C200.556 24.9961 200.228 24.83 199.873 24.6717C199.553 24.5442 199.249 24.4233 198.954 24.306C198.655 24.2007 198.375 24.0732 198.085 23.9797L198.679 22.2773C198.955 22.3446 199.24 22.4578 199.582 22.593Z" fill="#78BD80"/>
<path d="M189.455 21.4472C189.541 21.4332 189.648 21.4251 189.772 21.4198C189.845 21.4168 189.922 21.4138 190.001 21.4106C190.127 21.4034 190.256 21.3961 190.385 21.3889C190.901 21.3626 191.416 21.3619 191.752 21.3405C192.22 21.305 192.69 21.2465 193.161 21.2435C193.225 21.241 193.29 21.2382 193.351 21.2357C194.466 21.2237 195.551 21.5419 196.618 21.8004C197.051 21.8986 197.397 21.9825 197.722 22.0502C198.049 22.1106 198.345 22.1901 198.678 22.2767L198.084 23.9791C197.847 23.9 197.617 23.8081 197.378 23.736C197.138 23.665 196.898 23.589 196.651 23.5196C196.351 23.45 196.054 23.3666 195.752 23.3065C195.449 23.2546 195.147 23.1873 194.84 23.1615C194.59 23.1396 194.338 23.1318 194.087 23.1346C193.835 23.1424 193.586 23.147 193.338 23.1228C193.129 23.1055 192.839 23.0816 192.583 23.0606C191.85 23.0343 191.152 22.9747 190.383 23.1138C190.167 23.1535 189.956 23.1922 189.749 23.23C189.507 23.2761 189.267 23.3279 189.029 23.3802C188.791 23.4332 188.557 23.4855 188.325 23.5371C188.21 23.5629 188.095 23.5885 187.981 23.6141L187.812 23.6523L187.728 23.6712L187.686 23.6807C187.677 23.6754 187.67 23.6671 187.662 23.6606L188.953 21.5765C189.111 21.5223 189.27 21.4769 189.455 21.4472Z" fill="#78BD80"/>
<path d="M186.824 21.9502C186.954 21.9036 187.165 21.8562 187.374 21.8555C187.584 21.8582 187.789 21.9009 187.904 22.0149C188.151 22.2599 188.308 22.4223 188.341 22.7675C188.354 22.9193 188.171 23.3205 188.107 23.4394C188.004 23.6182 187.737 23.6875 187.553 23.717C187.393 23.741 187.244 23.7795 187.102 23.8438C186.98 23.8952 186.859 23.9463 186.739 23.997L185.999 22.3529C186.112 22.2949 186.231 22.2359 186.36 22.176C186.488 22.1142 186.666 22.0046 186.824 21.9502Z" fill="#78BD80"/>
<path d="M179.143 27.7672C179.239 27.6479 179.366 27.5015 179.508 27.3426C179.653 27.1859 179.82 27.022 179.982 26.8557C180.315 26.5301 180.653 26.2137 180.866 25.9976C181.011 25.8437 181.147 25.6803 181.291 25.5243C181.435 25.3678 181.572 25.2029 181.732 25.0641C181.773 25.0245 181.815 24.984 181.855 24.9452C182.579 24.2496 183.499 23.8083 184.358 23.3233C185.053 22.93 185.453 22.6519 185.996 22.3525L186.736 23.9966C186.533 24.0888 186.331 24.1802 186.128 24.2726C185.927 24.3692 185.727 24.4738 185.522 24.5775C185.04 24.8425 184.558 25.1146 184.119 25.4489C183.939 25.5833 183.773 25.7363 183.613 25.8962C183.451 26.052 183.289 26.2057 183.118 26.3464C182.97 26.4619 182.756 26.6117 182.579 26.7575C182.08 27.1826 181.576 27.5575 181.158 28.1165C180.784 28.6062 180.465 29.0573 180.144 29.4965L178.656 28.4792C178.791 28.264 178.938 28.0278 179.143 27.7672Z" fill="#78BD80"/>
<path d="M175.662 36.6839C175.701 36.3797 175.789 35.921 175.901 35.4696C176.015 35.0195 176.129 34.5707 176.203 34.276C176.287 33.8619 176.338 33.4363 176.449 33.0271C176.464 32.9718 176.478 32.9156 176.492 32.8614C176.743 31.889 177.294 31.03 177.773 30.1659C178.158 29.4657 178.357 29.0217 178.662 28.4795L180.15 29.4968C180.025 29.6814 179.901 29.8643 179.776 30.0489C179.659 30.2388 179.541 30.43 179.42 30.6252C179.151 31.1038 178.88 31.5865 178.684 32.1015C178.598 32.3093 178.541 32.5285 178.488 32.7474C178.429 32.9642 178.377 33.1812 178.303 33.3907C178.271 33.4789 178.228 33.5824 178.184 33.6912C178.143 33.8011 178.1 33.9161 178.061 34.0237C177.861 34.6479 177.625 35.2308 177.564 35.9276C177.503 36.5415 177.462 37.0936 177.422 37.6362L175.621 37.5443C175.618 37.2899 175.629 37.0134 175.662 36.6839Z" fill="#78BD80"/>
<path d="M175.81 39.2947C175.768 39.2438 175.731 39.189 175.697 39.1327C175.582 38.9466 175.634 38.7113 175.65 38.5095C175.657 38.4274 175.663 38.3449 175.655 38.2627C175.638 38.026 175.625 37.7968 175.616 37.5449L177.417 37.6369L177.398 38.0065C177.387 38.1645 177.429 38.3597 177.428 38.5166C177.421 38.7719 177.449 38.9417 177.266 39.1959C177.059 39.4775 176.623 39.6952 176.256 39.5964C176.072 39.5464 175.925 39.4341 175.81 39.2947Z" fill="#78BD80"/>
<path d="M134.98 14.835C135.124 14.5158 135.528 13.9041 135.865 13.8368C136.23 13.7649 136.473 13.7087 136.75 13.9248C136.871 14.0179 137.011 14.5327 137.038 14.7027C137.083 14.9647 136.894 15.3219 136.755 15.5461C136.634 15.7394 136.531 15.9318 136.443 16.1341C136.367 16.3053 136.293 16.4747 136.218 16.6436L134.564 15.9276C134.621 15.7735 134.682 15.6157 134.751 15.4474C134.82 15.2781 134.894 15.0267 134.98 14.835Z" fill="#78BD80"/>
<path d="M132.967 27.3986C132.88 26.9997 132.865 26.3734 132.82 25.7568C132.795 25.4483 132.815 25.1361 132.806 24.8536C132.804 24.5706 132.794 24.3148 132.784 24.1121C132.785 23.8291 132.771 23.5459 132.757 23.2616C132.744 22.9775 132.721 22.6924 132.751 22.4093C132.755 22.333 132.758 22.2549 132.762 22.1802C132.782 21.845 132.804 21.5132 132.859 21.1777C132.916 20.8392 132.997 20.5071 133.088 20.1797C133.272 19.5253 133.513 18.8995 133.74 18.2799C134.111 17.2845 134.291 16.6775 134.566 15.9277L136.221 16.6437C135.967 17.2176 135.717 17.7757 135.487 18.3628C135.213 19.0642 134.967 19.7691 134.816 20.4857C134.756 20.7783 134.724 21.0753 134.706 21.3696C134.68 21.6611 134.689 21.9705 134.648 22.2648C134.618 22.5157 134.55 22.8609 134.538 23.1713C134.485 24.0542 134.407 24.8962 134.553 25.831C134.673 26.6578 134.824 27.3951 134.966 28.1219L133.207 28.5191C133.114 28.194 133.046 27.832 132.967 27.3986Z" fill="#78BD80"/>
<path d="M138.567 38.8039C138.422 38.6599 138.264 38.4559 138.092 38.2297C137.921 38.0039 137.733 37.7568 137.546 37.5098C137.202 36.9946 136.854 36.4854 136.621 36.1552C136.465 35.9218 136.295 35.6962 136.125 35.4701L135.872 35.13C135.792 35.0137 135.72 34.8927 135.648 34.772C135.608 34.7079 135.567 34.6422 135.528 34.5796C134.803 33.4593 134.438 32.1588 134.007 30.9182C133.852 30.4089 133.692 30.0129 133.566 29.6368C133.443 29.2585 133.33 28.9091 133.204 28.5183L134.962 28.1211C135.113 28.7091 135.224 29.2992 135.428 29.8923C135.541 30.2493 135.641 30.6117 135.787 30.958C135.927 31.3055 136.049 31.6613 136.217 31.9963C136.493 32.5443 136.833 33.0549 137.13 33.5812C137.254 33.8042 137.388 34.1353 137.553 34.401C137.67 34.5916 137.78 34.7817 137.889 34.9724C137.997 35.1635 138.102 35.3563 138.228 35.5356C138.35 35.7185 138.474 35.902 138.605 36.0854C138.735 36.2697 138.872 36.4545 139.039 36.6229C139.328 36.9248 139.581 37.2322 139.85 37.5064C140.122 37.778 140.381 38.0453 140.635 38.3129L139.385 39.612C139.136 39.3818 138.871 39.1246 138.567 38.8039Z" fill="#78BD80"/>
<path d="M141.301 40.976C141.221 40.9642 141.14 40.946 141.06 40.9232C140.799 40.8442 140.57 40.6288 140.383 40.4317C140.306 40.3529 140.228 40.2744 140.142 40.2069C139.892 40.0115 139.647 39.8262 139.388 39.6126L140.638 38.3135L141.007 38.6522C141.165 38.7969 141.389 38.9407 141.545 39.0863C141.802 39.317 142.011 39.4253 142.15 39.7891C142.307 40.1891 142.247 40.7046 141.904 40.8974C141.731 40.9933 141.519 41.0085 141.301 40.976Z" fill="#78BD80"/>
<path d="M109.556 29.5873C109.63 29.3184 109.96 28.818 110.28 28.7836C110.625 28.7442 110.85 28.7251 111.139 28.9161C111.265 29.0016 111.465 29.394 111.519 29.5173C111.559 29.6134 111.548 29.7219 111.515 29.8265C111.484 29.932 111.437 30.0357 111.392 30.1157C111.315 30.2549 111.254 30.3936 111.209 30.5411C111.177 30.6678 111.145 30.7934 111.113 30.9185L109.363 30.4862C109.385 30.3606 109.41 30.2298 109.439 30.0903C109.476 29.9528 109.505 29.7459 109.556 29.5873Z" fill="#78BD80"/>
<path d="M109.601 39.199C109.56 39.0513 109.508 38.8651 109.466 38.6559C109.429 38.4462 109.388 38.2167 109.348 37.9872C109.307 37.7584 109.287 37.5262 109.254 37.3174C109.223 37.1082 109.195 36.919 109.173 36.769C109.138 36.5607 109.088 36.3542 109.039 36.1469C109 35.9386 108.96 35.7293 108.935 35.5192C108.926 35.4627 108.917 35.4051 108.909 35.3501C108.785 34.3535 108.986 33.3528 109.122 32.3758C109.152 32.1781 109.173 31.9993 109.189 31.8327C109.212 31.667 109.231 31.5135 109.246 31.3647C109.262 31.2158 109.276 31.0723 109.291 30.9278C109.313 30.784 109.336 30.6393 109.361 30.4863L111.111 30.9186C110.993 31.3435 110.906 31.7707 110.826 32.2184C110.74 32.7557 110.67 33.2995 110.67 33.8447C110.675 34.0675 110.691 34.2901 110.723 34.5109C110.756 34.7316 110.785 34.9507 110.786 35.1706C110.795 35.3558 110.795 35.6132 110.798 35.8413C110.822 36.1664 110.844 36.4814 110.868 36.8008C110.913 37.1172 110.944 37.4441 111.059 37.7706C111.104 37.9163 111.148 38.0582 111.191 38.1974C111.234 38.3363 111.284 38.4697 111.327 38.6034C111.369 38.7368 111.412 38.8681 111.453 38.9983C111.5 39.1267 111.546 39.2534 111.592 39.3799L109.902 40.0076C109.796 39.7753 109.689 39.5191 109.601 39.199Z" fill="#78BD80"/>
<path d="M110.779 41.5348C110.72 41.5051 110.664 41.4703 110.61 41.4323C110.522 41.3696 110.462 41.2802 110.416 41.1834C110.374 41.0843 110.346 40.9774 110.314 40.8809C110.289 40.8025 110.262 40.7239 110.223 40.6514C110.105 40.4437 110.002 40.2382 109.901 40.0076L111.592 39.3799L111.713 39.7253C111.772 39.8695 111.888 40.0294 111.946 40.1737C112.034 40.4103 112.138 40.547 112.069 40.8527C111.992 41.1917 111.682 41.5687 111.307 41.629C111.12 41.6585 110.94 41.6159 110.779 41.5348Z" fill="#78BD80"/>
</svg>
