<svg width="328" height="88" viewBox="0 0 328 88" fill="none" xmlns="http://www.w3.org/2000/svg">
<path d="M0.931254 39.6054L18.668 33.0799C19.4912 32.7961 20.2102 33.2715 19.9435 34.4593L19.945 34.4578L16.925 48.034C16.7012 48.9965 16.1018 49.2306 15.2632 48.7771L10.6642 45.5429L8.44599 47.582C8.20071 47.8161 7.99376 48.0135 7.51853 48.0135L7.84506 43.5476L16.3685 36.2C16.7395 35.8884 16.2857 35.7129 15.7967 36.023L5.2635 42.3511L0.722766 40.9994C-0.262949 40.701 -0.284411 40.0589 0.931254 39.6054Z" fill="white" fill-opacity="0.24"/>
<path d="M257.931 6.6054L275.668 0.0798657C276.491 -0.203917 277.21 0.271492 276.943 1.45928L276.945 1.45782L273.925 15.034C273.701 15.9965 273.102 16.2306 272.263 15.7771L267.664 12.5429L265.446 14.582C265.201 14.8161 264.994 15.0135 264.519 15.0135L264.845 10.5476L273.369 3.20001C273.739 2.88843 273.286 2.7129 272.797 3.02301L262.263 9.35106L257.723 7.99944C256.737 7.70103 256.716 7.05886 257.931 6.6054Z" fill="white" fill-opacity="0.24"/>
<path d="M39.9313 78.6054L57.668 72.0799C58.4912 71.7961 59.2102 72.2715 58.9435 73.4593L58.945 73.4578L55.925 87.034C55.7012 87.9965 55.1018 88.2306 54.2632 87.7771L49.6642 84.5429L47.446 86.582C47.2007 86.8161 46.9938 87.0135 46.5185 87.0135L46.8451 82.5476L55.3685 75.2C55.7395 74.8884 55.2857 74.7129 54.7967 75.023L44.2635 81.3511L39.7228 79.9994C38.7371 79.701 38.7156 79.0589 39.9313 78.6054Z" fill="white" fill-opacity="0.24"/>
<path d="M308.931 45.6054L326.668 39.0799C327.491 38.7961 328.21 39.2715 327.943 40.4593L327.945 40.4578L324.925 54.034C324.701 54.9965 324.102 55.2306 323.263 54.7771L318.664 51.5429L316.446 53.582C316.201 53.8161 315.994 54.0135 315.519 54.0135L315.845 49.5476L324.369 42.2C324.739 41.8884 324.286 41.7129 323.797 42.023L313.263 48.3511L308.723 46.9994C307.737 46.701 307.716 46.0589 308.931 45.6054Z" fill="white" fill-opacity="0.24"/>
</svg>
