<svg width="40" height="40" viewBox="0 0 40 40" fill="none" xmlns="http://www.w3.org/2000/svg">
<g clip-path="url(#clip0_197_5866)">
<path d="M35.3125 13.7501H34.0625V2.81259C34.0625 2.15447 33.6501 1.56689 33.0312 1.34314C32.4122 1.11939 31.7195 1.30752 31.2986 1.81353C26.6419 7.41345 19.7787 10.6251 12.4688 10.6251H4.6875C2.10281 10.6251 0 12.7279 0 15.3126V21.5626C0 23.4924 1.16289 25.2955 3.125 25.9861V37.1876C3.125 38.0506 3.82453 38.7501 4.6875 38.7501H10.9375C11.8005 38.7501 12.5 38.0506 12.5 37.1876V26.2503C19.7982 26.2595 26.6485 29.4698 31.2986 35.0616C31.6013 35.4257 32.0448 35.6252 32.5003 35.6252C32.678 35.6252 32.8575 35.5948 33.0312 35.532C33.6501 35.3084 34.0625 34.7208 34.0625 34.0626V23.1251H35.3125C37.8972 23.1251 40 21.0223 40 18.4376C40 15.8529 37.8972 13.7501 35.3125 13.7501ZM6.25 35.6251V26.2501H9.375V35.6251H6.25ZM30.9375 30.1968C28.9255 28.3921 26.6446 26.8769 24.2014 25.7334C20.5557 24.027 16.4987 23.1251 12.4688 23.1251H4.6875C3.81352 23.1251 3.125 22.4398 3.125 21.5626V15.3126C3.125 14.451 3.82594 13.7501 4.6875 13.7501H12.4688C16.4987 13.7501 20.5557 12.8481 24.2014 11.1419C26.6445 9.99837 28.9255 8.48314 30.9375 6.67845V30.1968ZM35.3125 20.0001H34.0625V16.8751H35.3125C36.1741 16.8751 36.875 17.576 36.875 18.4376C36.875 19.2992 36.1741 20.0001 35.3125 20.0001Z" fill="#37ABFF"/>
</g>
<defs>
<clipPath id="clip0_197_5866">
<rect width="40" height="40" fill="white"/>
</clipPath>
</defs>
</svg>
