<svg width="40" height="40" viewBox="0 0 40 40" fill="none" xmlns="http://www.w3.org/2000/svg">
<path d="M34.768 18.0837C34.9115 17.6247 34.9901 17.1478 35.0013 16.667V10.0003C35.0013 5.25033 27.8346 1.66699 18.3346 1.66699C8.83464 1.66699 1.66797 5.25033 1.66797 10.0003V16.667C1.75984 17.7773 2.1363 18.8453 2.76104 19.7678C3.38578 20.6903 4.2377 21.4362 5.23464 21.9337C5.08161 22.3846 5.00281 22.8574 5.0013 23.3337V30.0003C5.0013 34.7503 12.168 38.3337 21.668 38.3337C31.168 38.3337 38.3346 34.7503 38.3346 30.0003V23.3337C38.2448 22.2249 37.8689 21.1584 37.2438 20.2382C36.6187 19.3181 35.7657 18.5757 34.768 18.0837ZM18.3346 25.0003C24.7513 25.0003 30.1013 23.3337 32.9013 20.8337C34.2346 21.6337 35.0013 22.5003 35.0013 23.3337C35.0013 25.367 29.8013 28.3337 21.668 28.3337C13.5346 28.3337 8.48464 25.4503 8.33464 23.417C11.5522 24.5155 14.9351 25.0511 18.3346 25.0003ZM18.3346 5.00033C26.468 5.00033 31.668 7.96699 31.668 10.0003C31.668 12.0337 26.468 15.0003 18.3346 15.0003C10.2013 15.0003 5.0013 12.0337 5.0013 10.0003C5.0013 7.96699 10.2013 5.00033 18.3346 5.00033ZM5.0013 15.1003C9.05494 17.4063 13.675 18.5266 18.3346 18.3337C22.9943 18.5266 27.6143 17.4063 31.668 15.1003V16.667C31.668 18.7003 26.468 21.667 18.3346 21.667C10.2013 21.667 5.0013 18.7003 5.0013 16.667V15.1003ZM21.668 35.0003C13.5346 35.0003 8.33464 32.0337 8.33464 30.0003V28.4337C12.3883 30.7396 17.0083 31.86 21.668 31.667C26.3276 31.86 30.9477 30.7396 35.0013 28.4337V30.0003C35.0013 32.0337 29.8013 35.0003 21.668 35.0003Z" fill="#37ABFF"/>
</svg>
