<svg width="40" height="40" viewBox="0 0 40 40" fill="none" xmlns="http://www.w3.org/2000/svg">
<path d="M18.125 33.75H21.875C24.0289 33.75 25.7812 31.9977 25.7812 29.8438V3.90625C25.7812 1.75234 24.0289 0 21.875 0H18.125C15.9711 0 14.2188 1.75234 14.2188 3.90625V29.8438C14.2188 31.9977 15.9711 33.75 18.125 33.75ZM17.3438 3.90625C17.3438 3.47547 17.6942 3.125 18.125 3.125H21.875C22.3058 3.125 22.6562 3.47547 22.6562 3.90625V29.8438C22.6562 30.2745 22.3058 30.625 21.875 30.625H18.125C17.6942 30.625 17.3438 30.2745 17.3438 29.8438V3.90625ZM3.90625 33.75H7.65625C9.81016 33.75 11.5625 31.9977 11.5625 29.8438V23.4375C11.5625 21.2836 9.81016 19.5312 7.65625 19.5312H3.90625C1.75234 19.5312 0 21.2836 0 23.4375V29.8438C0 31.9977 1.75234 33.75 3.90625 33.75ZM3.125 23.4375C3.125 23.0067 3.47547 22.6562 3.90625 22.6562H7.65625C8.08703 22.6562 8.4375 23.0067 8.4375 23.4375V29.8438C8.4375 30.2745 8.08703 30.625 7.65625 30.625H3.90625C3.47547 30.625 3.125 30.2745 3.125 29.8438V23.4375ZM0 36.875H40V40H0V36.875ZM36.0938 8.59375H32.3438C30.1898 8.59375 28.4375 10.3461 28.4375 12.5V29.8438C28.4375 31.9977 30.1898 33.75 32.3438 33.75H36.0938C38.2477 33.75 40 31.9977 40 29.8438V12.5C40 10.3461 38.2477 8.59375 36.0938 8.59375ZM36.875 29.8438C36.875 30.2745 36.5245 30.625 36.0938 30.625H32.3438C31.913 30.625 31.5625 30.2745 31.5625 29.8438V12.5C31.5625 12.0692 31.913 11.7188 32.3438 11.7188H36.0938C36.5245 11.7188 36.875 12.0692 36.875 12.5V29.8438Z" fill="#37ABFF"/>
</svg>
