<svg width="40" height="40" viewBox="0 0 40 40" fill="none" xmlns="http://www.w3.org/2000/svg">
<g clip-path="url(#clip0_197_5862)">
<path d="M6.04591 40H33.957C36.8829 40 39.2607 37.6222 39.2607 34.6963V8.26663C39.2607 5.34071 36.8829 2.96291 33.957 2.96291H31.8533V1.48145C31.8533 0.666629 31.1866 0 30.3718 0C29.5569 0 28.8903 0.666629 28.8903 1.48145V2.96291H11.1126V1.48145C11.1126 0.666629 10.4459 0 9.63104 0C8.81621 0 8.14958 0.666629 8.14958 1.48145V2.96291H6.04591C3.11999 2.96291 0.742188 5.34071 0.742188 8.26663V34.6963C0.742188 37.6222 3.11999 40 6.04591 40ZM3.70522 8.26663C3.70522 6.97778 4.75706 5.92594 6.04591 5.92594H8.14958V7.40739C8.14958 8.22222 8.81621 8.88885 9.63104 8.88885C10.4459 8.88885 11.1125 8.22222 11.1125 7.40739V5.92594H28.8903V7.40739C28.8903 8.22222 29.5569 8.88885 30.3718 8.88885C31.1866 8.88885 31.8532 8.22222 31.8532 7.40739V5.92594H33.9569C35.2457 5.92594 36.2976 6.97778 36.2976 8.26663V12.5926H3.70522V8.26663ZM3.70522 15.5555H36.2978V34.6963C36.2978 35.9851 35.246 37.037 33.9571 37.037H6.04591C4.75706 37.037 3.70522 35.9851 3.70522 34.6963V15.5555Z" fill="#37ABFF"/>
</g>
<defs>
<clipPath id="clip0_197_5862">
<rect width="40" height="40" fill="white"/>
</clipPath>
</defs>
</svg>
