<svg width="40" height="40" viewBox="0 0 40 40" fill="none" xmlns="http://www.w3.org/2000/svg">
<g clip-path="url(#clip0_197_5844)">
<path d="M39.8707 8.44033C39.785 8.23362 39.6606 8.04878 39.506 7.89409C39.4959 7.88402 39.4858 7.8823 39.4774 7.87394C39.3261 7.73105 39.153 7.61175 38.9581 7.53105C38.7984 7.46551 38.6304 7.44535 38.4623 7.4302C38.4119 7.42684 38.3699 7.40332 38.3194 7.40332H24.8742C23.9449 7.40332 23.1936 8.15456 23.1936 9.084C23.1936 10.0134 23.9448 10.7647 24.8742 10.7647H34.2792L20.9751 24.1443L15.913 17.6637C15.6206 17.2889 15.1852 17.057 14.7147 17.0217C14.2257 16.9864 13.7752 17.1528 13.4324 17.4771L0.525 29.6972C-0.148974 30.3358 -0.17749 31.3996 0.459454 32.0736C0.792261 32.4215 1.23593 32.5963 1.68131 32.5963C2.09646 32.5963 2.51153 32.4433 2.8359 32.1374L14.4004 21.188L19.4978 27.7139C19.7953 28.0954 20.2407 28.3291 20.7231 28.3576C21.2054 28.3845 21.6743 28.2063 22.0155 27.8652L36.6388 13.1578V22.5292C36.6388 23.4585 37.39 24.2098 38.3194 24.2098C39.2488 24.2098 40.0001 23.4586 40.0001 22.5292V9.08407V9.08236C39.9984 8.8622 39.9546 8.64541 39.8707 8.44033Z" fill="#37ABFF"/>
</g>
<defs>
<clipPath id="clip0_197_5844">
<rect width="40" height="40" fill="white"/>
</clipPath>
</defs>
</svg>
