<svg width="40" height="40" viewBox="0 0 40 40" fill="none" xmlns="http://www.w3.org/2000/svg">
<g clip-path="url(#clip0_197_5842)">
<path d="M23.1612 26.2967C22.1831 25.6143 21.1379 25.0583 20.0448 24.6335C21.4989 23.3118 22.4636 21.4603 22.6314 19.3875C24.8366 17.2388 27.7273 16.0608 30.826 16.0608C33.2452 16.0608 35.5678 16.7892 37.5436 18.1671C38.2516 18.6609 39.2251 18.4875 39.7188 17.7795C40.2123 17.0718 40.039 16.098 39.3313 15.6045C38.3532 14.9222 37.3077 14.3664 36.2145 13.9413C37.8191 12.4829 38.828 10.3799 38.828 8.04596C38.828 3.65234 35.2538 0.078125 30.8602 0.078125C26.4669 0.078125 22.8927 3.65234 22.8927 8.04596C22.8927 10.3705 23.8933 12.4658 25.487 13.9236C25.2688 14.0076 25.0518 14.0964 24.8369 14.191C23.8592 14.6213 22.94 15.1504 22.0852 15.7718C20.9063 12.843 18.0361 10.7703 14.6905 10.7703C10.2971 10.7703 6.72261 14.3445 6.72261 18.7378C6.72261 21.0559 7.71779 23.1454 9.30288 24.6027C5.0649 26.1905 1.62862 29.6008 0.22969 33.9502C-0.234178 35.3924 0.0114888 36.922 0.903823 38.1467C1.79616 39.371 3.17677 40.0732 4.69167 40.0732H18.2839C19.1466 40.0732 19.8461 39.3738 19.8461 38.5107C19.8461 37.648 19.1466 36.9485 18.2839 36.9485H4.69167C4.1866 36.9485 3.7264 36.7145 3.42885 36.3061C3.1313 35.8978 3.04952 35.3879 3.20393 34.9069C4.74812 30.1059 9.4576 26.7529 14.6563 26.7529C17.0751 26.7529 19.3981 27.4814 21.3738 28.8592C22.0815 29.353 23.0553 29.1794 23.5491 28.4717C24.0426 27.764 23.8692 26.7902 23.1612 26.2967ZM30.8602 3.20282C33.5308 3.20282 35.7033 5.37536 35.7033 8.04596C35.7033 10.7162 33.5308 12.8891 30.8602 12.8891C28.1899 12.8891 26.0171 10.7162 26.0171 8.04596C26.0171 5.37536 28.1899 3.20282 30.8602 3.20282ZM14.6905 13.8946C17.361 13.8946 19.5336 16.0675 19.5336 18.7378C19.5336 21.4084 17.361 23.5809 14.6905 23.5809C12.0199 23.5809 9.84731 21.4084 9.84731 18.7378C9.84731 16.0675 12.0199 13.8946 14.6905 13.8946ZM39.9999 32.6523C39.9999 33.515 39.3005 34.2145 38.4374 34.2145H34.1411V38.5107C34.1411 39.3738 33.4417 40.0732 32.579 40.0732C31.7159 40.0732 31.0165 39.3738 31.0165 38.5107V34.2145H26.7202C25.8575 34.2145 25.158 33.515 25.158 32.6523C25.158 31.7892 25.8575 31.0898 26.7202 31.0898H31.0165V26.7935C31.0165 25.9308 31.7159 25.2313 32.579 25.2313C33.4417 25.2313 34.1411 25.9308 34.1411 26.7935V31.0898H38.4374C39.3005 31.0898 39.9999 31.7892 39.9999 32.6523Z" fill="#37ABFF"/>
</g>
<defs>
<clipPath id="clip0_197_5842">
<rect width="40" height="40" fill="white"/>
</clipPath>
</defs>
</svg>
