<svg width="32" height="32" viewBox="0 0 32 32" fill="none" xmlns="http://www.w3.org/2000/svg">
<path d="M10.5104 19.1029H9.62096C10.6091 18.6692 11.3014 17.6819 11.3014 16.5354V14.4785C11.3014 12.9331 10.0441 11.6758 8.49875 11.6758C6.95338 11.6758 5.69608 12.9331 5.69608 14.4785V16.5354C5.69608 17.6819 6.38831 18.6692 7.37655 19.1029H6.4871C5.0016 19.1029 3.79297 20.3115 3.79297 21.797V25.9294C3.79297 26.4471 4.21263 26.8667 4.73028 26.8667H12.2672C12.7849 26.8667 13.2045 26.4471 13.2045 25.9294V21.797C13.2045 20.3114 11.996 19.1029 10.5104 19.1029ZM7.57069 14.4785C7.57069 13.9667 7.98705 13.5504 8.49875 13.5504C9.01046 13.5504 9.42681 13.9667 9.42681 14.4785V16.5354C9.42681 17.0471 9.01046 17.4635 8.49875 17.4635C7.98705 17.4635 7.57069 17.0472 7.57069 16.5354V14.4785ZM11.3299 24.9921H5.66758V21.797C5.66758 21.3452 6.0352 20.9775 6.4871 20.9775H7.56145V22.1968C7.56145 22.7144 7.98111 23.1341 8.49875 23.1341C9.0164 23.1341 9.43606 22.7144 9.43606 22.1968V20.9775H10.5104C10.9622 20.9775 11.3299 21.3452 11.3299 21.797V24.9921Z" fill="#37ABFF"/>
<path d="M17.8943 17.4941C17.3767 17.4941 16.957 17.9138 16.957 18.4315C16.957 18.9491 17.3767 19.3688 17.8943 19.3688H27.3103C27.8279 19.3688 28.2476 18.9491 28.2476 18.4315C28.2476 17.9138 27.8279 17.4941 27.3103 17.4941H17.8943Z" fill="#37ABFF"/>
<path d="M27.3102 21.2432H17.8943C17.3767 21.2432 16.957 21.6628 16.957 22.1805C16.957 22.6981 17.3767 23.1178 17.8943 23.1178H27.3103C27.8279 23.1178 28.2476 22.6981 28.2476 22.1805C28.2475 21.6628 27.8279 21.2432 27.3102 21.2432Z" fill="#37ABFF"/>
<path d="M27.3102 24.9922H17.8943C17.3767 24.9922 16.957 25.4119 16.957 25.9295C16.957 26.4471 17.3767 26.8668 17.8943 26.8668H27.3103C27.8279 26.8668 28.2476 26.4471 28.2476 25.9295C28.2475 25.4118 27.8279 24.9922 27.3102 24.9922Z" fill="#37ABFF"/>
<path d="M31.0627 7.78754H20.162V6.63927H21.0258C21.5435 6.63927 21.9631 6.21961 21.9631 5.70197V1.94024C21.9631 1.42259 21.5435 1.00293 21.0258 1.00293H10.9742C10.4566 1.00293 10.0369 1.42259 10.0369 1.94024V5.7019C10.0369 6.21955 10.4566 6.63921 10.9742 6.63921H11.8381V7.78748H0.937308C0.419664 7.78748 0 8.20714 0 8.72478V30.0595C0 30.5771 0.419664 30.9968 0.937308 30.9968H31.0627C31.5803 30.9968 32 30.5771 32 30.0595V8.72485C32 8.20714 31.5803 7.78754 31.0627 7.78754ZM11.9116 2.87755H20.0884V4.7646H11.9116V2.87755ZM18.2874 6.63927V11.0512H13.7127V6.63927H18.2874ZM30.1254 29.1222H1.87462V9.66215H11.8381V11.9886C11.8381 12.5062 12.2577 12.9259 12.7754 12.9259H19.2247C19.7423 12.9259 20.162 12.5062 20.162 11.9886V9.66215H30.1254V29.1222Z" fill="#37ABFF"/>
</svg>
