<svg width="16" height="16" viewBox="0 0 16 16" fill="none" xmlns="http://www.w3.org/2000/svg">
<path fill-rule="evenodd" clip-rule="evenodd" d="M7.99877 0.333008L4.63122 4.82307L0.269531 3.36917L3.32173 10.9997H12.6758L15.728 3.36917L11.3663 4.82307L7.99877 0.333008ZM7.99877 3.66634L10.6312 7.17628L12.2695 6.63018L11.3217 8.99967H4.6758L3.728 6.63018L5.36631 7.17628L7.99877 3.66634Z" fill="url(#paint0_linear_1_12329)"/>
<path d="M3.99877 11.9997C3.44648 11.9997 2.99877 12.4474 2.99877 12.9997C2.99877 13.552 3.44648 13.9997 3.99877 13.9997H11.9988C12.5511 13.9997 12.9988 13.552 12.9988 12.9997C12.9988 12.4474 12.5511 11.9997 11.9988 11.9997H3.99877Z" fill="url(#paint1_linear_1_12329)"/>
<defs>
<linearGradient id="paint0_linear_1_12329" x1="7.99877" y1="0.333008" x2="7.99877" y2="13.9997" gradientUnits="userSpaceOnUse">
<stop stop-color="#FFB72D"/>
<stop offset="1" stop-color="#FFAD32"/>
</linearGradient>
<linearGradient id="paint1_linear_1_12329" x1="7.99877" y1="0.333008" x2="7.99877" y2="13.9997" gradientUnits="userSpaceOnUse">
<stop stop-color="#FFB72D"/>
<stop offset="1" stop-color="#FFAD32"/>
</linearGradient>
</defs>
</svg>
