<svg width="32" height="32" viewBox="0 0 32 32" fill="none" xmlns="http://www.w3.org/2000/svg">
<g clip-path="url(#clip0_343_1067)">
<path d="M30.75 27.3125C30.75 25.7717 31.4157 24.6541 31.8125 24.125C32.0256 23.8409 32.0598 23.4609 31.901 23.1432C31.7422 22.8256 31.4176 22.625 31.0625 22.625H4.6875C2.10281 22.625 0 24.7278 0 27.3125C0 29.8972 2.10281 32 4.6875 32H31.0625C31.4176 32 31.7422 31.7994 31.901 31.4817C32.0598 31.1641 32.0256 30.7841 31.8125 30.5C30.8881 29.2674 30.75 27.9739 30.75 27.3125ZM4.6875 28.25H28.9394C29.0123 28.7946 29.1606 29.442 29.4494 30.125H4.6875C3.13669 30.125 1.875 28.8633 1.875 27.3125C1.875 25.7617 3.13669 24.5 4.6875 24.5H29.4516C29.2254 25.0308 29.0317 25.6601 28.9371 26.375H4.6875C4.16975 26.375 3.75 26.7947 3.75 27.3125C3.75 27.8302 4.16975 28.25 4.6875 28.25Z" fill="#37ABFF"/>
<path d="M0.703806 16.8272C1.19499 16.991 1.72593 16.7255 1.88962 16.2343L2.25024 15.1525L2.61087 16.2343C2.77462 16.7255 3.30549 16.991 3.79668 16.8272C4.28787 16.6635 4.55337 16.1325 4.38962 15.6414L3.18774 12.0357V7.27629L6.31274 8.41267V17.8128C6.31274 18.1819 6.52937 18.5167 6.86612 18.668C9.71681 19.9485 12.8754 20.6253 16.0002 20.6253C19.1252 20.6253 22.2837 19.9485 25.1344 18.668C25.4711 18.5167 25.6877 18.182 25.6877 17.8128V8.41267L30.0706 6.81892C30.4411 6.68417 30.6877 6.33204 30.6877 5.93779C30.6877 5.54354 30.4411 5.19148 30.0706 5.05673L16.3206 0.0567285C16.1137 -0.018584 15.8868 -0.018584 15.6799 0.0567285L1.92987 5.05673C1.55943 5.19148 1.31274 5.5436 1.31274 5.93779V12.0356L0.110869 15.6414C-0.0528814 16.1325 0.212619 16.6635 0.703806 16.8272ZM23.8127 17.1962C21.3496 18.2143 18.6616 18.7503 16.0002 18.7503C13.3389 18.7503 10.6509 18.2143 8.18774 17.1962V15.4602C10.6774 16.3886 13.3509 16.8753 16.0002 16.8753C18.6497 16.8753 21.3231 16.3886 23.8127 15.4601V17.1962ZM23.8127 13.4459C21.3496 14.464 18.6617 15.0003 16.0002 15.0003C13.3389 15.0003 10.6509 14.464 8.18774 13.4458V9.09442L15.6799 11.8189C15.8867 11.8942 16.1137 11.8942 16.3206 11.8189L23.8127 9.09448V13.4459ZM16.0002 5.00029H7.57168L16.0002 1.93535L27.007 5.93779L16.0002 9.94029L7.57168 6.87529H16.0002C16.518 6.87529 16.9377 6.45554 16.9377 5.93779C16.9377 5.42004 16.518 5.00029 16.0002 5.00029Z" fill="#37ABFF"/>
</g>
<defs>
<clipPath id="clip0_343_1067">
<rect width="32" height="32" fill="white"/>
</clipPath>
</defs>
</svg>
