<svg width="56" height="56" viewBox="0 0 56 56" fill="none" xmlns="http://www.w3.org/2000/svg">
<g clip-path="url(#clip0_1_14701)">
<path d="M40.6815 24.2419V13.6441C40.6815 13.3408 40.5414 13.0605 40.3431 12.8387L28.4614 0.361877C28.2397 0.128601 27.9244 0 27.6095 0H8.77136C5.29358 0 2.51562 2.83606 2.51562 6.31427V41.9359C2.51562 45.4141 5.29358 48.2036 8.77136 48.2036H23.6412C26.4538 52.8721 31.5662 56 37.39 56C46.237 56 53.4617 48.8103 53.4617 39.9518C53.4737 32.2135 47.9178 25.7476 40.6815 24.2419ZM28.7767 4.09686L36.7483 12.4884H31.5778C30.0371 12.4884 28.7767 11.2165 28.7767 9.67584V4.09686ZM8.77136 45.8691C6.58899 45.8691 4.8501 44.1183 4.8501 41.9359V6.31427C4.8501 4.11993 6.58899 2.33447 8.77136 2.33447H26.4423V9.67584C26.4423 12.5119 28.7417 14.8229 31.5778 14.8229H38.347V23.9382C37.9971 23.9266 37.7169 23.8916 37.4135 23.8916C33.3401 23.8916 29.5936 25.4557 26.7691 27.9069H11.9462C11.3041 27.9069 10.779 28.4319 10.779 29.0737C10.779 29.7158 11.3041 30.2409 11.9462 30.2409H24.5983C23.7694 31.4081 23.0807 32.5754 22.5441 33.8593H11.9462C11.3041 33.8593 10.779 34.3843 10.779 35.0265C10.779 35.6682 11.3041 36.1937 11.9462 36.1937H21.7853C21.4935 37.361 21.3418 38.6564 21.3418 39.9518C21.3418 42.0526 21.7502 44.1302 22.4855 45.8811H8.77136V45.8691ZM37.402 53.6775C29.8389 53.6775 23.6878 47.5264 23.6878 39.9633C23.6878 32.4002 29.8269 26.2491 37.402 26.2491C44.9766 26.2491 51.1157 32.4002 51.1157 39.9633C51.1157 47.5264 44.9651 53.6775 37.402 53.6775Z" fill="#37ABFF"/>
<path d="M11.9446 24.3931H23.7678C24.4099 24.3931 24.935 23.8676 24.935 23.2258C24.935 22.5837 24.4099 22.0586 23.7678 22.0586H11.9446C11.3024 22.0586 10.7773 22.5837 10.7773 23.2258C10.7773 23.8676 11.3024 24.3931 11.9446 24.3931Z" fill="#37ABFF"/>
<path d="M43.3789 39.7184L38.5822 44.889V32.1438C38.5822 31.5016 38.0567 30.9766 37.4149 30.9766C36.7728 30.9766 36.2477 31.5016 36.2477 32.1438V44.889L31.4155 39.7184C30.9721 39.2519 30.2252 39.2169 29.7582 39.6603C29.2913 40.1038 29.2562 40.8391 29.7001 41.3061L36.528 48.6475C36.7497 48.8807 37.0531 49.0209 37.3799 49.0209C37.7067 49.0209 38.0101 48.8807 38.2318 48.6475L45.0716 41.3061C45.5151 40.8391 45.4916 40.0923 45.0246 39.6603C44.5461 39.2169 43.8228 39.2519 43.3789 39.7184Z" fill="#37ABFF"/>
</g>
<defs>
<clipPath id="clip0_1_14701">
<rect width="56" height="56" fill="white"/>
</clipPath>
</defs>
</svg>
