<svg width="32" height="32" viewBox="0 0 32 32" fill="none" xmlns="http://www.w3.org/2000/svg">
<g clip-path="url(#clip0_343_837)">
<path d="M22.5774 17.2743L20.6406 15.3374L25.7594 10.2186L26.4223 10.8815C26.8515 11.3108 27.5739 11.2262 27.889 10.701L31.8664 4.07205C32.0878 3.70317 32.0296 3.23099 31.7254 2.92686L29.0738 0.275313C28.7697 -0.0288737 28.2974 -0.086936 27.9286 0.134313L21.2997 4.11167C20.7766 4.42555 20.6886 5.14792 21.1191 5.57842L21.7821 6.24129L16.6632 11.3601L14.7263 9.42321C15.4081 6.87585 14.7127 4.10611 12.7844 2.17774C10.3723 -0.234248 6.76155 -0.615996 3.93775 0.90506C3.67688 1.04562 3.49781 1.30118 3.45475 1.59437C3.41175 1.88756 3.50988 2.1838 3.71944 2.39337L7.23767 5.9116C7.60324 6.27716 7.60324 6.87191 7.23767 7.23735C6.87211 7.60291 6.27743 7.60297 5.91187 7.23735L2.39363 3.71905C2.18407 3.50949 1.88776 3.4113 1.59463 3.45436C1.30145 3.49736 1.04589 3.67649 0.905325 3.93736C-0.609982 6.7506 -0.242108 10.3638 2.17813 12.784C4.10219 14.708 6.87049 15.4093 9.4236 14.7259L10.0345 15.3368L1.37507 23.9963C-0.457795 25.8292 -0.45892 28.7915 1.37507 30.6256C3.20275 32.4532 6.17655 32.4533 8.0043 30.6256L16.6636 21.966L17.2746 22.577C16.5929 25.1243 17.2883 27.8941 19.2166 29.8224C21.6286 32.2345 25.2394 32.6162 28.0632 31.0952C28.3241 30.9546 28.5032 30.6991 28.5462 30.4059C28.5892 30.1127 28.4911 29.8164 28.2815 29.6069L24.7633 26.0886C24.3977 25.7231 24.3977 25.1283 24.7633 24.7629C25.1289 24.3973 25.7236 24.3974 26.0891 24.7629L29.6073 28.2811C29.8168 28.4907 30.1131 28.5887 30.4063 28.5458C30.6995 28.5028 30.9551 28.3237 31.0956 28.0628C32.611 25.2496 32.2431 21.6364 29.8229 19.2162C27.8988 17.2922 25.1305 16.591 22.5774 17.2743ZM28.2656 2.11868L29.882 3.73505L26.899 8.70665L23.2939 5.10167L28.2656 2.11868ZM23.1078 7.5671L24.4335 8.89284L19.3148 14.0116L17.9889 12.6859L23.1078 7.5671ZM6.67849 29.2999C5.58187 30.3965 3.7975 30.3965 2.70082 29.2999C1.60051 28.1996 1.59982 26.4232 2.70082 25.3222L11.3602 16.6626L15.3378 20.6403L6.67849 29.2999ZM29.9331 25.9553L27.4149 23.4372C26.3184 22.3407 24.5342 22.3407 23.4375 23.4372C22.3411 24.5337 22.3411 26.3179 23.4375 27.4145L25.9557 29.9327C24.0425 30.4551 21.9861 29.9403 20.5424 28.4968C19.0145 26.9688 18.4957 24.6654 19.2208 22.6285C19.3421 22.2875 19.2564 21.9071 19.0004 21.6512L10.3494 13.0002C10.094 12.7448 9.71391 12.6583 9.37217 12.7799C7.33517 13.5049 5.03181 12.9861 3.50388 11.4582C2.06026 10.0146 1.54557 7.95822 2.06795 6.04498L4.58612 8.56316C5.68262 9.65965 7.46686 9.65959 8.56348 8.56316C9.65998 7.46666 9.65998 5.68242 8.56348 4.5858L6.0453 2.06762C7.95848 1.54512 10.015 2.05993 11.4586 3.50355C12.9865 5.03148 13.5053 7.33491 12.7803 9.37184C12.6589 9.71284 12.7447 10.0932 13.0006 10.3491L21.6516 19.0001C21.9075 19.256 22.2879 19.3417 22.6288 19.2204C24.6657 18.4953 26.9692 19.0142 28.4971 20.542C29.9408 21.9858 30.4555 24.0421 29.9331 25.9553Z" fill="#37ABFF"/>
<path d="M12.1922 19.9987C11.8261 19.6326 11.2326 19.6326 10.8664 19.9987L5.13783 25.7275C4.77177 26.0936 4.77177 26.6871 5.13783 27.0532C5.50401 27.4193 6.09745 27.4193 6.46357 27.0532L12.1921 21.3244C12.5582 20.9583 12.5582 20.3647 12.1922 19.9987Z" fill="#37ABFF"/>
</g>
<defs>
<clipPath id="clip0_343_837">
<rect width="32" height="32" fill="white"/>
</clipPath>
</defs>
</svg>
