<svg width="32" height="32" viewBox="0 0 32 32" fill="none" xmlns="http://www.w3.org/2000/svg">
<path d="M27.8919 11.3125H18.875V22.625H0V28.25H3.75C3.75 30.3177 5.43225 32 7.5 32C9.56775 32 11.25 30.3177 11.25 28.25C11.6474 28.25 20.3534 28.25 20.75 28.25C20.75 30.3177 22.4323 32 24.5 32C26.5677 32 28.25 30.3177 28.25 28.25H32V19.5287L27.8919 11.3125ZM7.5 30.125C6.46613 30.125 5.625 29.2839 5.625 28.25C5.625 27.2161 6.46613 26.375 7.5 26.375C8.53387 26.375 9.375 27.2161 9.375 28.25C9.375 29.2839 8.53387 30.125 7.5 30.125ZM18.875 26.375H10.7455C10.0961 25.2552 8.88494 24.4875 7.5 24.4875C6.11506 24.4875 4.90394 25.2552 4.2545 26.375H1.875V24.5L7.5 24.4875H18.875V26.375ZM28.6081 16.9375L29.5456 18.8125H24.5V16.9375H28.6081ZM24.5 30.125C23.4661 30.125 22.625 29.2839 22.625 28.25C22.625 27.2161 23.4661 26.375 24.5 26.375C25.5339 26.375 26.375 27.2161 26.375 28.25C26.375 29.2839 25.5339 30.125 24.5 30.125ZM30.125 22.625H28.25V24.5H30.125V26.375H27.7455C27.0961 25.2552 25.8849 24.5 24.5 24.5C23.1151 24.5 21.9039 25.2552 21.2545 26.375H20.75C20.75 25.6913 20.75 13.9815 20.75 13.1875H26.7331L27.6706 15.0625H22.625V20.6875H30.125V22.625Z" fill="#37ABFF"/>
<path d="M16.1588 9.4375L10.5323 6.62419C10.9782 6.12631 11.25 5.46944 11.25 4.75C11.25 3.52775 10.4663 2.48506 9.375 2.09812V0H7.5V3.8125H8.4375C8.95444 3.8125 9.375 4.23306 9.375 4.75C9.375 4.75231 9.375 4.75456 9.375 4.75688C9.36887 5.60612 8.32638 5.95706 7.76919 5.39988C7.59681 5.2275 7.5 4.99375 7.5 4.75H5.625C5.625 5.46944 5.89681 6.12631 6.34275 6.62419L0.716187 9.4375H0V20.6875H16.875V9.4375H16.1588ZM8.4375 7.67319L11.9662 9.4375H4.90881L8.4375 7.67319ZM15 18.8125H1.875V11.3125H15V18.8125Z" fill="#37ABFF"/>
<path d="M5.625 13.1875H3.75V16.9375H5.625V13.1875Z" fill="#37ABFF"/>
<path d="M9.375 13.1875H7.5V16.9375H9.375V13.1875Z" fill="#37ABFF"/>
<path d="M13.125 13.1875H11.25V16.9375H13.125V13.1875Z" fill="#37ABFF"/>
</svg>
