<svg width="32" height="32" viewBox="0 0 32 32" fill="none" xmlns="http://www.w3.org/2000/svg">
<g clip-path="url(#clip0_343_1946)">
<path d="M31.1784 8.77835L29.1894 6.78941L31.1784 4.80048C31.5445 4.43429 31.5445 3.84073 31.1784 3.47454L28.5265 0.822735C28.1607 0.45686 27.5667 0.456673 27.2006 0.822735L25.2116 2.81167L23.2227 0.822735C22.1261 -0.273951 20.3416 -0.273888 19.245 0.822735L18.4691 1.59855C17.43 1.10111 16.1378 1.27805 15.2672 2.14867L13.9412 3.4746C13.5753 3.84035 13.575 4.43442 13.9412 4.80054L18.582 9.44128L9.44204 18.5814L4.80123 13.9406C4.43536 13.5747 3.84136 13.5745 3.4753 13.9406L2.14943 15.2665C1.28511 16.1307 1.10255 17.422 1.60049 18.4673L0.823491 19.2443C-0.273195 20.3409 -0.273195 22.1254 0.823491 23.2221L2.81242 25.211L0.823491 27.1999C0.457304 27.5661 0.457304 28.1597 0.823491 28.5259L3.4753 31.1777C3.84117 31.5436 4.43517 31.5438 4.80123 31.1777L6.79017 29.1888L8.77916 31.1778C9.87578 32.2744 11.6602 32.2744 12.7569 31.1778L13.5328 30.402C14.5719 30.8994 15.8641 30.7225 16.7347 29.8519L18.0607 28.5259C18.4265 28.1601 18.4268 27.5661 18.0607 27.2L13.4199 22.5592L22.5599 13.4192L27.2007 18.06C27.5665 18.4259 28.1606 18.4261 28.5266 18.06L29.8526 16.7341C30.7169 15.8698 30.8994 14.5786 30.4015 13.5333L31.1785 12.7563C32.2751 11.6594 32.2751 9.87503 31.1784 8.77835ZM27.8636 2.81167L29.1896 4.1376L27.8636 5.4636L26.5376 4.13767L27.8636 2.81167ZM4.1383 29.1887L2.81236 27.8628L4.1383 26.5369L5.46423 27.8628L4.1383 29.1887ZM11.4309 29.8517C11.0654 30.2174 10.4706 30.2172 10.105 29.8517L2.14943 21.8961C1.78386 21.5306 1.78386 20.9358 2.14943 20.5702L2.81236 19.9073L12.0939 29.1887L11.4309 29.8517ZM16.0717 27.8629L15.4087 28.5258C15.0422 28.8923 14.4493 28.8923 14.0828 28.5258L3.47536 17.9184C3.10892 17.552 3.10892 16.959 3.47536 16.5925L4.1383 15.9295C4.55098 16.3423 15.8638 27.655 16.0717 27.8629ZM12.0939 21.2332L10.768 19.9073L19.908 10.7672L21.2339 12.0932L12.0939 21.2332ZM28.5265 15.408L27.8636 16.071L20.571 8.77847L20.571 8.77841L20.5709 8.77835L15.9302 4.13773L16.5931 3.47473C16.9595 3.10836 17.5526 3.10817 17.9191 3.47473L28.5266 14.0822C28.893 14.4485 28.893 15.0416 28.5265 15.408ZM29.8524 11.4302L29.1895 12.0932L19.908 2.81167L20.571 2.14873C20.9366 1.78317 21.5312 1.78317 21.8969 2.14873L29.8524 10.1043C30.2181 10.4698 30.2181 11.0647 29.8524 11.4302Z" fill="#37ABFF"/>
</g>
<defs>
<clipPath id="clip0_343_1946">
<rect width="32" height="32" fill="white"/>
</clipPath>
</defs>
</svg>
