<svg width="32" height="32" viewBox="0 0 32 32" fill="none" xmlns="http://www.w3.org/2000/svg">
<path d="M31.6101 17.2256L25.375 11.8813V8.50317C25.375 8.49438 25.374 8.48584 25.3738 8.47729C25.3845 8.21973 25.2896 7.96362 25.1003 7.77441L21.3503 4.02466C21.1746 3.84888 20.936 3.75 20.6875 3.75H11.3125V0.9375C11.3125 0.419678 10.8928 0 10.375 0H4.75C4.23218 0 3.8125 0.419678 3.8125 0.9375V3.75H1C0.482178 3.75 0.0625 4.16968 0.0625 4.6875V8.4375C0.0625 8.95532 0.482178 9.375 1 9.375H3.8125V30.125H1.25C0.732178 30.125 0.3125 30.5447 0.3125 31.0625C0.3125 31.5801 0.732178 32 1.25 32H13.875C14.3928 32 14.8125 31.5801 14.8125 31.0625C14.8125 30.5447 14.3928 30.125 13.875 30.125H11.3125V9.375H23.5V11.8813L17.2649 17.2256C16.967 17.481 16.8596 17.8948 16.9956 18.2627C17.1316 18.6306 17.4827 18.875 17.875 18.875H31C31.3923 18.875 31.7432 18.6306 31.8792 18.2627C32.0154 17.8948 31.908 17.481 31.6101 17.2256ZM5.6875 1.875H9.4375V3.75H5.6875V1.875ZM9.4375 23.095L6.13452 19.792L9.4375 16.4517V23.095ZM5.6875 21.9966L8.86157 25.1707L5.6875 28.345V21.9966ZM5.6875 17.5774V10.8513L9.01221 14.2148L5.6875 17.5774ZM9.4375 5.625V7.5H5.6875V5.625H9.4375ZM1.9375 7.5V5.625H3.8125V7.5H1.9375ZM6.55908 30.125L9.4375 27.2466V30.125H6.55908ZM9.4375 11.978L6.8645 9.375H9.4375V11.978ZM11.3125 7.5V5.625H20.2991L22.1741 7.5H11.3125ZM20.4092 17L24.4375 13.5474L28.4656 17H20.4092Z" fill="#37ABFF"/>
<path d="M30.0625 20.75H18.8125C18.2947 20.75 17.875 21.1697 17.875 21.6875V31.0625C17.875 31.5803 18.2947 32 18.8125 32H30.0625C30.5803 32 31 31.5803 31 31.0625V21.6875C31 21.1697 30.5803 20.75 30.0625 20.75ZM25.375 30.125H23.5V26.375H25.375V30.125ZM29.125 30.125H27.25V25.4375C27.25 24.9197 26.8303 24.5 26.3125 24.5H22.5625C22.0447 24.5 21.625 24.9197 21.625 25.4375V30.125H19.75V22.625H29.125V30.125Z" fill="#37ABFF"/>
</svg>
