<svg width="32" height="32" viewBox="0 0 32 32" fill="none" xmlns="http://www.w3.org/2000/svg">
<path d="M15.9988 3.81445C9.27928 3.81445 3.8125 9.28123 3.8125 16.0008C3.8125 22.7203 9.27928 28.1871 15.9988 28.1871C22.7183 28.1871 28.1851 22.7203 28.1851 16.0008C28.1851 9.28123 22.7183 3.81445 15.9988 3.81445ZM15.9988 5.68927C21.0444 5.68927 25.2548 9.33223 26.139 14.1259C25.5504 14.0353 22.0677 14.6811 19.4173 11.8567C17.9177 10.2585 15.942 10.3642 15.9984 10.3762C14.69 10.3762 13.4761 10.9021 12.5804 11.8567C11.2272 13.2988 9.26878 14.1259 7.20754 14.1259H5.85861C6.74284 9.33223 10.9532 5.68927 15.9988 5.68927ZM6.43724 19.8599C10.0707 19.0951 13.5535 22.1407 13.1643 25.916C10.1028 25.0395 7.62007 22.7799 6.43724 19.8599ZM15.0113 26.2648C15.6475 21.1098 10.8983 16.9148 5.8943 18.0614C5.75875 17.3953 5.68732 16.7063 5.68732 16.0008C6.30832 15.902 10.65 16.6535 13.9476 13.1396C15.0559 11.9583 16.9332 11.9492 18.0501 13.1397C21.3509 16.6569 25.6744 15.8996 26.3104 16.0008C26.3104 16.7063 26.2389 17.3953 26.1034 18.0614C21.0892 16.9127 16.3516 21.1207 16.9864 26.2648C16.3479 26.3257 15.6998 26.3304 15.0113 26.2648ZM18.8333 25.916C18.4436 22.1365 21.9312 19.0959 25.5604 19.8598C24.3776 22.7799 21.8949 25.0395 18.8333 25.916Z" fill="#37ABFF"/>
<path d="M18.808 16.9372C18.808 15.3866 17.5465 14.125 15.9958 14.125C14.4451 14.125 13.1836 15.3866 13.1836 16.9372C13.1836 18.4879 14.4451 19.7495 15.9958 19.7495C17.5465 19.7495 18.808 18.4879 18.808 16.9372ZM15.9958 17.8746C15.4789 17.8746 15.0584 17.4542 15.0584 16.9372C15.0584 16.4203 15.4789 15.9998 15.9958 15.9998C16.5128 15.9998 16.9332 16.4203 16.9332 16.9372C16.9332 17.4542 16.5128 17.8746 15.9958 17.8746Z" fill="#37ABFF"/>
<path d="M27.2981 4.70074C24.2681 1.67066 20.2551 0.00195312 15.9984 0.00195312C7.1893 0.00195312 0 7.19181 0 16.0004C0 24.8096 7.18986 31.9988 15.9984 31.9988C20.2551 31.9988 24.2681 30.3301 27.2981 27.3C33.5662 21.0319 33.5683 10.9711 27.2981 4.70074ZM15.9984 30.124C8.21064 30.124 1.87482 23.7882 1.87482 16.0004C1.87482 8.21259 8.21064 1.87677 15.9984 1.87677C23.7862 1.87677 30.1221 8.21259 30.1221 16.0004C30.1221 23.7882 23.7862 30.124 15.9984 30.124Z" fill="#37ABFF"/>
</svg>
