<svg width="32" height="32" viewBox="0 0 32 32" fill="none" xmlns="http://www.w3.org/2000/svg">
<path d="M2.875 17H29.125C29.6427 17 30.0625 16.5802 30.0625 16.0625V0.9375C30.0625 0.41975 29.6427 0 29.125 0H2.875C2.35725 0 1.9375 0.41975 1.9375 0.9375V16.0625C1.9375 16.5802 2.35725 17 2.875 17ZM3.8125 1.875H28.1875V15.125H3.8125V1.875Z" fill="#37ABFF"/>
<path d="M31.7945 23.0067C30.1798 20.9886 27.2241 20.6604 25.2059 22.2749C24.3088 22.9925 23.6755 23.476 23.1947 23.803C22.5269 22.0277 20.802 20.7711 18.8125 20.7711C17.2094 20.7711 15.0492 20.6971 12.5534 20.1199C10.1184 19.561 8.76556 19.693 6.42156 20.7501H0.9375C0.41975 20.7501 0 21.1699 0 21.6876V31.0626C0 31.5804 0.41975 32.0001 0.9375 32.0001H6.625C7.14275 32.0001 7.5625 31.5804 7.5625 31.0626V30.1495C9.04806 29.7369 10.3253 29.6946 11.6314 30.0059C13.6721 30.4922 15.5836 30.7346 17.4038 30.7346C23.1097 30.7346 27.8594 28.3157 31.7414 24.2389C32.0648 23.8993 32.0875 23.3729 31.7945 23.0067ZM1.875 30.1252V22.6252H5.6875V30.1252H1.875ZM12.0661 28.1821C10.5868 27.8295 9.15831 27.8359 7.5625 28.2139V22.296C9.29412 21.555 10.2191 21.5079 12.1325 21.947C14.8116 22.5667 17.1097 22.6462 18.8125 22.6462C20.0187 22.6462 21.0621 23.415 21.4516 24.4957C21.4166 24.4974 14.125 24.5002 14.125 24.5002C13.6073 24.5002 13.1875 24.9199 13.1875 25.4377C13.1875 25.9554 13.6073 26.3752 14.125 26.3752C14.125 26.3752 21.3816 26.375 21.3922 26.3747C22.9835 26.321 23.8086 25.7937 26.3771 23.7391C27.3655 22.9485 28.7286 22.9343 29.7229 23.6141C23.2474 29.9166 16.5769 29.2571 12.0661 28.1821Z" fill="#37ABFF"/>
<path d="M8.5 5.625C9.01775 5.625 9.4375 5.20525 9.4375 4.6875C9.4375 4.16975 9.01775 3.75 8.5 3.75H6.625C6.10725 3.75 5.6875 4.16975 5.6875 4.6875V12.3125C5.6875 12.8302 6.10725 13.25 6.625 13.25H8.5C9.01775 13.25 9.4375 12.8302 9.4375 12.3125C9.4375 11.7948 9.01775 11.375 8.5 11.375H7.5625V5.625H8.5Z" fill="#37ABFF"/>
<path d="M25.375 3.75H23.5C22.9822 3.75 22.5625 4.16975 22.5625 4.6875C22.5625 5.20525 22.9822 5.625 23.5 5.625H24.4375V11.375H23.5C22.9822 11.375 22.5625 11.7948 22.5625 12.3125C22.5625 12.8302 22.9822 13.25 23.5 13.25H25.375C25.8928 13.25 26.3125 12.8302 26.3125 12.3125V4.6875C26.3125 4.16975 25.8928 3.75 25.375 3.75Z" fill="#37ABFF"/>
<path d="M16 3.75C13.409 3.75 11.3125 5.90831 11.3125 8.5C11.3125 11.0911 13.4084 13.25 16 13.25C18.591 13.25 20.6875 11.0917 20.6875 8.5C20.6875 5.90887 18.5916 3.75 16 3.75ZM16 11.375C14.4754 11.375 13.1875 10.0584 13.1875 8.5C13.1875 6.94156 14.4754 5.625 16 5.625C17.5246 5.625 18.8125 6.94156 18.8125 8.5C18.8125 10.0584 17.5246 11.375 16 11.375Z" fill="#37ABFF"/>
</svg>
