<svg width="32" height="32" viewBox="0 0 32 32" fill="none" xmlns="http://www.w3.org/2000/svg">
<g clip-path="url(#clip0_343_1280)">
<path d="M31.558 13.329C31.2832 13.1579 30.9394 13.1407 30.6487 13.2836L26.8362 15.1586C26.6524 15.249 26.5031 15.3973 26.4115 15.5806L24.1146 20.1744L21.4424 20.7053C21.1582 20.7618 20.916 20.9464 20.7865 21.2056L19.1707 24.4373H16C15.6849 24.4373 15.3908 24.5957 15.2174 24.8587L11.4674 30.5462C11.2775 30.8342 11.261 31.2031 11.4245 31.5067C11.588 31.8104 11.905 31.9998 12.25 31.9998H31.0625C31.5802 31.9998 32 31.5801 32 31.0623C32 30.1382 32 15.1357 32 14.1248C32 13.801 31.8329 13.5001 31.558 13.329ZM27.9473 16.7017L30.125 15.6306V18.9803L26.442 19.712L27.9473 16.7017ZM13.9911 30.1249L16.5049 26.3124H24.697L25.9538 30.1249H13.9911ZM25.375 24.4374H21.2669L22.2581 22.4549L30.125 20.8919V30.1249H27.928L26.2654 25.0814C26.1387 24.697 25.7797 24.4374 25.375 24.4374Z" fill="#37ABFF"/>
<path d="M0 21.1732C0 21.4219 0.09875 21.6603 0.274625 21.8361L2.92631 24.4878C3.10938 24.6708 3.34931 24.7623 3.58919 24.7623C3.82906 24.7623 4.06906 24.6708 4.25206 24.4877L16.8474 11.8924L22.8136 17.8586C23.0434 18.0884 23.3757 18.1828 23.6919 18.1081C24.0081 18.0334 24.2631 17.8004 24.3659 17.4921C25.2903 14.7189 24.5696 11.6596 22.5006 9.59063L20.8248 7.91488L21.4877 7.25194C21.8536 6.88613 21.8538 6.29219 21.4877 5.92613L18.836 3.2745C18.4699 2.90838 17.8763 2.90838 17.5102 3.2745L16.8474 3.93744L15.1716 2.26169C13.1046 0.194504 10.046 -0.528809 7.27025 0.396379C6.962 0.499129 6.72894 0.754191 6.65431 1.07038C6.57969 1.38657 6.67406 1.71894 6.90381 1.94869L12.87 7.91494L0.274625 20.5103C0.09875 20.6861 0 20.9246 0 21.1732H0ZM21.1748 10.9165C22.3532 12.0949 22.9531 13.6738 22.8861 15.2794L18.1733 10.5666L19.4991 9.24075L21.1748 10.9165ZM19.4991 6.58907C19.2868 6.80132 17.1611 8.92707 16.8474 9.24069L15.5216 7.91488C15.753 7.68344 17.8123 5.62419 18.1733 5.26325L19.4991 6.58907ZM13.8458 3.5875L15.5216 5.26325L14.1958 6.58907L9.483 1.87625C11.088 1.80969 12.6675 2.40913 13.8458 3.5875ZM14.1958 9.24075L15.5216 10.5666L3.58919 22.4989L2.26331 21.1731L14.1958 9.24075Z" fill="#37ABFF"/>
<path d="M26.8319 13.0883C27.2959 13.3203 27.8585 13.1313 28.0897 12.6691L29.9647 8.91908C30.1962 8.45596 30.0085 7.89289 29.5454 7.66127C29.0825 7.42983 28.5192 7.61739 28.2877 8.08052L26.4127 11.8305C26.1811 12.2937 26.3688 12.8568 26.8319 13.0883Z" fill="#37ABFF"/>
<path d="M17.4569 18.9116L13.7069 20.7866C13.2438 21.0182 13.0561 21.5813 13.2877 22.0444C13.5192 22.5077 14.0824 22.6952 14.5454 22.4637L18.2954 20.5887C18.7585 20.3571 18.9462 19.794 18.7147 19.3308C18.4832 18.8678 17.92 18.68 17.4569 18.9116Z" fill="#37ABFF"/>
</g>
<defs>
<clipPath id="clip0_343_1280">
<rect width="32" height="32" fill="white"/>
</clipPath>
</defs>
</svg>
