<svg width="32" height="32" viewBox="0 0 32 32" fill="none" xmlns="http://www.w3.org/2000/svg">
<g clip-path="url(#clip0_343_1658)">
<path d="M16.6304 25.8765H7.12891V27.7517H16.6304V25.8765Z" fill="#37ABFF"/>
<path d="M19.7503 25.8765H17.875V27.7517H19.7503V25.8765Z" fill="#37ABFF"/>
<path d="M5.87428 25.8765H3.99902V27.7517H5.87428V25.8765Z" fill="#37ABFF"/>
<path d="M11.2503 22.751H9.375V24.6262H11.2503V22.751Z" fill="#37ABFF"/>
<path d="M14.3762 22.751H12.501V24.6262H14.3762V22.751Z" fill="#37ABFF"/>
<path d="M9.68873 19.6255H7.81348V21.5007H9.68873V19.6255Z" fill="#37ABFF"/>
<path d="M12.8128 19.6255H10.9375V21.5007H12.8128V19.6255Z" fill="#37ABFF"/>
<path d="M15.9417 19.6255H14.0664V21.5007H15.9417V19.6255Z" fill="#37ABFF"/>
<path d="M17.5041 22.751H15.6289V24.6262H17.5041V22.751Z" fill="#37ABFF"/>
<path d="M20.6292 22.751H18.7539V24.6262H20.6292V22.751Z" fill="#37ABFF"/>
<path d="M5.00026 22.751H3.125V24.6262H5.00026V22.751Z" fill="#37ABFF"/>
<path d="M8.12525 22.751H6.25V24.6262H8.12525V22.751Z" fill="#37ABFF"/>
<path d="M6.56275 19.6255H4.6875V21.5007H6.56275V19.6255Z" fill="#37ABFF"/>
<path d="M19.0676 19.6255H17.1924V21.5007H19.0676V19.6255Z" fill="#37ABFF"/>
<path d="M30.5194 11.5449L26.3645 7.39006C25.2678 6.29337 23.4832 6.29324 22.3864 7.39006L21.4594 8.31706L19.6838 6.54143C19.1525 6.01012 18.4461 5.71749 17.6947 5.71749H15.4398C14.9228 5.71749 14.5022 5.29687 14.5022 4.77987V1.12305H12.6269V4.77987C12.6269 6.33093 13.8888 7.59281 15.4398 7.59281H17.6947C17.9452 7.59281 18.1806 7.69037 18.3578 7.8675L20.1334 9.64313L19.204 10.5725C18.1072 11.6693 18.1072 13.4538 19.204 14.5506L21.1539 16.5004H12.8144V12.7498C12.8144 11.0264 11.4123 9.62438 9.68896 9.62438H7.56364C6.87426 9.62438 6.31345 9.06356 6.31345 8.37419V8.18669C6.31345 7.49731 6.87426 6.9365 7.56364 6.9365C9.28702 6.9365 10.6891 5.53443 10.6891 3.81105V1.12305H8.81383V3.81093C8.81383 4.5003 8.25302 5.06112 7.56364 5.06112C5.84026 5.06112 4.4382 6.46318 4.4382 8.18656V8.37406C4.4382 10.0974 5.84026 11.4995 7.56364 11.4995H9.68896C10.3783 11.4995 10.9391 12.0603 10.9391 12.7497V16.5003H0V30.8774H23.7535V19.0605C24.6788 19.8106 25.8089 20.186 26.9392 20.186C28.2357 20.186 29.5323 19.6924 30.5194 18.7053C32.4936 16.7312 32.4936 13.5191 30.5194 11.5449ZM21.8783 29.0023H1.87525V18.3756H21.8782V29.0023H21.8783ZM29.1934 17.3794C28.5912 17.9815 27.7907 18.3131 26.9391 18.3131C26.0875 18.3131 25.287 17.9815 24.6849 17.3794L20.53 13.2245C20.1644 12.8589 20.1644 12.2641 20.53 11.8984L21.4582 10.9703L23.5798 13.0919L24.9058 11.7659L22.7842 9.64425L23.7124 8.71606C23.8952 8.53331 24.1353 8.44181 24.3754 8.44181C24.6156 8.44181 24.8556 8.53325 25.0384 8.71606L29.1933 12.8709C29.7954 13.4731 30.1271 14.2736 30.1271 15.1252C30.1271 15.9768 29.7956 16.7773 29.1934 17.3794Z" fill="#37ABFF"/>
<path d="M27.2501 16.3718C27.768 16.3718 28.1878 15.952 28.1878 15.4342C28.1878 14.9164 27.768 14.4966 27.2501 14.4966C26.7323 14.4966 26.3125 14.9164 26.3125 15.4342C26.3125 15.952 26.7323 16.3718 27.2501 16.3718Z" fill="#37ABFF"/>
</g>
<defs>
<clipPath id="clip0_343_1658">
<rect width="32" height="32" fill="white"/>
</clipPath>
</defs>
</svg>
