<svg width="32" height="32" viewBox="0 0 32 32" fill="none" xmlns="http://www.w3.org/2000/svg">
<path d="M27.9376 12.6194L17.3338 2.01557C16.2376 0.919321 14.4538 0.919258 13.3575 2.01557C12.372 3.00101 12.2871 4.50394 13.0148 5.57713L13.0001 5.65094C12.2356 9.47375 10.3744 12.9515 7.61759 15.7082L2.75391 20.5719C1.65504 21.6709 1.65485 23.4494 2.75391 24.5483L5.40478 27.1992C6.50359 28.298 8.28221 28.2981 9.38115 27.1992L10.0439 26.5364L14.683 31.1755C15.7819 32.2745 17.5604 32.2745 18.6593 31.1755C19.7556 30.0793 19.7556 28.2955 18.6593 27.1992L16.6711 25.211L17.3339 24.5483C18.4328 23.4495 18.4329 21.671 17.3339 20.572L16.8835 20.1216C19.0991 18.5704 21.6153 17.4904 24.3023 16.953L24.3771 16.9381C25.4741 17.6787 26.9736 17.5597 27.9376 16.5956H27.9377C29.0338 15.4994 29.0338 13.7157 27.9376 12.6194ZM8.05571 25.8737C7.68947 26.2399 7.09647 26.24 6.73022 25.8737L4.07935 23.2228C3.71304 22.8564 3.71304 22.2637 4.07935 21.8974L8.7184 17.2582L12.6948 21.2346C12.2409 21.6885 8.52078 25.4086 8.05571 25.8737ZM17.3338 28.5246C17.6992 28.89 17.6992 29.4846 17.3338 29.85C16.9684 30.2154 16.3738 30.2154 16.0084 29.85L11.3693 25.2109L12.6948 23.8855L17.3338 28.5246ZM14.0202 22.56C14.302 22.2783 14.7237 21.8467 15.3893 21.2782L16.0084 21.8974C16.3747 22.2637 16.3747 22.8564 16.0084 23.2228L15.3456 23.8855L14.0202 22.56ZM14.06 19.9491L10.0039 15.8929C12.1776 13.383 13.7342 10.4202 14.567 7.20144L22.7515 15.3859C19.5328 16.2187 16.57 17.7753 14.06 19.9491ZM26.612 15.2701C26.2457 15.6364 25.6529 15.6364 25.2866 15.2701L14.6829 4.66644C14.3166 4.30007 14.3166 3.70732 14.6829 3.34101C15.0492 2.97469 15.6421 2.97469 16.0084 3.34101L26.612 13.9446C26.9774 14.3101 26.9774 14.9046 26.612 15.2701Z" fill="#37ABFF"/>
<path d="M9.3785 20.5724C9.01257 20.2064 8.41907 20.2064 8.05307 20.5724L6.72763 21.8978C6.36162 22.2638 6.36162 22.8572 6.72763 23.2232C7.09356 23.5892 7.68713 23.5892 8.05307 23.2232L9.3785 21.8978C9.74451 21.5318 9.74451 20.9384 9.3785 20.5724Z" fill="#37ABFF"/>
<path d="M21.6355 0C21.1179 0 20.6982 0.419624 20.6982 0.937248V2.81174C20.6982 3.32937 21.1179 3.74899 21.6355 3.74899C22.1531 3.74899 22.5727 3.32937 22.5727 2.81174V0.937248C22.5727 0.419624 22.1531 0 21.6355 0Z" fill="#37ABFF"/>
<path d="M29.136 7.49805H27.2615C26.7438 7.49805 26.3242 7.91767 26.3242 8.4353C26.3242 8.95292 26.7438 9.37254 27.2615 9.37254H29.136C29.6536 9.37254 30.0732 8.95292 30.0732 8.4353C30.0732 7.91767 29.6535 7.49805 29.136 7.49805Z" fill="#37ABFF"/>
<path d="M27.9197 2.14852C27.5538 1.78252 26.9603 1.78252 26.5943 2.14852L24.7198 4.02302C24.3538 4.38902 24.3538 4.98246 24.7198 5.34845C25.0857 5.71445 25.6792 5.71452 26.0452 5.34845L27.9197 3.47396C28.2857 3.10796 28.2857 2.51458 27.9197 2.14852Z" fill="#37ABFF"/>
</svg>
