<svg width="32" height="32" viewBox="0 0 32 32" fill="none" xmlns="http://www.w3.org/2000/svg">
<path d="M30.125 7.5625V5.6875H18.6513C18.3683 4.88975 17.7353 4.25669 16.9375 3.97375V0H15.0625V3.97375C14.2647 4.25669 13.6317 4.88975 13.3488 5.6875H1.875V7.5625H4.21875L0 17.6875V17.875C0 20.4597 2.10281 22.5625 4.6875 22.5625H6.5625C9.14719 22.5625 11.25 20.4597 11.25 17.875V17.6875L7.03125 7.5625H13.3488C13.6317 8.36025 14.2647 8.99331 15.0625 9.27625V22.7194C13.2021 23.0986 11.7401 24.5835 11.3925 26.4551C9.21613 26.8592 7.5625 28.7708 7.5625 31.0625V32H24.4376V31.0625C24.4376 28.7708 22.7839 26.8592 20.6076 26.455C20.2599 24.5834 18.7979 23.0984 16.9375 22.7193V9.27625C17.7353 8.99331 18.3683 8.36025 18.6513 7.5625H24.9688L20.75 17.6875V17.875C20.75 20.4597 22.8528 22.5625 25.4375 22.5625H27.3125C29.8972 22.5625 32 20.4597 32 17.875V17.6875L27.7812 7.5625H30.125ZM5.625 9.0625L8.90625 16.9375H2.34375L5.625 9.0625ZM6.5625 20.6875H4.6875C3.46537 20.6875 2.42325 19.9036 2.03625 18.8119H9.21375C8.82675 19.9036 7.78463 20.6875 6.5625 20.6875ZM26.375 9.0625L29.6562 16.9375H23.0938L26.375 9.0625ZM27.3125 20.6875H25.4375C24.2154 20.6875 23.1732 19.9036 22.7862 18.8119H29.9638C29.5768 19.9036 28.5346 20.6875 27.3125 20.6875ZM22.4019 30.125H9.59813C9.98506 29.0337 11.0278 28.25 12.25 28.25H19.7501C20.9723 28.25 22.0149 29.0337 22.4019 30.125ZM18.6513 26.375H13.3488C13.7358 25.2838 14.7779 24.5 16.0001 24.5C17.2222 24.5 18.2643 25.2838 18.6513 26.375ZM16 7.5625C15.4831 7.5625 15.0625 7.14194 15.0625 6.625C15.0625 6.10806 15.4831 5.6875 16 5.6875C16.5169 5.6875 16.9375 6.10806 16.9375 6.625C16.9375 7.14194 16.5169 7.5625 16 7.5625Z" fill="#37ABFF"/>
</svg>
