<svg width="32" height="32" viewBox="0 0 32 32" fill="none" xmlns="http://www.w3.org/2000/svg">
<g clip-path="url(#clip0_343_544)">
<path d="M27.25 3.75H25.0532C21.9695 3.75 18.9114 2.46045 16.6629 0.212158C16.2969 -0.154053 15.7031 -0.154053 15.3372 0.212158C13.0886 2.46045 10.0305 3.75 6.94678 3.75H4.75C4.23218 3.75 3.8125 4.16968 3.8125 4.6875V15.9375C3.8125 19.6902 4.98926 22.8601 7.40967 25.6284C9.43799 27.9483 11.9951 29.5635 14.0498 30.8614C14.5598 31.1834 15.0415 31.4876 15.48 31.7801C15.6375 31.885 15.8189 31.9375 16 31.9375C16.1812 31.9375 16.3626 31.885 16.52 31.7801C16.9446 31.4971 17.4175 31.199 17.918 30.8836C22.0076 28.3059 28.1875 24.4107 28.1875 15.9375V4.6875C28.1875 4.16968 27.7678 3.75 27.25 3.75ZM26.3125 15.9375C26.3125 23.3762 20.8828 26.7984 16.9182 29.2971C16.6006 29.4976 16.2937 29.6907 16.0003 29.8797C15.6963 29.6836 15.3794 29.4834 15.051 29.2762C11.0994 26.7798 5.6875 23.3614 5.6875 15.9375V5.62501H6.94678C10.2285 5.62501 13.4797 4.37159 16 2.15894C18.5203 4.37159 21.7715 5.62501 25.0532 5.62501H26.3125V15.9375Z" fill="#37ABFF"/>
<path d="M16 7.5C11.3477 7.5 7.5625 11.2849 7.5625 15.9375C7.5625 20.5899 11.3477 24.375 16 24.375C20.6524 24.375 24.4375 20.5899 24.4375 15.9375C24.4375 11.2849 20.6526 7.5 16 7.5ZM16 22.5C12.3814 22.5 9.4375 19.5562 9.4375 15.9375C9.4375 12.3189 12.3814 9.375 16 9.375C19.6187 9.375 22.5625 12.3189 22.5625 15.9375C22.5625 19.5562 19.6187 22.5 16 22.5Z" fill="#37ABFF"/>
<path d="M19.0872 13.3997L15.0625 17.4241L12.9128 15.2747C12.5469 14.9085 11.9531 14.9085 11.5872 15.2747C11.2209 15.6407 11.2209 16.2344 11.5872 16.6004L14.3997 19.4129C14.5825 19.596 14.8225 19.6875 15.0625 19.6875C15.3025 19.6875 15.5425 19.596 15.7254 19.4129L20.4129 14.7254C20.7791 14.3592 20.7791 13.7657 20.4129 13.3994C20.0469 13.0335 19.4531 13.0335 19.0872 13.3997Z" fill="#37ABFF"/>
</g>
<defs>
<clipPath id="clip0_343_544">
<rect width="32" height="32" fill="white"/>
</clipPath>
</defs>
</svg>
