<svg width="32" height="32" viewBox="0 0 32 32" fill="none" xmlns="http://www.w3.org/2000/svg">
<g clip-path="url(#clip0_343_996)">
<path d="M31.0625 15.0622H29.8014C30.3809 13.9103 30.6875 12.6304 30.6875 11.3034C30.6875 9.06612 29.8162 6.96274 28.2343 5.38074C26.6523 3.79874 24.5489 2.92749 22.3117 2.92749C20.0744 2.92749 17.9711 3.79874 16.3891 5.38074L16 5.7698L15.6109 5.3808C14.0289 3.7988 11.9256 2.92755 9.68831 2.92755C7.451 2.92755 5.34769 3.7988 3.76569 5.38074C2.18375 6.96274 1.3125 9.06612 1.3125 11.3034C1.3125 12.6304 1.61906 13.9103 2.19863 15.0622H0.9375C0.41975 15.0622 0 15.482 0 15.9997C0 16.5175 0.41975 16.9372 0.9375 16.9372H3.49038C3.57969 17.0352 3.67138 17.1316 3.76575 17.226L15.3371 28.7974C15.5202 28.9804 15.7601 29.072 16 29.072C16.2399 29.072 16.4799 28.9805 16.6629 28.7974L28.2342 17.226C28.3286 17.1316 28.4203 17.0352 28.5096 16.9372H31.0625C31.5802 16.9372 32 16.5175 32 15.9997C32 15.482 31.5802 15.0622 31.0625 15.0622ZM3.1875 11.3034C3.1875 9.56693 3.86369 7.93443 5.09156 6.70655C6.31938 5.47868 7.95187 4.80249 9.68831 4.80249C11.4248 4.80249 13.0573 5.47868 14.2851 6.70655L15.3371 7.75849C15.7031 8.12462 16.2967 8.12462 16.6629 7.75849L17.7148 6.70655C18.9427 5.47868 20.5752 4.80249 22.3116 4.80249C24.0481 4.80249 25.6806 5.47868 26.9084 6.70655C28.1363 7.93443 28.8125 9.56693 28.8125 11.3034C28.8125 12.6695 28.3937 13.9712 27.6173 15.0622H22.7034L20.6045 11.7481C20.4286 11.4704 20.1205 11.3056 19.7916 11.3125C19.4631 11.3198 19.1623 11.4986 18.9989 11.7839L15.9255 17.1502L11.9613 9.32605C11.7961 9.00011 11.4554 8.7993 11.0916 8.81286C10.7264 8.82586 10.4021 9.04987 10.2606 9.38674L7.87694 15.0622H4.38275C3.60631 13.9712 3.1875 12.6696 3.1875 11.3034ZM16 26.8086L6.12862 16.9372H8.5C8.8775 16.9372 9.21819 16.7108 9.36438 16.3628L11.2046 11.9812L15.0387 19.5485C15.1945 19.856 15.5064 20.0532 15.8511 20.062C15.8591 20.0622 15.8671 20.0623 15.8751 20.0623C16.2105 20.0623 16.5212 19.8828 16.6886 19.5907L19.8529 14.0657L21.3955 16.5015C21.5674 16.7727 21.8662 16.9372 22.1875 16.9372H25.8714L16 26.8086Z" fill="#37ABFF"/>
</g>
<defs>
<clipPath id="clip0_343_996">
<rect width="32" height="32" fill="white"/>
</clipPath>
</defs>
</svg>
