<svg width="32" height="32" viewBox="0 0 32 32" fill="none" xmlns="http://www.w3.org/2000/svg">
<path d="M29.7899 24.2266C30.2794 23.653 30.5758 22.91 30.5758 22.0987C30.5758 20.6141 29.585 19.3572 28.2302 18.9527V15.0625H16.9375V13.1845H20.7073V9.39856C20.7073 7.71987 19.8234 6.2445 18.4972 5.411C18.9866 4.83744 19.2831 4.0945 19.2831 3.28319C19.2831 1.47281 17.8103 0 16 0C14.1897 0 12.7169 1.47281 12.7169 3.28312C12.7169 4.09444 13.0133 4.83744 13.5028 5.41094C12.1766 6.24444 11.2927 7.71981 11.2927 9.3985V13.1844H15.0625V15.0625H3.76981V18.9526C2.41494 19.3571 1.42419 20.6141 1.42419 22.0986C1.42419 22.9099 1.72069 23.6529 2.21012 24.2265C0.883937 25.0601 0 26.5354 0 28.2141V32H9.41469V28.2141C9.41469 26.5354 8.53075 25.0601 7.20456 24.2265C7.694 23.6529 7.9905 22.9099 7.9905 22.0986C7.9905 20.6141 6.99975 19.3571 5.64488 18.9526V16.9375H15.0625V18.9526C13.7077 19.3571 12.7169 20.6141 12.7169 22.0986C12.7169 22.9099 13.0133 23.6529 13.5028 24.2265C12.1766 25.06 11.2927 26.5354 11.2927 28.2141V32H20.7074V28.2141C20.7074 26.5354 19.8234 25.0601 18.4972 24.2266C18.9867 23.653 19.2832 22.91 19.2832 22.0987C19.2832 20.6141 18.2924 19.3572 16.9376 18.9527V16.9375H26.3552V18.9526C25.0004 19.3571 24.0096 20.6141 24.0096 22.0986C24.0096 22.9099 24.3061 23.6529 24.7956 24.2265C23.4694 25.06 22.5854 26.5353 22.5854 28.214V32H32V28.2141C32 26.5354 31.1161 25.0601 29.7899 24.2266ZM14.5919 3.28312C14.5919 2.50669 15.2236 1.875 16 1.875C16.7764 1.875 17.4081 2.50669 17.4081 3.28312C17.4081 4.05956 16.7764 4.69125 16 4.69125C15.2236 4.69125 14.5919 4.05956 14.5919 3.28312ZM13.1677 9.39856C13.1677 7.83681 14.4382 6.56625 16 6.56625C17.5618 6.56625 18.8323 7.83681 18.8323 9.39856V11.3095H13.1676V9.39856H13.1677ZM7.53969 30.125H1.875V28.2141C1.875 26.6524 3.14556 25.3818 4.70731 25.3818C6.26906 25.3818 7.53963 26.6524 7.53963 28.2141V30.125H7.53969ZM6.11544 22.0986C6.11544 22.8751 5.48375 23.5068 4.70731 23.5068C3.93088 23.5068 3.29919 22.8751 3.29919 22.0986C3.29919 21.3222 3.93088 20.6905 4.70731 20.6905C5.48375 20.6905 6.11544 21.3222 6.11544 22.0986ZM18.8323 30.125H13.1676V28.2141C13.1676 26.6524 14.4382 25.3818 15.9999 25.3818C17.5617 25.3818 18.8323 26.6524 18.8323 28.2141V30.125H18.8323ZM17.4081 22.0986C17.4081 22.8751 16.7764 23.5068 16 23.5068C15.2236 23.5068 14.5919 22.8751 14.5919 22.0986C14.5919 21.3222 15.2236 20.6905 16 20.6905C16.7764 20.6905 17.4081 21.3222 17.4081 22.0986ZM25.8845 22.0986C25.8845 21.3222 26.5162 20.6905 27.2926 20.6905C28.0691 20.6905 28.7008 21.3222 28.7008 22.0986C28.7008 22.8751 28.0691 23.5068 27.2926 23.5068C26.5162 23.5068 25.8845 22.8751 25.8845 22.0986ZM30.125 30.125H24.4603V28.2141C24.4603 26.6524 25.7309 25.3818 27.2926 25.3818C28.8544 25.3818 30.125 26.6524 30.125 28.2141V30.125Z" fill="#37ABFF"/>
</svg>
