<svg width="56" height="56" viewBox="0 0 56 56" fill="none" xmlns="http://www.w3.org/2000/svg">
<path d="M49.6425 52.6593H6.35749C2.8522 52.6593 0 49.8071 0 46.3018V9.60358C0 6.0983 2.8522 3.24609 6.35749 3.24609H49.6425C53.1478 3.24609 56 6.0983 56 9.60358V46.3018C56 49.8071 53.1478 52.6593 49.6425 52.6593ZM6.35749 5.13981C3.89629 5.13981 1.89372 7.14238 1.89372 9.60358V46.3018C1.89372 48.763 3.89629 50.7656 6.35749 50.7656H49.6425C52.1037 50.7656 54.1063 48.763 54.1063 46.3018V9.60358C54.1063 7.14238 52.1037 5.13981 49.6425 5.13981H6.35749Z" fill="#37ABFF"/>
<path d="M47.4545 38.2033H32.5758C32.0527 38.2033 31.6289 37.7795 31.6289 37.2564C31.6289 36.7339 32.0527 36.3096 32.5758 36.3096H47.4545C47.9771 36.3096 48.4013 36.7339 48.4013 37.2564C48.4013 37.7795 47.9776 38.2033 47.4545 38.2033Z" fill="#37ABFF"/>
<path d="M47.4545 45.049H32.5758C32.0527 45.049 31.6289 44.6252 31.6289 44.1021C31.6289 43.5796 32.0527 43.1553 32.5758 43.1553H47.4545C47.9771 43.1553 48.4013 43.5796 48.4013 44.1021C48.4013 44.6252 47.9776 45.049 47.4545 45.049Z" fill="#37ABFF"/>
<path d="M47.4545 24.5119H32.5758C32.0527 24.5119 31.6289 24.0881 31.6289 23.565C31.6289 23.0425 32.0527 22.6182 32.5758 22.6182H47.4545C47.9771 22.6182 48.4013 23.0425 48.4013 23.565C48.4013 24.0881 47.9776 24.5119 47.4545 24.5119Z" fill="#37ABFF"/>
<path d="M47.4545 31.3576H32.5758C32.0527 31.3576 31.6289 30.9338 31.6289 30.4107C31.6289 29.8882 32.0527 29.4639 32.5758 29.4639H47.4545C47.9771 29.4639 48.4013 29.8882 48.4013 30.4107C48.4013 30.9338 47.9776 31.3576 47.4545 31.3576Z" fill="#37ABFF"/>
<path d="M55.0531 15.925H0.94686C0.423762 15.925 0 15.5012 0 14.9781C0 14.455 0.423762 14.0312 0.94686 14.0312H55.0531C55.5762 14.0312 56 14.455 56 14.9781C56 15.5012 55.5762 15.925 55.0531 15.925Z" fill="#37ABFF"/>
<path d="M13.6499 12.5497C12.0251 12.5497 10.7031 11.2283 10.7031 9.60348C10.7031 7.97871 12.0251 6.65723 13.6499 6.65723C15.2747 6.65723 16.5962 7.97871 16.5962 9.60348C16.5962 11.2283 15.2747 12.5497 13.6499 12.5497ZM13.6499 8.55095C13.0692 8.55095 12.5968 9.02332 12.5968 9.60348C12.5968 10.1836 13.0692 10.656 13.6499 10.656C14.2301 10.656 14.7024 10.1836 14.7024 9.60348C14.7024 9.02332 14.2301 8.55095 13.6499 8.55095Z" fill="#37ABFF"/>
<path d="M6.82907 12.5507C5.20482 12.5507 3.88281 11.2292 3.88281 9.60446C3.88281 7.97969 5.20482 6.6582 6.82907 6.6582C8.45384 6.6582 9.77585 7.97969 9.77585 9.60446C9.77585 11.2292 8.45384 12.5507 6.82907 12.5507ZM6.82907 8.55192C6.24891 8.55192 5.77653 9.0243 5.77653 9.60446C5.77653 10.1846 6.24891 10.657 6.82907 10.657C7.40976 10.657 7.88213 10.1846 7.88213 9.60446C7.88213 9.0243 7.40976 8.55192 6.82907 8.55192Z" fill="#37ABFF"/>
<path d="M20.4736 12.5507C18.8488 12.5507 17.5273 11.2292 17.5273 9.60446C17.5273 7.97969 18.8488 6.6582 20.4736 6.6582C22.0984 6.6582 23.4204 7.97969 23.4204 9.60446C23.4204 11.2292 22.0984 12.5507 20.4736 12.5507ZM20.4736 8.55192C19.8929 8.55192 19.4211 9.0243 19.4211 9.60446C19.4211 10.1846 19.8934 10.657 20.4736 10.657C21.0543 10.657 21.5267 10.1846 21.5267 9.60446C21.5267 9.0243 21.0543 8.55192 20.4736 8.55192Z" fill="#37ABFF"/>
<path d="M25.4303 45.049H8.25155C7.72845 45.049 7.30469 44.6253 7.30469 44.1022V23.565C7.30469 23.0425 7.72845 22.6182 8.25155 22.6182H25.4303C25.9534 22.6182 26.3772 23.0425 26.3772 23.565V44.1022C26.3772 44.6253 25.9534 45.049 25.4303 45.049ZM9.19841 43.1553H24.4834V24.5119H9.19841V43.1553Z" fill="#37ABFF"/>
</svg>
