<svg width="32" height="32" viewBox="0 0 32 32" fill="none" xmlns="http://www.w3.org/2000/svg">
<path d="M26.5 29.1H5.5C4.70435 29.1 3.94129 28.7839 3.37868 28.2213C2.81607 27.6587 2.5 26.8956 2.5 26.1V15.18C2.1736 14.6879 1.99967 14.1105 2 13.52V11C2 10.2044 2.31607 9.44129 2.87868 8.87868C3.44129 8.31607 4.20435 8 5 8H9V6C9 5.20435 9.31607 4.44129 9.87868 3.87868C10.4413 3.31607 11.2044 3 12 3H20C20.7956 3 21.5587 3.31607 22.1213 3.87868C22.6839 4.44129 23 5.20435 23 6V8H27C27.7956 8 28.5587 8.31607 29.1213 8.87868C29.6839 9.44129 30 10.2044 30 11V13.52C30.0003 14.1105 29.8264 14.6879 29.5 15.18V26.1C29.5 26.8956 29.1839 27.6587 28.6213 28.2213C28.0587 28.7839 27.2956 29.1 26.5 29.1ZM4.5 16.5V26.1C4.5 26.3652 4.60536 26.6196 4.79289 26.8071C4.98043 26.9946 5.23478 27.1 5.5 27.1H26.5C26.7652 27.1 27.0196 26.9946 27.2071 26.8071C27.3946 26.6196 27.5 26.3652 27.5 26.1V16.5L19 19.12V20C19 20.7956 18.6839 21.5587 18.1213 22.1213C17.5587 22.6839 16.7956 23 16 23C15.2044 23 14.4413 22.6839 13.8787 22.1213C13.3161 21.5587 13 20.7956 13 20V19.12L4.5 16.5ZM15 18.4V20C15 20.2652 15.1054 20.5196 15.2929 20.7071C15.4804 20.8946 15.7348 21 16 21C16.2652 21 16.5196 20.8946 16.7071 20.7071C16.8946 20.5196 17 20.2652 17 20V17H15V18.4ZM5 10C4.73478 10 4.48043 10.1054 4.29289 10.2929C4.10536 10.4804 4 10.7348 4 11V13.52C3.9899 13.7406 4.0531 13.9583 4.17972 14.1392C4.30635 14.3201 4.48929 14.454 4.7 14.52L13 17V16C13 15.7348 13.1054 15.4804 13.2929 15.2929C13.4804 15.1054 13.7348 15 14 15H18C18.2652 15 18.5196 15.1054 18.7071 15.2929C18.8946 15.4804 19 15.7348 19 16V17L27.3 14.44C27.5107 14.374 27.6937 14.2401 27.8203 14.0592C27.9469 13.8783 28.0101 13.6606 28 13.44V11C28 10.7348 27.8946 10.4804 27.7071 10.2929C27.5196 10.1054 27.2652 10 27 10H5ZM11 8H21V6C21 5.73478 20.8946 5.48043 20.7071 5.29289C20.5196 5.10536 20.2652 5 20 5H12C11.7348 5 11.4804 5.10536 11.2929 5.29289C11.1054 5.48043 11 5.73478 11 6V8Z" fill="#37ABFF"/>
</svg>
