<svg width="32" height="32" viewBox="0 0 32 32" fill="none" xmlns="http://www.w3.org/2000/svg">
<path d="M4 25V9H9C9.26522 9 9.51957 8.89464 9.70711 8.70711C9.89464 8.51957 10 8.26522 10 8V4H21C21.2652 4 21.5196 4.10536 21.7071 4.29289C21.8946 4.48043 22 4.73478 22 5V10H24V5C24 4.20435 23.6839 3.44129 23.1213 2.87868C22.5587 2.31607 21.7956 2 21 2H9C8.76855 2.00467 8.54589 2.08949 8.37 2.24L2.37 7.24C2.25658 7.33198 2.16467 7.44769 2.10075 7.57898C2.03683 7.71028 2.00244 7.85399 2 8V25C2 25.7956 2.31607 26.5587 2.87868 27.1213C3.44129 27.6839 4.20435 28 5 28H14.07V26H5C4.73478 26 4.48043 25.8946 4.29289 25.7071C4.10536 25.5196 4 25.2652 4 25ZM5.76 7L8 5.14V7H5.76ZM27 12H19C18.2044 12 17.4413 12.3161 16.8787 12.8787C16.3161 13.4413 16 14.2044 16 15V27C16 27.7956 16.3161 28.5587 16.8787 29.1213C17.4413 29.6839 18.2044 30 19 30H27C27.7956 30 28.5587 29.6839 29.1213 29.1213C29.6839 28.5587 30 27.7956 30 27V15C30 14.2044 29.6839 13.4413 29.1213 12.8787C28.5587 12.3161 27.7956 12 27 12ZM28 27C28 27.2652 27.8946 27.5196 27.7071 27.7071C27.5196 27.8946 27.2652 28 27 28H19C18.7348 28 18.4804 27.8946 18.2929 27.7071C18.1054 27.5196 18 27.2652 18 27V15C18 14.7348 18.1054 14.4804 18.2929 14.2929C18.4804 14.1054 18.7348 14 19 14H27C27.2652 14 27.5196 14.1054 27.7071 14.2929C27.8946 14.4804 28 14.7348 28 15V27ZM20 16H26V18H20V16ZM20 20H22V22H20V20ZM24 20H26V22H24V20ZM20 24H22V26H20V24ZM24 24H26V26H24V24ZM14 16H6V14H14V16ZM6 19H14V21H6V19Z" fill="#37ABFF"/>
</svg>
