<svg width="32" height="32" viewBox="0 0 32 32" fill="none" xmlns="http://www.w3.org/2000/svg">
<g clip-path="url(#clip0_343_1354)">
<path d="M30.7006 1.63598C25.1997 3.9378 19.0134 3.94286 13.5005 1.63598C12.8831 1.3778 12.2011 1.83217 12.2011 2.50086C12.2011 14.3115 12.1939 13.495 12.2184 13.9154C11.5197 14.1792 10.9603 14.457 10.5871 14.6612C7.53675 12.9924 3.77612 12.5019 0.526875 14.0851C0.2045 14.2421 0 14.5692 0 14.9279V28.6805C0 29.3725 0.726125 29.8264 1.34812 29.5233C3.13244 28.654 5.1265 28.5089 7.27519 29.0921C8.93056 29.5414 10.059 30.2757 10.0684 30.2819C10.3769 30.4867 10.7839 30.4924 11.1036 30.2831C11.1148 30.2757 12.2432 29.5415 13.8986 29.0922C16.0472 28.509 18.0413 28.6542 19.8256 29.5236C20.4478 29.8267 21.1737 29.3725 21.1737 28.6809V26.002C22.8937 26.2904 24.6153 25.768 25.8736 24.6089C28.6685 22.0345 32 17.9902 32 13.3426V2.50086C32 1.83161 31.3175 1.37792 30.7006 1.63598ZM1.875 27.3045V15.5374C4.42462 14.5197 7.30594 15.0196 9.64937 16.286V27.9522C7.18388 26.8605 4.44244 26.5104 1.875 27.3045ZM19.2987 27.3047C16.7379 26.5126 13.9978 26.857 11.5244 27.9522V16.2861C11.7644 16.1563 12.1 15.9884 12.5098 15.8172C13.3975 19.4148 16.0417 22.5035 18.3272 24.6089C18.6267 24.8847 18.9529 25.1232 19.2987 25.3247V27.3047H19.2987ZM30.125 13.3426C30.125 17.3107 27.1223 20.9095 24.6034 23.2297C23.1999 24.5225 21.0011 24.5225 19.5977 23.2297C17.3197 21.1314 14.6462 17.9872 14.1557 14.4701C14.1496 14.4076 14.0761 13.9602 14.0761 13.3426V3.86655C19.294 5.70861 24.977 5.68392 30.125 3.86655V13.3426Z" fill="#37ABFF"/>
<path d="M26.0614 15.2832H18.1445C17.6268 15.2832 17.207 15.703 17.207 16.2207C17.207 18.9202 19.4035 21.1164 22.1033 21.1164C24.8027 21.1164 26.9989 18.9202 26.9989 16.2207C26.9989 15.703 26.5792 15.2832 26.0614 15.2832ZM22.1033 19.2414C20.7646 19.2414 19.6264 18.3662 19.231 17.1582H24.975C24.5797 18.3662 23.4417 19.2414 22.1033 19.2414Z" fill="#37ABFF"/>
<path d="M20.3034 10.2157C20.4984 9.73604 20.2677 9.1891 19.788 8.9941C19.3084 8.79917 18.7615 9.02973 18.5665 9.50948C18.3052 10.1519 17.3917 10.1521 17.1304 9.50948C16.9354 9.02985 16.3885 8.79923 15.9089 8.9941C15.4292 9.1891 15.1985 9.73604 15.3935 10.2157C15.8014 11.2189 16.7651 11.8671 17.8487 11.8671C18.932 11.8671 19.8955 11.2189 20.3034 10.2157Z" fill="#37ABFF"/>
<path d="M26.3497 11.8671C27.433 11.8671 28.3965 11.2189 28.8044 10.2157C28.9994 9.73604 28.7687 9.1891 28.289 8.9941C27.8093 8.79917 27.2624 9.02973 27.0674 9.50948C26.8062 10.1519 25.8927 10.1521 25.6314 9.50948C25.4364 9.02985 24.8895 8.79923 24.4098 8.9941C23.9302 9.1891 23.6995 9.73604 23.8945 10.2157C24.3024 11.2189 25.2661 11.8671 26.3497 11.8671Z" fill="#37ABFF"/>
<path d="M6.83687 17.3835H4.6875C4.16975 17.3835 3.75 17.8032 3.75 18.321C3.75 18.8387 4.16975 19.2585 4.6875 19.2585H6.83687C7.35462 19.2585 7.77437 18.8387 7.77437 18.321C7.77437 17.8032 7.35462 17.3835 6.83687 17.3835Z" fill="#37ABFF"/>
<path d="M6.83687 21.1335H4.6875C4.16975 21.1335 3.75 21.5532 3.75 22.071C3.75 22.5887 4.16975 23.0085 4.6875 23.0085H6.83687C7.35462 23.0085 7.77437 22.5887 7.77437 22.071C7.77437 21.5532 7.35462 21.1335 6.83687 21.1335Z" fill="#37ABFF"/>
</g>
<defs>
<clipPath id="clip0_343_1354">
<rect width="32" height="32" fill="white"/>
</clipPath>
</defs>
</svg>
