<svg width="32" height="32" viewBox="0 0 32 32" fill="none" xmlns="http://www.w3.org/2000/svg">
<path d="M30.242 25.4777C30.0423 23.3674 29.1963 21.37 27.8195 19.7583C26.4427 18.1465 24.6022 16.9988 22.549 16.4717C22.7351 16.0478 22.8127 15.5842 22.7746 15.1228C22.7365 14.6614 22.5839 14.2168 22.3308 13.8292C22.0777 13.4416 21.7319 13.1232 21.3247 12.9028C20.9176 12.6824 20.462 12.567 19.999 12.567C19.536 12.567 19.0804 12.6824 18.6733 12.9028C18.2661 13.1232 17.9203 13.4416 17.6672 13.8292C17.4141 14.2168 17.2615 14.6614 17.2234 15.1228C17.1853 15.5842 17.2629 16.0478 17.449 16.4717C17.0801 16.5693 16.7169 16.6871 16.361 16.8247V6.70968C16.361 6.44446 16.2556 6.19011 16.0681 6.00257C15.8806 5.81503 15.6262 5.70968 15.361 5.70968H13.214V1.99968C13.2136 1.83253 13.1714 1.66814 13.0911 1.52155C13.0108 1.37495 12.895 1.25082 12.7543 1.1605C12.6137 1.07019 12.4527 1.01657 12.2859 1.00454C12.1192 0.99252 11.9522 1.02248 11.8 1.09168L1.581 5.79968C1.40723 5.87986 1.26013 6.00823 1.15714 6.16953C1.05415 6.33083 0.999617 6.5183 1 6.70968V27.9997C1 28.2649 1.10536 28.5192 1.2929 28.7068C1.48043 28.8943 1.73479 28.9997 2 28.9997H9V29.9997C9 30.2649 9.10536 30.5192 9.2929 30.7068C9.48043 30.8943 9.73479 30.9997 10 30.9997H30C30.2652 30.9997 30.5196 30.8943 30.7071 30.7068C30.8946 30.5192 31 30.2649 31 29.9997V26.4297C30.9982 26.2091 30.9226 25.9955 30.7852 25.823C30.6478 25.6504 30.4566 25.5288 30.242 25.4777ZM28.23 25.4297H11.769C11.8166 25.0351 11.8938 24.6447 12 24.2617C12.4748 22.5063 13.514 20.956 14.9572 19.8498C16.4005 18.7436 18.1676 18.143 19.986 18.1407H20.004H20.024C22.0447 18.1485 23.9931 18.8932 25.5038 20.2352C27.0146 21.5771 27.9839 23.424 28.23 25.4297V25.4297ZM19.214 15.3567C19.2134 15.2017 19.2587 15.05 19.3441 14.9207C19.4295 14.7913 19.5512 14.6902 19.694 14.6298C19.8367 14.5695 19.9941 14.5527 20.1464 14.5816C20.2987 14.6104 20.439 14.6837 20.5498 14.7921C20.6605 14.9005 20.7368 15.0392 20.7689 15.1908C20.801 15.3424 20.7876 15.5002 20.7304 15.6442C20.6731 15.7882 20.5746 15.9121 20.4471 16.0002C20.3196 16.0884 20.169 16.1369 20.014 16.1397H19.991C19.7845 16.1376 19.5872 16.0542 19.4418 15.9077C19.2964 15.7611 19.2145 15.5631 19.214 15.3567V15.3567ZM11.214 5.70968H6.556L11.214 3.56268V5.70968ZM3 26.9997V7.70968H12.2H12.219C12.219 7.70968 12.232 7.70968 12.239 7.70968H14.36V17.8367C12.2601 19.2171 10.7339 21.3141 10.066 23.7367C9.9172 24.3069 9.81882 24.8892 9.772 25.4767C9.55453 25.5248 9.35979 25.6453 9.21958 25.8184C9.07937 25.9914 9.00197 26.2069 9 26.4297V26.9997H3ZM29 28.9997H11V27.4297H29V28.9997Z" fill="#37ABFF"/>
<path d="M5.14063 17.9287H9.06863C9.33385 17.9287 9.5882 17.8234 9.77574 17.6358C9.96327 17.4483 10.0686 17.1939 10.0686 16.9287C10.0686 16.6635 9.96327 16.4091 9.77574 16.2216C9.5882 16.0341 9.33385 15.9287 9.06863 15.9287H5.14063C4.87541 15.9287 4.62105 16.0341 4.43352 16.2216C4.24598 16.4091 4.14062 16.6635 4.14062 16.9287C4.14062 17.1939 4.24598 17.4483 4.43352 17.6358C4.62105 17.8234 4.87541 17.9287 5.14063 17.9287Z" fill="#37ABFF"/>
<path d="M10.0686 20.0713C10.0686 19.8061 9.96327 19.5517 9.77574 19.3642C9.5882 19.1766 9.33385 19.0713 9.06863 19.0713H5.14063C4.87541 19.0713 4.62105 19.1766 4.43352 19.3642C4.24598 19.5517 4.14062 19.8061 4.14062 20.0713C4.14062 20.3365 4.24598 20.5909 4.43352 20.7784C4.62105 20.9659 4.87541 21.0713 5.14063 21.0713H9.06863C9.33385 21.0713 9.5882 20.9659 9.77574 20.7784C9.96327 20.5909 10.0686 20.3365 10.0686 20.0713Z" fill="#37ABFF"/>
<path d="M5.14062 14.7856H12.2116C12.4768 14.7856 12.7312 14.6802 12.9187 14.4927C13.1063 14.3051 13.2116 14.0508 13.2116 13.7856V10.6426C13.2116 10.3774 13.1063 10.123 12.9187 9.93547C12.7312 9.74794 12.4768 9.64258 12.2116 9.64258H5.14062C4.87541 9.64258 4.62105 9.74794 4.43352 9.93547C4.24598 10.123 4.14062 10.3774 4.14062 10.6426V13.7856C4.14062 14.0508 4.24598 14.3051 4.43352 14.4927C4.62105 14.6802 4.87541 14.7856 5.14062 14.7856V14.7856ZM6.14062 11.6426H11.2116V12.7856H6.14062V11.6426Z" fill="#37ABFF"/>
</svg>
