<svg width="32" height="32" viewBox="0 0 32 32" fill="none" xmlns="http://www.w3.org/2000/svg">
<path d="M24.3768 11.1474V9.81389L16.9375 6.82176V5.61226L22.1875 5.67476V0.0385742H15.0625V6.82176L7.62313 9.81389V11.1474H0V31.9619H32V11.1474H24.3768ZM16.9375 1.91357H20.3125V3.77732L16.9375 3.73714V1.91357ZM13.0416 13.0224V25.7119H10.8749V13.0224H13.0416ZM14.9166 25.7119V13.0224H17.0833V25.7119H14.9166V25.7119ZM21.125 27.5869V30.0869H10.8749V27.5869H21.125ZM18.9583 25.7119V13.0224H21.125V25.7119H18.9583V25.7119ZM9.49813 11.0808L16 8.4657L22.5018 11.0808V11.1474H9.49813V11.0808ZM1.875 13.0224H8.99988V30.0869H1.875V13.0224ZM30.125 30.0869H23V13.0224H30.125V30.0869Z" fill="#37ABFF"/>
<path d="M4.49902 15.522H6.37402V20.2632H4.49902V15.522Z" fill="#37ABFF"/>
<path d="M25.625 15.522H27.5V20.2632H25.625V15.522Z" fill="#37ABFF"/>
<path d="M4.49902 22.8457H6.37402V27.587H4.49902V22.8457Z" fill="#37ABFF"/>
<path d="M25.625 22.8457H27.5V27.587H25.625V22.8457Z" fill="#37ABFF"/>
</svg>
