<svg width="40" height="40" viewBox="0 0 40 40" fill="none" xmlns="http://www.w3.org/2000/svg">
<g clip-path="url(#clip0_1_21526)">
<path d="M28.6651 8.43848H17.5784C16.7152 8.43848 16.0156 9.13808 16.0156 10.0012C16.0156 10.8643 16.7152 11.5639 17.5784 11.5639H28.6651C29.5282 11.5639 30.2278 10.8643 30.2278 10.0012C30.2278 9.13808 29.5281 8.43848 28.6651 8.43848Z" fill="#F5FBFF"/>
<path d="M28.6651 14.6895H17.5784C16.7152 14.6895 16.0156 15.3891 16.0156 16.2522C16.0156 17.1153 16.7152 17.8149 17.5784 17.8149H28.6651C29.5281 17.8149 30.2278 17.1153 30.2278 16.2522C30.2278 15.3891 29.5282 14.6895 28.6651 14.6895Z" fill="#F5FBFF"/>
<path d="M22.3447 20.9404H17.5784C16.7152 20.9404 16.0156 21.64 16.0156 22.5032C16.0156 23.3663 16.7152 24.0659 17.5784 24.0659H22.3447C23.2078 24.0659 23.9074 23.3663 23.9074 22.5032C23.9074 21.64 23.2078 20.9404 22.3447 20.9404Z" fill="#F5FBFF"/>
<path d="M35.0008 21.253C35.8639 21.253 36.5635 20.5534 36.5635 19.6903V6.25094C36.5635 2.80414 33.7593 0 30.3126 0H15.9355C12.4906 0 9.68774 2.80102 9.68453 6.24516C6.23781 6.24516 3.43359 9.0493 3.43359 12.4961V33.7491C3.43359 37.1959 6.23774 40.0001 9.68453 40.0001H24.843C28.2897 40.0001 31.0939 37.1959 31.0939 33.7491V33.7016C34.1731 33.3159 36.5634 30.6812 36.5634 27.4994C36.5634 26.6362 35.8638 25.9366 35.0007 25.9366C34.1376 25.9366 33.438 26.6362 33.438 27.4994C33.438 29.2223 32.0363 30.6245 30.3133 30.6248L15.9362 30.6284H15.9355C15.1007 30.6284 14.3159 30.3034 13.7257 29.7131C13.1352 29.1228 12.81 28.3378 12.81 27.5029V6.25094C12.81 4.52758 14.2121 3.12547 15.9355 3.12547H30.3127C32.036 3.12547 33.4381 4.52758 33.4381 6.25094V19.6904C33.438 20.5534 34.1377 21.253 35.0008 21.253ZM15.9355 33.7537H15.937L27.9684 33.7507C27.9675 35.4733 26.5658 36.8745 24.843 36.8745H9.68461C7.96125 36.8745 6.55914 35.4723 6.55914 33.749V12.4959C6.55914 10.7726 7.96125 9.37047 9.68461 9.37047V27.5028C9.68461 29.1727 10.335 30.7427 11.5159 31.9234C12.6966 33.1038 14.2659 33.7537 15.9355 33.7537Z" fill="#F5FBFF"/>
</g>
<defs>
<clipPath id="clip0_1_21526">
<rect width="40" height="40" fill="white"/>
</clipPath>
</defs>
</svg>
