<svg width="40" height="40" viewBox="0 0 40 40" fill="none" xmlns="http://www.w3.org/2000/svg">
<path d="M20 2.5C10.35 2.5 2.5 10.35 2.5 20C2.5 29.65 10.35 37.5 20 37.5C29.65 37.5 37.5 29.65 37.5 20C37.5 10.35 29.65 2.5 20 2.5ZM20 35.8333C11.2692 35.8333 4.16667 28.7308 4.16667 20C4.16667 11.2692 11.2692 4.16667 20 4.16667C28.7308 4.16667 35.8333 11.2692 35.8333 20C35.8333 28.7308 28.7308 35.8333 20 35.8333Z" fill="#5FCF81"/>
<path d="M26.8869 14.4109L18.0477 23.25L13.9227 19.125C13.5969 18.7992 13.0702 18.7992 12.7444 19.125C12.4185 19.4509 12.4185 19.9775 12.7444 20.3034L17.4585 25.0175C17.621 25.18 17.8344 25.2617 18.0477 25.2617C18.261 25.2617 18.4744 25.18 18.6369 25.0175L28.0652 15.5892C28.391 15.2634 28.391 14.7367 28.0652 14.4109C27.7394 14.085 27.2127 14.085 26.8869 14.4109Z" fill="#5FCF81"/>
</svg>
