<svg width="40" height="40" viewBox="0 0 40 40" fill="none" xmlns="http://www.w3.org/2000/svg">
<g clip-path="url(#clip0_1_21332)">
<path d="M27.5313 17.1875C27.5313 16.3245 26.8317 15.625 25.9688 15.625H9.875C9.01203 15.625 8.3125 16.3245 8.3125 17.1875C8.3125 18.0505 9.01203 18.75 9.875 18.75H25.9688C26.8317 18.75 27.5313 18.0505 27.5313 17.1875Z" fill="#37ABFF"/>
<path d="M9.875 21.875C9.01203 21.875 8.3125 22.5745 8.3125 23.4375C8.3125 24.3005 9.01203 25 9.875 25H19.6493C20.5123 25 21.2118 24.3005 21.2118 23.4375C21.2118 22.5745 20.5123 21.875 19.6493 21.875H9.875Z" fill="#37ABFF"/>
<path d="M13.5499 36.875H8.32422C6.60109 36.875 5.19922 35.4731 5.19922 33.75V6.25C5.19922 4.52688 6.60109 3.125 8.32422 3.125H27.5343C29.2574 3.125 30.6593 4.52688 30.6593 6.25V15.8594C30.6593 16.7223 31.3588 17.4219 32.2218 17.4219C33.0848 17.4219 33.7843 16.7223 33.7843 15.8594V6.25C33.7843 2.80375 30.9805 0 27.5343 0H8.32422C4.87797 0 2.07422 2.80375 2.07422 6.25V33.75C2.07422 37.1963 4.87797 40 8.32422 40H13.5499C14.4129 40 15.1124 39.3005 15.1124 38.4375C15.1124 37.5745 14.4129 36.875 13.5499 36.875Z" fill="#37ABFF"/>
<path d="M36.5529 22.6229C34.7252 20.7952 31.7515 20.7951 29.925 22.6216L21.3466 31.181C21.1644 31.3628 21.0301 31.5867 20.9552 31.833L19.087 37.9833C18.9214 38.5287 19.0657 39.1208 19.4637 39.5286C19.7618 39.8342 20.1668 40.0001 20.5822 40.0001C20.7212 40.0001 20.8615 39.9815 20.9992 39.9433L27.3059 38.1963C27.5654 38.1244 27.802 37.9867 27.9926 37.7964L36.553 29.2521C38.3806 27.4244 38.3806 24.4507 36.5529 22.6229ZM26.0757 35.2944L22.9029 36.1733L23.8314 33.1164L29.6196 27.341L31.8298 29.5512L26.0757 35.2944ZM34.3444 27.0415L34.0416 27.3436L31.8319 25.1338L32.1336 24.8327C32.7428 24.2235 33.7341 24.2235 34.3433 24.8327C34.9525 25.4419 34.9525 26.4332 34.3444 27.0415Z" fill="#37ABFF"/>
<path d="M25.9688 9.375H9.875C9.01203 9.375 8.3125 10.0745 8.3125 10.9375C8.3125 11.8005 9.01203 12.5 9.875 12.5H25.9688C26.8317 12.5 27.5313 11.8005 27.5313 10.9375C27.5313 10.0745 26.8317 9.375 25.9688 9.375Z" fill="#37ABFF"/>
</g>
<defs>
<clipPath id="clip0_1_21332">
<rect width="40" height="40" fill="white"/>
</clipPath>
</defs>
</svg>
