<svg width="16" height="16" viewBox="0 0 16 16" fill="none" xmlns="http://www.w3.org/2000/svg">
<path d="M5.68108 8.00031L1.81472 11.8667C1.17427 12.5075 1.17427 13.5468 1.81472 14.1872C2.45481 14.8273 3.49411 14.8273 4.13415 14.1872L8.00087 10.3201L11.8669 14.1872C12.5077 14.8273 13.5463 14.8273 14.1867 14.1872C14.8279 13.5464 14.8272 12.5071 14.1867 11.8667L10.3207 8.00031L14.1871 4.13466C14.8279 3.49351 14.8279 2.45456 14.1871 1.81412C13.5463 1.17296 12.5077 1.17296 11.8669 1.81412L8.00087 5.68083L4.13415 1.81416C3.49406 1.17301 2.45476 1.17301 1.81432 1.81416C1.17387 2.45461 1.17387 3.49244 1.81432 4.13324L5.68108 8.00031Z" fill="#DA5858"/>
</svg>
