<svg width="24" height="24" viewBox="0 0 24 24" fill="none" xmlns="http://www.w3.org/2000/svg">
<path fill-rule="evenodd" clip-rule="evenodd" d="M6.2998 13.4998C6.2998 12.2848 7.28478 11.2998 8.4998 11.2998C9.71483 11.2998 10.6998 12.2848 10.6998 13.4998C10.6998 14.7148 9.71483 15.6998 8.4998 15.6998C7.28478 15.6998 6.2998 14.7148 6.2998 13.4998ZM8.4998 12.6998C8.05798 12.6998 7.6998 13.058 7.6998 13.4998C7.6998 13.9416 8.05798 14.2998 8.4998 14.2998C8.94163 14.2998 9.2998 13.9416 9.2998 13.4998C9.2998 13.058 8.94163 12.6998 8.4998 12.6998Z" fill="white"/>
<path fill-rule="evenodd" clip-rule="evenodd" d="M15.4998 11.2998C14.2848 11.2998 13.2998 12.2848 13.2998 13.4998C13.2998 14.7148 14.2848 15.6998 15.4998 15.6998C16.7148 15.6998 17.6998 14.7148 17.6998 13.4998C17.6998 12.2848 16.7148 11.2998 15.4998 11.2998ZM14.6998 13.4998C14.6998 13.058 15.058 12.6998 15.4998 12.6998C15.9416 12.6998 16.2998 13.058 16.2998 13.4998C16.2998 13.9416 15.9416 14.2998 15.4998 14.2998C15.058 14.2998 14.6998 13.9416 14.6998 13.4998Z" fill="white"/>
<path fill-rule="evenodd" clip-rule="evenodd" d="M9.2998 2.9998C9.2998 1.50864 10.5086 0.299805 11.9998 0.299805C13.491 0.299805 14.6998 1.50864 14.6998 2.9998C14.6998 4.13769 13.9959 5.11116 12.9998 5.50857V6.2998H15.9998C18.5955 6.2998 20.6998 8.40407 20.6998 10.9998V12.2998H23.6998V18.6998H20.6998V22.6998H3.2998V18.6998H0.299805V12.2998H3.2998V10.9998C3.2998 8.40407 5.40407 6.2998 7.9998 6.2998H10.9998V5.50857C10.0037 5.11116 9.2998 4.13769 9.2998 2.9998ZM4.6998 21.2998H6.2998V17.2998H17.6998V21.2998H19.2998V10.9998C19.2998 9.17727 17.8223 7.6998 15.9998 7.6998H7.9998C6.17727 7.6998 4.6998 9.17727 4.6998 10.9998V21.2998ZM3.2998 13.6998H1.6998V17.2998H3.2998V13.6998ZM11.9998 1.6998C11.2818 1.6998 10.6998 2.28183 10.6998 2.9998C10.6998 3.71778 11.2818 4.2998 11.9998 4.2998C12.7178 4.2998 13.2998 3.71778 13.2998 2.9998C13.2998 2.28183 12.7178 1.6998 11.9998 1.6998ZM12.9998 18.6998V21.2998H10.9998V18.6998H12.9998ZM16.2998 18.6998V21.2998H14.6998V18.6998H16.2998ZM9.2998 18.6998H7.6998V21.2998H9.2998V18.6998ZM20.6998 13.6998V17.2998H22.2998V13.6998H20.6998Z" fill="white"/>
</svg>
