<svg width="48" height="48" viewBox="0 0 48 48" fill="none" xmlns="http://www.w3.org/2000/svg">
<g clip-path="url(#clip0_353_5323)">
<path d="M48 21.4687L35.4375 21.4687L35.4375 17.8041C35.4375 15.7104 37.1407 14.0072 39.2344 14.0072L44.0625 14.0072L44.0625 4.6322L39.2344 4.6322C31.9713 4.6322 26.0625 10.541 26.0625 17.8041L26.0625 43.4063L48 43.4062L48 21.4687Z" fill="#37ABFF"/>
<path d="M21.9375 43.4062L21.9375 21.4688L9.375 21.4688L9.375 17.8041C9.375 15.7105 11.0782 14.0072 13.1719 14.0072L18 14.0072L18 4.63221L13.1719 4.63221C5.90881 4.63221 9.41528e-07 10.541 1.57648e-06 17.8041L3.8147e-06 43.4063L21.9375 43.4062Z" fill="#37ABFF"/>
</g>
<defs>
<clipPath id="clip0_353_5323">
<rect width="48" height="48" fill="white" transform="translate(48 48) rotate(180)"/>
</clipPath>
</defs>
</svg>
