<svg width="40" height="40" viewBox="0 0 40 40" fill="none" xmlns="http://www.w3.org/2000/svg">
<path d="M35.933 7.87461C36.7107 7.03758 37.1875 5.91742 37.1875 4.6875C37.1875 2.10281 35.0847 0 32.5 0C29.9153 0 27.8125 2.10281 27.8125 4.6875C27.8125 5.91742 28.2893 7.03758 29.067 7.87461C26.6982 9.11578 25.0781 11.5987 25.0781 14.4531V15.2959C24.5875 14.8348 24.0345 14.4398 23.433 14.1246C24.2107 13.2876 24.6875 12.1674 24.6875 10.9375C24.6875 8.35281 22.5847 6.25 20 6.25C17.4153 6.25 15.3125 8.35281 15.3125 10.9375C15.3125 12.1674 15.7893 13.2876 16.567 14.1246C14.1982 15.3658 12.5781 17.8487 12.5781 20.7031V21.5459C12.0875 21.0848 11.5345 20.6898 10.933 20.3746C11.7107 19.5376 12.1875 18.4174 12.1875 17.1875C12.1875 14.6028 10.0847 12.5 7.5 12.5C4.91531 12.5 2.8125 14.6028 2.8125 17.1875C2.8125 18.4174 3.2893 19.5376 4.06695 20.3746C1.6982 21.6158 0.078125 24.0987 0.078125 26.9531V38.8281C0.078125 39.4753 0.602812 40 1.25 40H38.75C39.3972 40 39.9219 39.4753 39.9219 38.8281V14.4531C39.9219 11.5987 38.3018 9.11578 35.933 7.87461ZM30.1562 4.6875C30.1562 3.39516 31.2077 2.34375 32.5 2.34375C33.7923 2.34375 34.8438 3.39516 34.8438 4.6875C34.8438 5.97984 33.7923 7.03125 32.5 7.03125C31.2077 7.03125 30.1562 5.97984 30.1562 4.6875ZM32.5 9.375C35.1687 9.375 37.3631 11.4442 37.5633 14.0625H27.4367C27.6369 11.4442 29.8313 9.375 32.5 9.375ZM17.6562 10.9375C17.6562 9.64516 18.7077 8.59375 20 8.59375C21.2923 8.59375 22.3438 9.64516 22.3438 10.9375C22.3438 12.2298 21.2923 13.2812 20 13.2812C18.7077 13.2812 17.6562 12.2298 17.6562 10.9375ZM20 15.625C22.6687 15.625 24.8631 17.6942 25.0633 20.3125H14.9367C15.1369 17.6942 17.3313 15.625 20 15.625ZM5.15625 17.1875C5.15625 15.8952 6.20766 14.8438 7.5 14.8438C8.79234 14.8438 9.84375 15.8952 9.84375 17.1875C9.84375 18.4798 8.79234 19.5312 7.5 19.5312C6.20766 19.5312 5.15625 18.4798 5.15625 17.1875ZM7.5 21.875C10.1687 21.875 12.3631 23.9442 12.5633 26.5625H2.43672C2.63688 23.9442 4.83133 21.875 7.5 21.875ZM37.5781 37.6562H2.42188V28.9062H13.75C14.3972 28.9062 14.9219 28.3816 14.9219 27.7344V22.6562H26.25C26.8972 22.6562 27.4219 22.1316 27.4219 21.4844V16.4062H37.5781V37.6562Z" fill="#37ABFF"/>
</svg>
