<svg width="32" height="32" viewBox="0 0 32 32" fill="none" xmlns="http://www.w3.org/2000/svg">
<path fill-rule="evenodd" clip-rule="evenodd" d="M16 32C24.8366 32 32 24.8366 32 16C32 7.16344 24.8366 0 16 0C7.16344 0 0 7.16344 0 16C0 24.8366 7.16344 32 16 32ZM18.3518 26.0465H21.8215V5.95348H16.7707C11.6981 5.95348 9.01902 8.58103 9.01902 12.4451C9.01902 15.5363 10.4903 17.369 13.1035 19.2458L8.55787 26.0465H12.313L17.3637 18.4288L15.6069 17.2365C13.4768 15.8013 12.4447 14.6752 12.4447 12.2464C12.4447 10.1046 13.938 8.66935 16.7927 8.66935H18.3518V26.0465Z" fill="#FC3F1D"/>
</svg>
