<svg width="40" height="40" viewBox="0 0 40 40" fill="none" xmlns="http://www.w3.org/2000/svg">
<path d="M39.3135 14.5959L37.3572 12.6396C36.4434 11.7257 34.9565 11.7259 34.0426 12.6396L29.9219 16.7603V3.51562C29.9219 1.57711 28.3448 0 26.4062 0H3.51562C1.57711 0 0 1.57711 0 3.51562V36.4844C0 38.4229 1.57711 40 3.51562 40H26.4062C28.3448 40 29.9219 38.4229 29.9219 36.4844V27.1849L39.3135 17.9105C40.2273 16.9967 40.2273 15.5098 39.3135 14.5959ZM25.298 28.4571L21.7728 30.1023L23.4163 26.5805L32.1644 17.8325L34.0985 19.7666L25.298 28.4571ZM27.5781 36.4844C27.5781 37.1305 27.0524 37.6562 26.4062 37.6562H3.51562C2.86945 37.6562 2.34375 37.1305 2.34375 36.4844V3.51562C2.34375 2.86945 2.86945 2.34375 3.51562 2.34375H26.4062C27.0524 2.34375 27.5781 2.86945 27.5781 3.51562V19.1041C21.0798 25.6024 21.5041 25.1355 21.3797 25.4022L18.2861 32.0314C18.0777 32.478 18.1709 33.0072 18.5194 33.3556C18.8678 33.7041 19.3972 33.7973 19.8436 33.5889L26.4728 30.4952C26.7159 30.3818 26.7559 30.3113 27.5781 29.4993V36.4844ZM35.7661 18.1198L33.8216 16.1752L35.6999 14.2969L37.6556 16.2538L35.7661 18.1198Z" fill="#2C9AEA"/>
<path d="M6.25 9.92188H23.75C24.3972 9.92188 24.9219 9.39719 24.9219 8.75C24.9219 8.10281 24.3972 7.57812 23.75 7.57812H6.25C5.60281 7.57812 5.07812 8.10281 5.07812 8.75C5.07812 9.39719 5.60281 9.92188 6.25 9.92188Z" fill="#2C9AEA"/>
<path d="M6.25 16.1719H20C20.6472 16.1719 21.1719 15.6472 21.1719 15C21.1719 14.3528 20.6472 13.8281 20 13.8281H6.25C5.60281 13.8281 5.07812 14.3528 5.07812 15C5.07812 15.6472 5.60281 16.1719 6.25 16.1719Z" fill="#2C9AEA"/>
<path d="M16.25 20.0781H6.25C5.60281 20.0781 5.07812 20.6028 5.07812 21.25C5.07812 21.8972 5.60281 22.4219 6.25 22.4219H16.25C16.8972 22.4219 17.4219 21.8972 17.4219 21.25C17.4219 20.6028 16.8972 20.0781 16.25 20.0781Z" fill="#2C9AEA"/>
</svg>
