<svg width="32" height="32" viewBox="0 0 32 32" fill="none" xmlns="http://www.w3.org/2000/svg">
<path d="M31.66 16.3597C31.66 15.3063 31.5666 14.3063 31.4066 13.333H16.34V19.3463H24.9666C24.58 21.3197 23.4466 22.9864 21.7666 24.1197V28.1197H26.9133C29.9266 25.333 31.66 21.2263 31.66 16.3597Z" fill="#4285F4"/>
<path d="M16.3405 32.0004C20.6605 32.0004 24.2739 30.5604 26.9139 28.1204L21.7672 24.1204C20.3272 25.0804 18.5005 25.6671 16.3405 25.6671C12.1672 25.6671 8.63388 22.8537 7.36722 19.0537H2.06055V23.1737C4.68721 28.4004 10.0872 32.0004 16.3405 32.0004Z" fill="#34A853"/>
<path d="M7.36663 19.0538C7.0333 18.0938 6.85996 17.0671 6.85996 16.0005C6.85996 14.9338 7.04663 13.9072 7.36663 12.9471V8.82715H2.05996C0.966631 10.9871 0.339966 13.4138 0.339966 16.0005C0.339966 18.5871 0.966631 21.0138 2.05996 23.1738L7.36663 19.0538Z" fill="#FBBC05"/>
<path d="M16.3405 6.33333C18.7005 6.33333 20.8072 7.14667 22.4739 8.73334L27.0339 4.17334C24.2739 1.58667 20.6605 0 16.3405 0C10.0872 0 4.68721 3.6 2.06055 8.82667L7.36721 12.9467C8.63388 9.14667 12.1672 6.33333 16.3405 6.33333Z" fill="#EA4335"/>
</svg>
