<svg width="40" height="40" viewBox="0 0 40 40" fill="none" xmlns="http://www.w3.org/2000/svg">
<path d="M38.8281 18.828H38.1171V18.7447C38.1171 15.8184 36.4725 13.4673 34.3298 12.2615C35.4959 11.2407 36.2344 9.74323 36.2344 8.07544C36.2344 5.0069 33.7378 2.51025 30.6693 2.51025C27.6007 2.51025 25.1041 5.0069 25.1041 8.07544C25.1041 9.74323 25.8426 11.2407 27.0084 12.2615C24.8608 13.4694 23.2214 15.8263 23.2214 18.7447V18.828H12.8525C11.7761 18.0397 10.4504 17.5728 9.01703 17.5728C5.42938 17.5728 2.51038 20.4915 2.51038 24.0795C2.51038 26.1928 3.52386 28.0736 5.09003 29.2629C2.07092 30.8095 0 33.954 0 37.5728V38.828C0 39.4753 0.524597 39.9999 1.17188 39.9999H17.4896C18.1369 39.9999 18.6615 39.4753 18.6615 38.828V37.5728C18.6615 36.6732 18.533 35.8028 18.2944 34.9791H37.6562V36.3176C37.6562 36.9646 38.1808 37.4895 38.8281 37.4895C39.4754 37.4895 40 36.9646 40 36.3176V19.9999C40 19.3526 39.4754 18.828 38.8281 18.828ZM27.4478 8.07544C27.4478 6.29932 28.8928 4.854 30.6693 4.854C32.4454 4.854 33.8907 6.29932 33.8907 8.07544C33.8907 9.85156 32.4457 11.2969 30.6693 11.2969C28.8931 11.2969 27.4478 9.85156 27.4478 8.07544ZM25.5652 18.7447C25.5652 15.8812 27.8964 13.6406 30.6693 13.6406C33.4341 13.6406 35.7733 15.873 35.7733 18.7447V18.828H25.5652V18.7447ZM9.01703 19.9166C11.3123 19.9166 13.1796 21.7839 13.1796 24.0795C13.1796 26.3747 11.3123 28.2421 9.01703 28.2421C6.7215 28.2421 4.85413 26.3747 4.85413 24.0795C4.85413 21.7839 6.7215 19.9166 9.01703 19.9166ZM16.3177 37.6561H2.34375V37.5728C2.34375 33.7203 5.47821 30.5858 9.33075 30.5858C13.1833 30.5858 16.3177 33.7203 16.3177 37.5728V37.6561ZM13.1812 29.074C14.6115 27.8795 15.5234 26.0842 15.5234 24.0795C15.5234 23.0345 15.2747 22.0476 14.8352 21.1718H37.6562V32.6354H17.2446C16.2732 31.0845 14.8596 29.8375 13.1812 29.074Z" fill="#37ABFF"/>
<path d="M4.31 15.5234H21.2552C22.189 15.5234 22.749 14.4797 22.2302 13.7015L19.9167 10.2313V4.31C19.9167 1.94763 18.0109 0 15.6067 0H4.31C1.91864 0 0 1.93573 0 4.31V11.2137C0 13.5825 1.91162 15.5234 4.31 15.5234ZM2.34375 4.31C2.34375 3.2373 3.20679 2.34375 4.31 2.34375H15.6067C16.6989 2.34375 17.5729 3.22266 17.5729 4.31V10.5859C17.5729 10.8173 17.6413 11.0434 17.7698 11.236L19.0656 13.1796H4.31C3.21777 13.1796 2.34375 12.3007 2.34375 11.2134V4.31Z" fill="#37ABFF"/>
<path d="M6.19141 6.7373H13.7228C14.3698 6.7373 14.8947 6.2124 14.8947 5.56543C14.8947 4.91815 14.3698 4.39355 13.7228 4.39355H6.19141C5.54443 4.39355 5.01953 4.91815 5.01953 5.56543C5.01953 6.2124 5.54413 6.7373 6.19141 6.7373Z" fill="#37ABFF"/>
<path d="M6.19141 11.1304H9.95728C10.6042 11.1304 11.1292 10.6055 11.1292 9.9585C11.1292 9.31122 10.6042 8.78662 9.95728 8.78662H6.19141C5.54443 8.78662 5.01953 9.31122 5.01953 9.9585C5.01953 10.6055 5.54413 11.1304 6.19141 11.1304Z" fill="#37ABFF"/>
</svg>
