<svg width="40" height="40" viewBox="0 0 40 40" fill="none" xmlns="http://www.w3.org/2000/svg">
<path d="M35.2953 5.64686C35.2953 3.17627 33.2953 1.17627 30.8247 1.17627H9.17762C6.70703 1.17627 4.70703 3.17627 4.70703 5.64686V34.3527C4.70703 36.8233 6.70703 38.8233 9.17762 38.8233H30.8247C33.2953 38.8233 35.2953 36.8233 35.2953 34.3527V5.64686ZM32.9423 34.3527C32.9423 35.5292 32.0011 36.4704 30.8247 36.4704H9.17762C8.00115 36.4704 7.05997 35.5292 7.05997 34.3527V5.64686C7.05997 4.47039 8.00115 3.52921 9.17762 3.52921H30.8247C32.0011 3.52921 32.9423 4.47039 32.9423 5.64686V34.3527Z" fill="#37ABFF"/>
<path d="M12.8249 22.3527H26.7073C27.0602 22.3527 27.4132 22.235 27.6485 21.8821C27.8837 21.6468 28.0014 21.2939 27.8837 20.9409C27.4132 18.1174 25.6485 15.8821 23.2955 14.8233C24.0014 13.9997 24.472 12.9409 24.472 11.6468C24.472 9.05856 22.3543 6.94092 19.7661 6.94092C17.1779 6.94092 15.0602 9.05856 15.0602 11.6468C15.0602 12.8233 15.5308 13.8821 16.2367 14.8233C13.8837 15.9997 12.0014 18.235 11.6484 20.9409C11.6484 21.2939 11.6484 21.6468 11.8837 21.8821C12.119 22.235 12.472 22.3527 12.8249 22.3527ZM17.4131 11.7644C17.4131 10.4703 18.472 9.41151 19.7661 9.41151C21.0602 9.41151 22.119 10.4703 22.119 11.7644C22.119 13.0586 21.0602 14.1174 19.7661 14.1174C18.472 14.1174 17.4131 13.0586 17.4131 11.7644ZM19.7661 16.4703C22.119 16.4703 24.2367 17.8821 25.1779 19.9997H14.3543C15.2955 17.8821 17.4131 16.4703 19.7661 16.4703Z" fill="#37ABFF"/>
<path d="M29.4141 25.8823H10.5905C9.88465 25.8823 9.41406 26.3529 9.41406 27.0588C9.41406 27.7647 9.88465 28.2353 10.5905 28.2353H29.4141C30.1199 28.2353 30.5905 27.7647 30.5905 27.0588C30.5905 26.3529 30.1199 25.8823 29.4141 25.8823Z" fill="#37ABFF"/>
<path d="M29.4141 30.5879H10.5905C9.88465 30.5879 9.41406 31.0585 9.41406 31.7644C9.41406 32.4702 9.88465 32.9408 10.5905 32.9408H29.4141C30.1199 32.9408 30.5905 32.4702 30.5905 31.7644C30.5905 31.0585 30.1199 30.5879 29.4141 30.5879Z" fill="#37ABFF"/>
</svg>
