<svg width="40" height="40" viewBox="0 0 40 40" fill="none" xmlns="http://www.w3.org/2000/svg">
<g clip-path="url(#clip0_1_14393)">
<path d="M24.7656 0C16.3654 0 9.53126 6.83414 9.53126 15.2344C9.53126 19.0136 10.915 22.4754 13.2019 25.1409L10.5531 27.7897C9.24649 27.1673 7.63267 27.3955 6.55235 28.4758L1.02806 34.0001C-0.342725 35.3709 -0.342646 37.6012 1.02806 38.972C2.39876 40.3427 4.62915 40.3427 5.99993 38.972L11.5242 33.4477C12.6045 32.3674 12.8327 30.7535 12.2103 29.447L14.8592 26.7981C17.5246 29.085 20.9864 30.4688 24.7656 30.4688C33.1659 30.4688 40 23.6346 40 15.2344C40 6.83414 33.1659 0 24.7656 0V0ZM9.86688 31.7904L4.34259 37.3146C3.88563 37.7716 3.1422 37.7716 2.68532 37.3146C2.22837 36.8577 2.22837 36.1143 2.68532 35.6573L8.20962 30.133C8.66563 29.677 9.40696 29.6763 9.86407 30.1305C9.86501 30.1314 9.86571 30.1324 9.86657 30.1334C9.86751 30.1343 9.86845 30.135 9.86938 30.1359C10.3237 30.593 10.323 31.3344 9.86688 31.7904ZM24.7656 28.125C17.6577 28.125 11.875 22.3423 11.875 15.2344C11.875 8.12648 17.6577 2.34375 24.7656 2.34375C31.8735 2.34375 37.6563 8.12648 37.6563 15.2344C37.6563 22.3423 31.8735 28.125 24.7656 28.125Z" fill="#37ABFF"/>
<path d="M29.0211 14.5684C30.0141 13.5181 30.625 12.1029 30.625 10.5469C30.625 7.31602 27.9965 4.6875 24.7656 4.6875C21.5348 4.6875 18.9062 7.31602 18.9062 10.5469C18.9062 12.1029 19.5171 13.5181 20.5102 14.5684C17.7452 15.6488 15.7812 18.3414 15.7812 21.4844V22.2656C15.7812 22.9128 16.3059 23.4375 16.9531 23.4375H32.5781C33.2253 23.4375 33.75 22.9128 33.75 22.2656V21.4844C33.75 18.3414 31.7861 15.6488 29.0211 14.5684ZM24.7656 7.03125C26.7041 7.03125 28.2812 8.60836 28.2812 10.5469C28.2812 12.4854 26.7041 14.0625 24.7656 14.0625C22.8271 14.0625 21.25 12.4854 21.25 10.5469C21.25 8.60836 22.8271 7.03125 24.7656 7.03125ZM18.1398 21.0938C18.34 18.4755 20.5345 16.4062 23.2031 16.4062H26.3281C28.9968 16.4062 31.1912 18.4755 31.3914 21.0938H18.1398Z" fill="#37ABFF"/>
</g>
<defs>
<clipPath id="clip0_1_14393">
<rect width="40" height="40" fill="white"/>
</clipPath>
</defs>
</svg>
