<svg width="40" height="40" viewBox="0 0 40 40" fill="none" xmlns="http://www.w3.org/2000/svg">
<g clip-path="url(#clip0_1_14435)">
<path d="M33.724 10.8796V1.34521H6.27604V10.8796L0 15.3625V38.6549H40V15.3625L33.724 10.8796ZM14.2182 26.7243L2.34376 35.2059V18.2427L14.2182 26.7243ZM20 25.4748L35.1712 36.3111H4.82877L20 25.4748ZM25.7818 26.7243L37.6562 18.2427V35.2058L25.7818 26.7243ZM36.8119 15.9655L33.724 18.1711V13.7599L36.8119 15.9655ZM31.3802 3.68897V19.8453L23.7656 25.2842L20 22.5945L16.2344 25.2842L8.6198 19.8453V3.68897H31.3802ZM6.27604 18.1712L3.18806 15.9656L6.27604 13.76V18.1712Z" fill="#05B2BA"/>
<path d="M11.9316 6.72461H20.0006V9.06836H11.9316V6.72461Z" fill="#05B2BA"/>
<path d="M11.9316 12.104H28.0696V14.4477H11.9316V12.104Z" fill="#05B2BA"/>
<path d="M11.9316 17.4834H28.0696V19.8271H11.9316V17.4834Z" fill="#05B2BA"/>
</g>
<defs>
<clipPath id="clip0_1_14435">
<rect width="40" height="40" fill="white"/>
</clipPath>
</defs>
</svg>
