<svg width="40" height="40" viewBox="0 0 40 40" fill="none" xmlns="http://www.w3.org/2000/svg">
<path d="M36.4844 0H20H3.51562C1.57711 0 0 1.57711 0 3.51562V20V36.4844C0 38.4229 1.57711 40 3.51562 40H20H36.4844C38.4229 40 40 38.4229 40 36.4844V20V3.51562C40 1.57711 38.4229 0 36.4844 0ZM2.34375 3.51562C2.34375 2.86945 2.86945 2.34375 3.51562 2.34375H18.8281V8C18.8281 9.00813 20.024 9.54672 20.7786 8.87578C21.2099 8.49242 21.7658 8.28125 22.3438 8.28125C23.6361 8.28125 24.6875 9.33266 24.6875 10.625C24.6875 11.9173 23.6361 12.9688 22.3438 12.9688C21.7658 12.9688 21.2098 12.7576 20.7786 12.3742C20.0249 11.7042 18.8281 12.2404 18.8281 13.25V18.8281H15.1632C15.2609 18.4483 15.3125 18.055 15.3125 17.6562C15.3125 15.0716 13.2097 12.9688 10.625 12.9688C8.04031 12.9688 5.9375 15.0716 5.9375 17.6562C5.9375 18.055 5.98914 18.4483 6.0868 18.8281H2.34375V3.51562ZM18.8281 37.6562H3.51562C2.86945 37.6562 2.34375 37.1305 2.34375 36.4844V21.1719H8C8.00711 21.1719 8.01406 21.1709 8.02117 21.1708C8.04211 21.1704 8.06305 21.1691 8.08398 21.1676C9.03328 21.0995 9.51984 19.9727 8.88898 19.2376C8.88445 19.2323 8.88062 19.2266 8.87602 19.2214C8.48687 18.7838 8.28125 18.2425 8.28125 17.6562C8.28125 16.3639 9.33266 15.3125 10.625 15.3125C11.9173 15.3125 12.9688 16.3639 12.9688 17.6562C12.9688 18.2425 12.7631 18.7838 12.3741 19.2215C11.7041 19.9747 12.2433 21.1719 13.2496 21.1719C13.2497 21.1719 13.2498 21.1719 13.2498 21.1719C13.2499 21.1719 13.25 21.1719 13.2501 21.1719H18.8281V24.8356C18.4484 24.738 18.0549 24.6875 17.6562 24.6875C15.0716 24.6875 12.9688 26.7903 12.9688 29.375C12.9688 31.9597 15.0716 34.0625 17.6562 34.0625C18.055 34.0625 18.4484 34.0121 18.8281 33.9145V37.6562ZM37.6562 36.4844C37.6562 37.1305 37.1305 37.6562 36.4844 37.6562H21.1719V32C21.1719 30.9916 19.9762 30.4534 19.2215 31.1241C18.7838 31.5131 18.2425 31.7188 17.6562 31.7188C16.3639 31.7188 15.3125 30.6673 15.3125 29.375C15.3125 28.0827 16.3639 27.0312 17.6562 27.0312C18.2425 27.0312 18.7838 27.2369 19.2215 27.6259C19.9752 28.2958 21.1719 27.7595 21.1719 26.75V21.1562H24.8368C24.7391 21.5361 24.6875 21.945 24.6875 22.3438C24.6875 24.9284 26.7903 27.0312 29.375 27.0312C31.9597 27.0312 34.0625 24.9284 34.0625 22.3438C34.0625 21.945 34.0109 21.5517 33.9132 21.1719H37.6562V36.4844ZM37.6562 18.8438C31.2989 18.8438 32.0643 18.8434 31.9794 18.8448C30.9914 18.8623 30.4539 20.0229 31.1241 20.7786C31.5076 21.2099 31.7188 21.7658 31.7188 22.3438C31.7188 23.6361 30.6673 24.6875 29.375 24.6875C28.0827 24.6875 27.0312 23.6361 27.0312 22.3438C27.0312 21.7843 27.2166 21.2541 27.6388 20.7625C28.2872 20.0091 27.7542 18.8466 26.7706 18.8291C26.7637 18.8291 26.757 18.8281 26.75 18.8281H21.1719V15.1645C21.5516 15.2621 21.945 15.3125 22.3438 15.3125C24.9284 15.3125 27.0312 13.2097 27.0312 10.625C27.0312 8.04031 24.9284 5.9375 22.3438 5.9375C21.945 5.9375 21.5516 5.98797 21.1719 6.08555V2.34375H36.4844C37.1305 2.34375 37.6562 2.86945 37.6562 3.51562V18.8438Z" fill="#478478"/>
</svg>
