<svg width="32" height="32" viewBox="0 0 32 32" fill="none" xmlns="http://www.w3.org/2000/svg">
<path d="M29.7337 31.4487C30.6805 31.4487 31.4356 30.6814 31.4356 29.7462V2.25427C31.4356 1.3071 30.6685 0.551758 29.7337 0.551758H2.25204C1.31721 0.551758 0.550171 1.31909 0.550171 2.25427V29.7462C0.550171 30.6934 1.31721 31.4487 2.25204 31.4487H29.7337Z" fill="#157DC3"/>
<path d="M21.8609 31.4489V19.4833H25.8759L26.4752 14.8194H21.8609V11.846C21.8609 10.4912 22.2325 9.58 24.174 9.58H26.6429V5.39566C26.2115 5.33572 24.7493 5.21582 23.0474 5.21582C19.4879 5.21582 17.0549 7.38592 17.0549 11.3784V14.8194H13.028V19.4833H17.0549V31.4489H21.8609Z" fill="white"/>
</svg>
