<svg width="40" height="40" viewBox="0 0 40 40" fill="none" xmlns="http://www.w3.org/2000/svg">
<g clip-path="url(#clip0_353_3640)">
<path d="M22.5007 40.0002H17.5007C16.334 40.0002 15.0007 39.0002 15.0007 37.0002V33.5002C15.0007 31.8335 14.1673 30.3335 12.834 29.1668C9.83398 26.8335 8.33398 23.5002 8.33398 19.8335C8.50065 13.5002 13.6673 8.50016 19.834 8.3335C23.0007 8.3335 26.0007 9.50016 28.1673 11.6668C30.334 13.8335 31.6673 16.8335 31.6673 20.0002C31.6673 23.5002 30.1673 26.8335 27.334 29.0002C25.834 30.1668 25.0007 32.0002 25.0007 33.6668V37.5002C25.0007 38.8335 23.834 40.0002 22.5007 40.0002ZM20.0007 10.0002C14.6673 10.0002 10.1673 14.5002 10.0007 19.8335C10.0007 23.0002 11.334 26.0002 13.834 27.8335C15.6673 29.3335 16.6673 31.3335 16.6673 33.5002V37.0002C16.6673 37.3335 16.6673 38.3335 17.5007 38.3335H22.5007C23.0007 38.3335 23.334 38.0002 23.334 37.5002V33.6668C23.334 31.5002 24.5007 29.1668 26.334 27.6668C28.6673 25.8335 30.0007 23.0002 30.0007 20.0002C30.0007 17.3335 29.0007 14.8335 27.0007 12.8335C25.1673 11.0002 22.6673 10.0002 20.0007 10.0002Z" fill="#0089EC"/>
<path d="M24.1667 35.0002H15.8333C15.3333 35.0002 15 34.6668 15 34.1668C15 33.6668 15.3333 33.3335 15.8333 33.3335H24.1667C24.6667 33.3335 25 33.6668 25 34.1668C25 34.6668 24.6667 35.0002 24.1667 35.0002Z" fill="#0089EC"/>
<path d="M19.9994 5C19.4993 5 19.166 4.66667 19.166 4.16667V0.833333C19.166 0.333333 19.4993 0 19.9994 0C20.4994 0 20.8327 0.333333 20.8327 0.833333V4.16667C20.8327 4.66667 20.4994 5 19.9994 5Z" fill="#0089EC"/>
<path d="M31.1676 9.66667C31.001 9.66667 30.6676 9.66666 30.501 9.5C30.1676 9.16667 30.1676 8.66667 30.501 8.33333L32.8343 6C33.1676 5.66667 33.6676 5.66667 34.001 6C34.3343 6.33333 34.3343 6.83333 34.001 7.16667L31.6676 9.5C31.6676 9.5 31.3343 9.66667 31.1676 9.66667Z" fill="#0089EC"/>
<path d="M39.1667 20.8332H35.8333C35.3333 20.8332 35 20.4998 35 19.9998C35 19.4998 35.3333 19.1665 35.8333 19.1665H39.1667C39.6667 19.1665 40 19.4998 40 19.9998C40 20.4998 39.6667 20.8332 39.1667 20.8332Z" fill="#0089EC"/>
<path d="M33.501 34.3332C33.3343 34.3332 33.001 34.3332 32.8343 34.1665L30.501 31.8332C30.1676 31.4998 30.1676 30.9998 30.501 30.6665C30.8343 30.3332 31.3343 30.3332 31.6676 30.6665L34.001 32.9998C34.3343 33.3332 34.3343 33.8332 34.001 34.1665C34.001 34.3332 33.8343 34.3332 33.501 34.3332Z" fill="#0089EC"/>
<path d="M6.50065 34.3332C6.33398 34.3332 6.00065 34.3332 5.83398 34.1665C5.50065 33.8332 5.50065 33.3332 5.83398 32.9998L8.16732 30.6665C8.50065 30.3332 9.00065 30.3332 9.33398 30.6665C9.66732 30.9998 9.66732 31.4998 9.33398 31.8332L7.00065 34.1665C6.83398 34.3332 6.66732 34.3332 6.50065 34.3332Z" fill="#0089EC"/>
<path d="M4.16667 20.8332H0.833333C0.333333 20.8332 0 20.4998 0 19.9998C0 19.4998 0.333333 19.1665 0.833333 19.1665H4.16667C4.66667 19.1665 5 19.4998 5 19.9998C5 20.4998 4.66667 20.8332 4.16667 20.8332Z" fill="#0089EC"/>
<path d="M8.83398 9.66683C8.66732 9.66683 8.33398 9.66683 8.16732 9.50016L5.83398 7.00016C5.50065 6.66683 5.50065 6.16683 5.83398 5.8335C6.16732 5.50016 6.66732 5.50016 7.00065 5.8335L9.33398 8.16683C9.66732 8.50016 9.66732 9.00016 9.33398 9.3335C9.16732 9.50016 9.00065 9.66683 8.83398 9.66683Z" fill="#0089EC"/>
<path d="M26.666 20.8333C26.166 20.8333 25.8327 20.5 25.8327 20C25.8327 16.8333 23.166 14.1667 19.9993 14.1667C19.4993 14.1667 19.166 13.8333 19.166 13.3333C19.166 12.8333 19.4993 12.5 19.9993 12.5C24.166 12.5 27.4994 15.8333 27.4994 20C27.4994 20.5 27.166 20.8333 26.666 20.8333Z" fill="#0089EC"/>
</g>
<defs>
<clipPath id="clip0_353_3640">
<rect width="40" height="40" fill="white"/>
</clipPath>
</defs>
</svg>
