<svg width="40" height="40" viewBox="0 0 40 40" fill="none" xmlns="http://www.w3.org/2000/svg">
<g clip-path="url(#clip0_1_21821)">
<path d="M23.75 35H16.25C15.56 35 15 34.44 15 33.75C15 33.06 15.56 32.5 16.25 32.5H23.75C24.44 32.5 25 33.06 25 33.75C25 34.44 24.44 35 23.75 35Z" fill="url(#paint0_linear_1_21821)"/>
<path d="M20 5.76167C19.31 5.76167 18.75 5.20167 18.75 4.51167V1.25C18.75 0.56 19.31 0 20 0C20.69 0 21.25 0.56 21.25 1.25V4.51167C21.25 5.20167 20.69 5.76167 20 5.76167Z" fill="url(#paint1_linear_1_21821)"/>
<path d="M30.9527 10.2981C30.6327 10.2981 30.3127 10.1765 30.0694 9.93148C29.581 9.44315 29.581 8.65148 30.0694 8.16315L32.376 5.85648C32.8644 5.36815 33.656 5.36815 34.1444 5.85648C34.6327 6.34482 34.6327 7.13648 34.1444 7.62482L31.8377 9.93148C31.5927 10.1748 31.2727 10.2981 30.9527 10.2981Z" fill="url(#paint2_linear_1_21821)"/>
<path d="M38.7499 21.25H35.4883C34.7983 21.25 34.2383 20.69 34.2383 20C34.2383 19.31 34.7983 18.75 35.4883 18.75H38.7499C39.4399 18.75 39.9999 19.31 39.9999 20C39.9999 20.69 39.4399 21.25 38.7499 21.25Z" fill="url(#paint3_linear_1_21821)"/>
<path d="M33.2594 34.5081C32.9394 34.5081 32.6194 34.3864 32.376 34.1414L30.0694 31.8348C29.581 31.3464 29.581 30.5548 30.0694 30.0664C30.5577 29.5781 31.3494 29.5781 31.8377 30.0664L34.1444 32.3731C34.6327 32.8614 34.6327 33.6531 34.1444 34.1414C33.8994 34.3864 33.5794 34.5081 33.2594 34.5081Z" fill="url(#paint4_linear_1_21821)"/>
<path d="M6.74177 34.5081C6.42177 34.5081 6.10177 34.3864 5.85844 34.1414C5.3701 33.6531 5.3701 32.8614 5.85844 32.3731L8.1651 30.0664C8.65343 29.5781 9.4451 29.5781 9.93343 30.0664C10.4218 30.5548 10.4218 31.3464 9.93343 31.8348L7.62677 34.1414C7.38177 34.3864 7.06177 34.5081 6.74177 34.5081Z" fill="url(#paint5_linear_1_21821)"/>
<path d="M4.51167 21.25H1.25C0.56 21.25 0 20.69 0 20C0 19.31 0.56 18.75 1.25 18.75H4.51167C5.20167 18.75 5.76167 19.31 5.76167 20C5.76167 20.69 5.20167 21.25 4.51167 21.25Z" fill="url(#paint6_linear_1_21821)"/>
<path d="M9.04843 10.2981C8.72843 10.2981 8.40843 10.1765 8.1651 9.93148L5.85844 7.62482C5.3701 7.13648 5.3701 6.34482 5.85844 5.85648C6.34677 5.36815 7.13844 5.36815 7.62677 5.85648L9.93343 8.16315C10.4218 8.65148 10.4218 9.44315 9.93343 9.93148C9.68676 10.1748 9.36843 10.2981 9.04843 10.2981Z" fill="url(#paint7_linear_1_21821)"/>
<path d="M26.2513 20.8333C25.5613 20.8333 25.0013 20.2733 25.0013 19.5833C25.0013 17.055 22.9463 15 20.418 15C19.728 15 19.168 14.44 19.168 13.75C19.168 13.06 19.728 12.5 20.418 12.5C24.323 12.5 27.5013 15.6783 27.5013 19.5833C27.5013 20.2733 26.9413 20.8333 26.2513 20.8333Z" fill="url(#paint8_linear_1_21821)"/>
<path d="M22.0837 39.9998H17.9171C16.5121 39.9998 15.0004 38.9332 15.0004 36.5932V33.6532C15.0004 31.8848 14.2471 30.2615 12.9854 29.3115C9.34374 26.5698 7.65874 22.0598 8.58707 17.5415C9.49541 13.1148 13.0771 9.51983 17.4987 8.59483C21.0137 7.8565 24.6121 8.7115 27.3554 10.9415C30.0954 13.1682 31.6671 16.4698 31.6671 19.9998C31.6671 23.5965 30.0421 26.9348 27.2087 29.1632C25.8054 30.2665 25.0004 31.8032 25.0004 33.3782V37.0832C25.0004 38.6915 23.6921 39.9998 22.0837 39.9998ZM19.9771 10.8365C19.3237 10.8365 18.6654 10.9048 18.0071 11.0415C14.5471 11.7648 11.7454 14.5782 11.0337 18.0432C10.3021 21.6048 11.6254 25.1582 14.4871 27.3132C16.3721 28.7332 17.4987 31.1032 17.4987 33.6532V36.5932C17.4987 36.7448 17.5187 37.4998 17.9154 37.4998H22.0821C22.3121 37.4998 22.4987 37.3132 22.4987 37.0832V33.3782C22.4987 31.0298 23.6521 28.7782 25.6621 27.1965C27.8904 25.4465 29.1671 22.8232 29.1671 19.9998C29.1671 17.2265 27.9304 14.6315 25.7771 12.8815C24.1304 11.5448 22.0887 10.8365 19.9771 10.8365Z" fill="url(#paint9_linear_1_21821)"/>
</g>
<defs>
<linearGradient id="paint0_linear_1_21821" x1="20" y1="32.5" x2="20" y2="35" gradientUnits="userSpaceOnUse">
<stop stop-color="#50C5FF"/>
<stop offset="1" stop-color="#37ABFF"/>
</linearGradient>
<linearGradient id="paint1_linear_1_21821" x1="20" y1="0" x2="20" y2="5.76167" gradientUnits="userSpaceOnUse">
<stop stop-color="#50C5FF"/>
<stop offset="1" stop-color="#37ABFF"/>
</linearGradient>
<linearGradient id="paint2_linear_1_21821" x1="32.1069" y1="5.49023" x2="32.1069" y2="10.2981" gradientUnits="userSpaceOnUse">
<stop stop-color="#50C5FF"/>
<stop offset="1" stop-color="#37ABFF"/>
</linearGradient>
<linearGradient id="paint3_linear_1_21821" x1="37.1191" y1="18.75" x2="37.1191" y2="21.25" gradientUnits="userSpaceOnUse">
<stop stop-color="#50C5FF"/>
<stop offset="1" stop-color="#37ABFF"/>
</linearGradient>
<linearGradient id="paint4_linear_1_21821" x1="32.1069" y1="29.7002" x2="32.1069" y2="34.5081" gradientUnits="userSpaceOnUse">
<stop stop-color="#50C5FF"/>
<stop offset="1" stop-color="#37ABFF"/>
</linearGradient>
<linearGradient id="paint5_linear_1_21821" x1="7.89593" y1="29.7002" x2="7.89593" y2="34.5081" gradientUnits="userSpaceOnUse">
<stop stop-color="#50C5FF"/>
<stop offset="1" stop-color="#37ABFF"/>
</linearGradient>
<linearGradient id="paint6_linear_1_21821" x1="2.88083" y1="18.75" x2="2.88083" y2="21.25" gradientUnits="userSpaceOnUse">
<stop stop-color="#50C5FF"/>
<stop offset="1" stop-color="#37ABFF"/>
</linearGradient>
<linearGradient id="paint7_linear_1_21821" x1="7.89593" y1="5.49023" x2="7.89593" y2="10.2981" gradientUnits="userSpaceOnUse">
<stop stop-color="#50C5FF"/>
<stop offset="1" stop-color="#37ABFF"/>
</linearGradient>
<linearGradient id="paint8_linear_1_21821" x1="23.3346" y1="12.5" x2="23.3346" y2="20.8333" gradientUnits="userSpaceOnUse">
<stop stop-color="#50C5FF"/>
<stop offset="1" stop-color="#37ABFF"/>
</linearGradient>
<linearGradient id="paint9_linear_1_21821" x1="20.0015" y1="8.33545" x2="20.0015" y2="39.9998" gradientUnits="userSpaceOnUse">
<stop stop-color="#50C5FF"/>
<stop offset="1" stop-color="#37ABFF"/>
</linearGradient>
<clipPath id="clip0_1_21821">
<rect width="40" height="40" fill="white"/>
</clipPath>
</defs>
</svg>
