<svg width="40" height="40" viewBox="0 0 40 40" fill="none" xmlns="http://www.w3.org/2000/svg">
<g clip-path="url(#clip0_1_21842)">
<path d="M35.787 23.7955C35.3126 23.3211 34.7313 22.9925 34.0976 22.8313C34.389 21.6242 34.0647 20.2975 33.1242 19.357C32.6406 18.8733 32.0547 18.5533 31.4355 18.3955C31.7106 17.2582 31.4561 15.9137 30.4608 14.9185C30.1269 14.5846 29.7441 14.3294 29.3354 14.1508L33.1248 10.3619C34.5618 8.92313 34.5644 6.5941 33.1242 5.15403C31.6858 3.71553 29.3565 3.71303 27.9158 5.15403L16.0956 16.9743L15.4043 13.9787C15.0074 12.2578 13.706 10.8862 12.0081 10.3994C10.3106 9.91235 8.48024 10.3859 7.23153 11.6352C7.23137 11.6353 7.23122 11.6355 7.23098 11.6357C7.01118 11.8557 6.88749 12.1545 6.88781 12.4656L6.90242 27.0442L3.48001 30.4667C3.02229 30.9244 3.02229 31.6665 3.48001 32.1242L11.0123 39.6566C11.2321 39.8764 11.5302 40 11.8411 40H22.7461C24.0647 40 25.3046 39.4861 26.2375 38.5533L35.7869 29.0039C37.2076 27.5844 37.2431 25.2496 35.787 23.7955ZM29.5733 21.0145C30.0969 20.4909 30.9439 20.4916 31.4667 21.0145C31.9886 21.5365 31.9886 22.3858 31.4667 22.9079L28.8033 25.5712C28.2789 26.0956 27.4318 26.0931 26.9102 25.5714C26.3882 25.0491 26.3881 24.1996 26.9099 23.6778L29.5733 21.0145ZM25.2524 22.0203C24.7305 22.5423 23.8811 22.542 23.3591 22.0203C22.8371 21.4983 22.8371 20.6489 23.3591 20.127L26.91 16.576C27.4324 16.0537 28.2817 16.0544 28.8033 16.576C29.3269 17.0996 29.326 17.9467 28.8033 18.4694C28.8032 18.4694 28.803 18.4697 28.8031 18.4696C28.8033 18.4694 25.2524 22.0203 25.2524 22.0203ZM24.5801 36.8956C24.097 37.3787 23.4286 37.6558 22.7462 37.6558H12.3266L5.96634 31.2954L8.90374 28.3579C9.12385 28.1378 9.24731 27.8393 9.24708 27.528L9.23254 13.0052C9.8467 12.5781 10.6283 12.4421 11.3619 12.6526C12.241 12.9047 12.9148 13.6146 13.1202 14.5055L14.2872 19.5619C14.3374 19.7793 14.4478 19.973 14.5999 20.1256C14.6001 20.126 15.488 21.0145 15.488 21.0145C17.4784 23.0048 17.4784 26.2435 15.488 28.2339C15.0303 28.6917 15.0303 29.4337 15.488 29.8914C15.9458 30.3493 16.688 30.3491 17.1456 29.8914C20.0499 26.9871 20.0499 22.2614 17.1456 19.357L17.0867 19.2982L29.5734 6.81148C30.109 6.27569 30.957 6.30179 31.4667 6.81156C31.9893 7.33406 31.9896 8.1813 31.4667 8.7049L21.7016 18.4694C20.2656 19.9053 20.2656 22.2418 21.7018 23.6781C22.3877 24.3635 23.2786 24.7207 24.1788 24.7515C24.2097 25.6517 24.567 26.5428 25.2524 27.2287C25.9378 27.9141 26.8282 28.2715 27.7281 28.3026C27.7598 29.2385 28.1381 30.1137 28.8028 30.7785C29.132 31.1082 29.5132 31.3667 29.9275 31.5485L24.5801 36.8956ZM34.1299 27.3458C34.1297 27.346 34.1295 27.3462 34.1293 27.3464L32.3537 29.122C31.8377 29.6387 30.989 29.6504 30.4608 29.1216C29.9341 28.5948 29.9421 27.7474 30.4612 27.2284L32.2366 25.453C32.7634 24.9262 33.6107 24.9344 34.1298 25.4536C34.6598 25.9826 34.6447 26.8316 34.1299 27.3458Z" fill="url(#paint0_linear_1_21842)"/>
<path d="M15.6096 7.35949C16.2568 7.35949 16.7816 6.83472 16.7816 6.18743V1.16587C16.7196 -0.38921 14.4988 -0.388038 14.4375 1.16587V6.18751C14.4375 6.8348 14.9623 7.35949 15.6096 7.35949Z" fill="url(#paint1_linear_1_21842)"/>
<path d="M9.7549 7.01594C10.2126 7.47374 10.9548 7.47359 11.4124 7.01594C11.8701 6.55821 11.8701 5.81614 11.4124 5.35841L10.1571 4.10306C9.69942 3.64533 8.95727 3.64533 8.49955 4.10306C8.04182 4.56079 8.04182 5.30286 8.49955 5.76058L9.7549 7.01594Z" fill="url(#paint2_linear_1_21842)"/>
<path d="M21.4579 7.01594L22.7132 5.76058C23.1709 5.30286 23.1709 4.56079 22.7132 4.10306C22.2556 3.64533 21.5134 3.64533 21.0557 4.10306L19.8003 5.35841C19.3426 5.81614 19.3426 6.55821 19.8003 7.01594C20.2581 7.47374 21.0002 7.47359 21.4579 7.01594Z" fill="url(#paint3_linear_1_21842)"/>
</g>
<defs>
<linearGradient id="paint0_linear_1_21842" x1="20.0013" y1="4.07422" x2="20.0013" y2="40" gradientUnits="userSpaceOnUse">
<stop stop-color="#50C5FF"/>
<stop offset="1" stop-color="#37ABFF"/>
</linearGradient>
<linearGradient id="paint1_linear_1_21842" x1="15.6096" y1="0" x2="15.6096" y2="7.35949" gradientUnits="userSpaceOnUse">
<stop stop-color="#50C5FF"/>
<stop offset="1" stop-color="#37ABFF"/>
</linearGradient>
<linearGradient id="paint2_linear_1_21842" x1="9.95598" y1="3.75977" x2="9.95598" y2="7.35923" gradientUnits="userSpaceOnUse">
<stop stop-color="#50C5FF"/>
<stop offset="1" stop-color="#37ABFF"/>
</linearGradient>
<linearGradient id="paint3_linear_1_21842" x1="21.2568" y1="3.75977" x2="21.2568" y2="7.35923" gradientUnits="userSpaceOnUse">
<stop stop-color="#50C5FF"/>
<stop offset="1" stop-color="#37ABFF"/>
</linearGradient>
<clipPath id="clip0_1_21842">
<rect width="40" height="40" fill="white"/>
</clipPath>
</defs>
</svg>
