<svg width="125" height="40" viewBox="0 0 125 40" fill="none" xmlns="http://www.w3.org/2000/svg">
<path fill-rule="evenodd" clip-rule="evenodd" d="M39.5205 0.692139H5.04851C2.56404 0.692139 0.623047 2.69215 0.623047 5.07676V29.3844C0.623047 31.7691 2.64168 33.7691 5.04851 33.7691H29.8932L37.6572 39.7691V33.7691H39.5205C41.9274 33.7691 43.946 31.7691 43.946 29.3844V5.07676C43.946 2.69215 41.9274 0.692139 39.5205 0.692139ZM7.92363 12.1535V22.7689C7.92363 22.9997 8.00128 23.2305 8.07892 23.3843C8.31184 23.5381 8.46711 23.6151 8.70003 23.6151H10.2528C10.4857 23.6151 10.7187 23.5381 10.8739 23.3843C11.0292 23.2305 11.1069 22.9997 11.1069 22.7689V14.3843L14.1348 22.7689C14.158 22.8033 14.1794 22.8361 14.1999 22.8673C14.3167 23.0456 14.4025 23.1765 14.6007 23.3074C14.7559 23.4612 14.9889 23.5382 15.2218 23.5382H16.464C16.6969 23.5382 16.8522 23.4612 17.0851 23.3074L17.0851 23.3074C17.2404 23.1535 17.3957 22.9997 17.4733 22.7689L20.5013 14.3843V22.7689C20.5013 22.9997 20.5789 23.2305 20.7342 23.3843C20.9671 23.5381 21.1224 23.6151 21.3553 23.6151H22.9081C23.141 23.6151 23.374 23.5381 23.5292 23.3843C23.6845 23.2305 23.7621 22.9997 23.7621 22.7689V12.1535C23.7621 11.9228 23.6845 11.692 23.5292 11.5381C23.374 11.3843 23.2187 11.3074 22.9858 11.3074H19.4143C19.1814 11.3074 19.0261 11.3843 18.7932 11.5381C18.6379 11.692 18.4826 11.8458 18.405 12.0766L15.8429 19.3843L13.2808 12.0766C13.2685 12.0522 13.2562 12.026 13.2433 11.9984C13.1747 11.8516 13.0886 11.6676 12.8926 11.5381C12.7373 11.3843 12.5044 11.3074 12.2715 11.3074H8.70003C8.46711 11.3074 8.31183 11.3843 8.15656 11.5381C8.00128 11.692 7.92363 11.9228 7.92363 12.1535ZM25.5479 11.3843C25.3926 11.3843 25.2373 11.4612 25.1597 11.6151C25.1597 11.6477 25.1597 11.6665 25.1537 11.6832C25.1457 11.7058 25.1267 11.7246 25.082 11.7689C25.082 11.8458 25.1597 11.9997 25.2373 12.1535L29.8181 19.2305V22.8458C29.8181 23.0766 29.8957 23.2305 30.051 23.3843C30.2062 23.5381 30.3615 23.6151 30.5944 23.6151H32.2249C32.4578 23.6151 32.6131 23.5381 32.7684 23.3843C32.9236 23.2305 33.0013 23.0766 33.0013 22.8458V19.2305L37.582 12.1535C37.6028 12.1123 37.6236 12.0766 37.6429 12.0435C37.6957 11.9529 37.7373 11.8815 37.7373 11.7689V11.6151C37.7373 11.4612 37.582 11.3843 37.3491 11.3843H35.7187C35.0976 11.4612 34.6317 11.692 34.2435 12.2304L31.4485 16.4612L28.6535 12.2304C28.3429 11.692 27.7994 11.3843 27.1783 11.3843H25.5479Z" fill="#F8FBFD"/>
<path fill-rule="evenodd" clip-rule="evenodd" d="M48.8359 23.0767V12.3075C48.8359 12.0767 48.9136 11.9228 49.0689 11.6921C49.2241 11.5382 49.4571 11.4613 49.6123 11.4613H56.8328C58.1527 11.4613 59.2397 11.8459 60.0937 12.5382C60.9477 13.2305 61.4136 14.2305 61.4136 15.3844C61.4136 17.0767 60.3266 18.1536 58.0751 18.5382C58.3856 18.6921 58.7738 18.9228 59.0068 19.2305C59.3173 19.5382 59.6279 19.9998 60.0161 20.6152L61.6465 23.1536C61.7241 23.3075 61.8018 23.4613 61.8018 23.6151C61.8018 23.6921 61.8018 23.6921 61.8018 23.769C61.7242 23.9228 61.5689 23.9998 61.336 23.9998H59.2397C59.0068 23.9998 58.7738 23.9228 58.5409 23.769C58.308 23.6151 58.0751 23.3844 57.9198 23.1536L56.4446 20.8459C55.8235 19.9228 55.1248 19.3844 54.1931 19.3844H52.0192V23.1536C52.0192 23.3844 51.9415 23.5382 51.7863 23.769C51.631 23.9228 51.3981 23.9998 51.2428 23.9998H49.69C49.4571 23.9998 49.3018 23.9228 49.0689 23.769C48.9136 23.4613 48.8359 23.3075 48.8359 23.0767ZM52.1745 16.9228H55.9012C56.5223 16.9228 56.9881 16.769 57.454 16.5382C57.9198 16.3075 58.1527 15.9228 58.1527 15.3844C58.1527 14.8459 57.9198 14.4613 57.454 14.2305C56.9881 13.9998 56.4446 13.8459 55.9012 13.8459H52.1745V16.9228Z" fill="#F8FBFD"/>
<path fill-rule="evenodd" clip-rule="evenodd" d="M63.8199 22.846C62.8882 21.9998 62.5 20.7691 62.5 19.2306C62.5 17.6152 62.9658 16.3844 63.8199 15.5383C64.7516 14.6921 65.9938 14.2306 67.5466 14.2306C69.177 14.2306 70.4193 14.6921 71.2733 15.5383C72.205 16.3844 72.5932 17.6152 72.5932 19.2306V19.7691C72.5932 19.9229 72.5155 20.0767 72.4379 20.1537C72.3603 20.2306 72.205 20.3075 72.0497 20.3075H65.4503C65.528 20.9998 65.6832 21.4614 66.0714 21.7691C66.4596 22.0768 67.0031 22.2306 67.7019 22.2306C68.5559 22.2306 69.0994 22.0767 69.4099 21.6921C69.6429 21.3844 70.0311 21.2306 70.4193 21.2306H71.7391C71.8944 21.2306 72.0497 21.3075 72.1273 21.3844C72.205 21.4614 72.2826 21.6152 72.2826 21.7691C72.2826 23.3844 70.6522 24.2306 67.4689 24.2306C65.9938 24.0767 64.7516 23.6152 63.8199 22.846ZM65.5279 18.2306H69.5652C69.4876 16.846 68.8665 16.1537 67.5466 16.1537C66.3043 16.1537 65.6056 16.846 65.5279 18.2306Z" fill="#F8FBFD"/>
<path fill-rule="evenodd" clip-rule="evenodd" d="M73.7598 16.9998C73.7598 15.1537 75.3126 14.1536 78.3405 14.2306C81.5237 14.2306 83.1542 15.0767 83.1542 16.6921C83.1542 16.846 83.0765 16.9998 82.9989 17.0767C82.9212 17.1536 82.766 17.2306 82.6107 17.2306H81.2908C80.9026 17.2306 80.5144 17.0767 80.2815 16.769C79.9709 16.3844 79.3498 16.1536 78.5734 16.1536C77.4088 16.1536 76.8654 16.4613 76.8654 16.9998C76.8654 17.2306 77.0983 17.4613 77.5641 17.6152C78.0299 17.769 78.5734 17.9229 79.1945 18.0767C79.8157 18.2306 80.5144 18.3844 81.1355 18.5383C81.7566 18.769 82.3001 19.0767 82.766 19.5383C83.2318 19.9998 83.4647 20.5383 83.4647 21.2306C83.4647 23.0767 81.8343 24.0767 78.6511 23.9998C75.4678 23.9998 73.8374 23.1536 73.8374 21.5383C73.8374 21.3844 73.915 21.2306 73.9927 21.1536C74.0703 21.0767 74.2256 20.9998 74.3809 20.9998H75.7008C76.089 20.9998 76.4772 21.1536 76.7101 21.4613C77.0206 21.8459 77.6417 22.0767 78.4181 22.0767C79.738 22.0767 80.4368 21.769 80.4368 21.2306C80.4368 20.9998 80.2039 20.769 79.738 20.6152C79.2722 20.4613 78.7287 20.3075 78.1076 20.1536C77.4865 19.9998 76.7877 19.846 76.1666 19.6152C75.5455 19.3844 75.002 19.0767 74.5362 18.6152C73.9927 18.2306 73.7598 17.6921 73.7598 16.9998Z" fill="#F8FBFD"/>
<path fill-rule="evenodd" clip-rule="evenodd" d="M85.0176 19.923V14.923C85.0176 14.7691 85.0952 14.6153 85.1729 14.5384C85.2505 14.4614 85.4058 14.3845 85.5611 14.3845H87.502C87.6573 14.3845 87.8126 14.4614 87.8902 14.5384C87.9679 14.6153 88.0455 14.7691 88.0455 14.923V19.923C88.0455 21.3076 88.589 21.9999 89.676 21.9999C90.3747 21.9999 91.2288 21.6153 92.0052 20.7691V14.9999C92.0052 14.8461 92.0828 14.6922 92.1604 14.6153C92.2381 14.5384 92.3934 14.4614 92.5486 14.4614H94.4896C94.6449 14.4614 94.8002 14.5384 94.8778 14.6153C94.9555 14.6922 95.0331 14.8461 95.0331 14.9999V23.4615C95.0331 23.6153 94.9555 23.7691 94.8778 23.8461C94.8002 23.923 94.6449 23.9999 94.4896 23.9999H92.5486C92.3934 23.9999 92.2381 23.923 92.1604 23.8461C92.0828 23.7691 92.0052 23.6153 92.0052 23.4615V22.923C90.9958 23.7691 89.9865 24.1538 88.9772 24.1538C87.735 24.1538 86.8033 23.8461 86.0269 23.1538C85.4058 22.3845 85.0176 21.3076 85.0176 19.923Z" fill="#F8FBFD"/>
<path fill-rule="evenodd" clip-rule="evenodd" d="M97.2832 23.3846V14.923C97.2832 14.7692 97.3608 14.6153 97.4385 14.5384C97.5161 14.4615 97.6714 14.3846 97.8267 14.3846H99.7677C99.923 14.3846 100.078 14.4615 100.156 14.5384C100.234 14.6153 100.311 14.7692 100.311 14.923V15.4615C100.699 15.0769 101.165 14.7692 101.553 14.5384C101.942 14.3076 102.485 14.2307 103.029 14.2307C104.426 14.2307 105.435 14.7692 106.134 15.923C107.221 14.7692 108.308 14.2307 109.473 14.2307C110.637 14.2307 111.491 14.5384 112.19 15.2307C112.889 15.923 113.199 16.9999 113.199 18.3846V23.3846C113.199 23.5384 113.122 23.6923 113.044 23.7692C112.966 23.8461 112.811 23.923 112.656 23.923H110.715C110.56 23.923 110.404 23.8461 110.327 23.7692C110.249 23.6923 110.171 23.5384 110.171 23.3846V18.3846C110.171 16.9999 109.628 16.3076 108.619 16.3076C107.998 16.3076 107.376 16.7692 106.678 17.6153C106.678 17.8461 106.755 18.1538 106.755 18.3846V23.3846C106.755 23.5384 106.678 23.6923 106.6 23.7692C106.522 23.8461 106.367 23.923 106.212 23.923H104.271C104.116 23.923 103.96 23.8461 103.883 23.7692C103.805 23.6923 103.727 23.5384 103.727 23.3846V18.3846C103.727 16.9999 103.184 16.3076 102.175 16.3076C101.553 16.3076 100.932 16.6923 100.311 17.5384V23.3846C100.311 23.5384 100.234 23.6923 100.156 23.7692C100.078 23.8461 99.923 23.923 99.7677 23.923H97.8267C97.6714 23.923 97.5161 23.8461 97.4385 23.7692C97.2832 23.6153 97.2832 23.5384 97.2832 23.3846Z" fill="#F8FBFD"/>
<path fill-rule="evenodd" clip-rule="evenodd" d="M116.072 22.8461C115.14 21.9999 114.752 20.7692 114.752 19.2307C114.752 17.6153 115.218 16.3846 116.072 15.5384C117.004 14.6922 118.246 14.2307 119.799 14.2307C121.429 14.2307 122.671 14.6922 123.525 15.5384C124.457 16.3846 124.845 17.6153 124.845 19.2307V19.7692C124.845 19.923 124.768 20.0769 124.69 20.1538C124.612 20.2307 124.457 20.3076 124.302 20.3076H117.702C117.78 20.9999 117.935 21.4615 118.323 21.7692C118.712 22.0769 119.255 22.2307 119.954 22.2307C120.808 22.2307 121.351 22.0769 121.662 21.6923C121.895 21.3846 122.283 21.2307 122.671 21.2307H123.991C124.146 21.2307 124.302 21.3076 124.379 21.3846C124.457 21.4615 124.535 21.6153 124.535 21.7692C124.535 23.3846 122.904 24.2307 119.721 24.2307C118.246 24.0769 117.004 23.6153 116.072 22.8461ZM117.858 18.2307H121.895C121.817 16.8461 121.196 16.1538 119.876 16.1538C118.556 16.1538 117.935 16.8461 117.858 18.2307Z" fill="#F8FBFD"/>
<path fill-rule="evenodd" clip-rule="evenodd" d="M89.1311 8.69222L87.3454 6.92298C86.9572 6.53837 86.2585 6.53837 85.8703 6.92298L85.715 7.07683C85.3268 7.46144 85.3268 8.15376 85.715 8.53837L87.5007 10.3076C87.8889 10.6922 88.5877 10.6922 88.9759 10.3076L89.1311 10.1537C89.5193 9.76913 89.5193 9.07683 89.1311 8.69222ZM89.4417 10.7691L93.3237 6.92298C93.7119 6.53837 94.4106 6.53837 94.7988 6.92298L94.9541 7.07683C95.3423 7.46144 95.3423 8.15376 94.9541 8.53837L91.0721 12.3845C90.6839 12.7691 89.9852 12.7691 89.597 12.3845L89.4417 12.2307C89.0535 11.8461 89.0535 11.1538 89.4417 10.7691Z" fill="#F8FBFD"/>
</svg>
