<svg width="100" height="32" viewBox="0 0 100 32" fill="none" xmlns="http://www.w3.org/2000/svg">
<path fill-rule="evenodd" clip-rule="evenodd" d="M31.6141 0.553711H4.03646C2.04889 0.553711 0.496094 2.15372 0.496094 4.06141V23.5076C0.496094 25.4153 2.111 27.0153 4.03646 27.0153H23.9122L30.1234 31.8153V27.0153H31.6141C33.5396 27.0153 35.1545 25.4153 35.1545 23.5076V4.06141C35.1545 2.15372 33.5396 0.553711 31.6141 0.553711ZM6.33594 9.72283V18.2151C6.33594 18.3997 6.39805 18.5844 6.46016 18.7074C6.6465 18.8305 6.77072 18.8921 6.95706 18.8921H8.19929C8.38563 18.8921 8.57197 18.8305 8.69619 18.7074C8.82041 18.5844 8.88253 18.3997 8.88253 18.2151V11.5074L11.3049 18.2151C11.3234 18.2427 11.3406 18.2689 11.357 18.2939C11.4504 18.4365 11.519 18.5412 11.6776 18.6459C11.8018 18.769 11.9881 18.8305 12.1744 18.8305H13.1682C13.3546 18.8305 13.4788 18.769 13.6651 18.6459C13.7894 18.5228 13.9136 18.3997 13.9757 18.2151L16.3981 11.5074V18.2151C16.3981 18.3997 16.4602 18.5844 16.5844 18.7074C16.7707 18.8305 16.8949 18.8921 17.0813 18.8921H18.3235C18.5099 18.8921 18.6962 18.8305 18.8204 18.7074C18.9446 18.5844 19.0068 18.3997 19.0068 18.2151V9.72283C19.0068 9.53821 18.9446 9.35359 18.8204 9.23052C18.6962 9.10744 18.572 9.0459 18.3856 9.0459H15.5285C15.3422 9.0459 15.2179 9.10744 15.0316 9.23052L15.0316 9.23052C14.9074 9.3536 14.7831 9.47667 14.721 9.66128L12.6713 15.5074L10.6217 9.66128C10.6118 9.6418 10.602 9.62077 10.5917 9.59869C10.5368 9.4813 10.4679 9.33411 10.3111 9.23052C10.1869 9.10744 10.0005 9.0459 9.8142 9.0459H6.95706C6.77072 9.0459 6.6465 9.10744 6.52227 9.23052C6.39805 9.35359 6.33594 9.53821 6.33594 9.72283ZM20.4353 9.10744C20.3111 9.10744 20.1869 9.16898 20.1248 9.29206C20.1248 9.31815 20.1248 9.33318 20.12 9.34653C20.1136 9.36466 20.0984 9.37969 20.0627 9.41513C20.0627 9.47667 20.1248 9.59975 20.1869 9.72283L23.8515 15.3844V18.2767C23.8515 18.4613 23.9136 18.5844 24.0378 18.7074C24.162 18.8305 24.2863 18.8921 24.4726 18.8921H25.7769C25.9633 18.8921 26.0875 18.8305 26.2117 18.7074C26.3359 18.5844 26.3981 18.4613 26.3981 18.2767V15.3844L30.0627 9.72283C30.0793 9.68984 30.0959 9.66128 30.1114 9.63477C30.1536 9.56235 30.1869 9.50523 30.1869 9.41513V9.29206C30.1869 9.16898 30.0627 9.10744 29.8763 9.10744H28.572C28.0751 9.16898 27.7024 9.35359 27.3918 9.78436L25.1558 13.169L22.9198 9.78436C22.6713 9.35359 22.2366 9.10744 21.7397 9.10744H20.4353Z" fill="#37ABFF"/>
<path fill-rule="evenodd" clip-rule="evenodd" d="M39.0664 18.4613V9.84587C39.0664 9.66126 39.1285 9.53818 39.2527 9.35356C39.377 9.23049 39.5633 9.16895 39.6875 9.16895H45.4639C46.5198 9.16895 47.3894 9.47664 48.0726 10.0305C48.7559 10.5843 49.1285 11.3843 49.1285 12.3074C49.1285 13.6613 48.259 14.5228 46.4577 14.8305C46.7062 14.9536 47.0167 15.1382 47.2031 15.3843C47.4515 15.6305 47.7 15.9997 48.0105 16.492L49.3149 18.5228C49.377 18.6459 49.4391 18.7689 49.4391 18.892C49.4391 18.9536 49.4391 18.9536 49.4391 19.0151C49.377 19.1382 49.2528 19.1997 49.0664 19.1997H47.3894C47.2031 19.1997 47.0167 19.1382 46.8304 19.0151C46.6441 18.892 46.4577 18.7074 46.3335 18.5228L45.1534 16.6766C44.6565 15.9382 44.0975 15.5074 43.3521 15.5074H41.613V18.5228C41.613 18.7074 41.5509 18.8305 41.4267 19.0151C41.3024 19.1382 41.1161 19.1997 40.9919 19.1997H39.7496C39.5633 19.1997 39.4391 19.1382 39.2527 19.0151C39.1285 18.7689 39.0664 18.6459 39.0664 18.4613ZM41.7372 13.5382H44.7186C45.2155 13.5382 45.5882 13.4151 45.9608 13.2305C46.3335 13.0459 46.5198 12.7382 46.5198 12.3074C46.5198 11.8766 46.3335 11.5689 45.9608 11.3843C45.5882 11.1997 45.1534 11.0766 44.7186 11.0766H41.7372V13.5382Z" fill="#27353F"/>
<path fill-rule="evenodd" clip-rule="evenodd" d="M51.0559 18.2771C50.3106 17.6002 50 16.6155 50 15.3848C50 14.0925 50.3727 13.1078 51.0559 12.4309C51.8012 11.754 52.795 11.3848 54.0373 11.3848C55.3416 11.3848 56.3354 11.754 57.0186 12.4309C57.764 13.1078 58.0745 14.0925 58.0745 15.3848V15.8155C58.0745 15.9386 58.0124 16.0617 57.9503 16.1232C57.8882 16.1848 57.764 16.2463 57.6398 16.2463H52.3603C52.4224 16.8001 52.5466 17.1694 52.8571 17.4155C53.1677 17.6617 53.6025 17.7848 54.1615 17.7848C54.8447 17.7848 55.2795 17.6617 55.5279 17.354C55.7143 17.1078 56.0248 16.9848 56.3354 16.9848H57.3913C57.5155 16.9848 57.6397 17.0463 57.7019 17.1078C57.764 17.1694 57.8261 17.2925 57.8261 17.4155C57.8261 18.7078 56.5217 19.3848 53.9752 19.3848C52.795 19.2617 51.8012 18.8925 51.0559 18.2771ZM52.4224 14.5848H55.6522C55.5901 13.4771 55.0932 12.9232 54.0373 12.9232C53.0435 12.9232 52.4845 13.4771 52.4224 14.5848Z" fill="#27353F"/>
<path fill-rule="evenodd" clip-rule="evenodd" d="M59.0039 13.5996C59.0039 12.1226 60.2461 11.3226 62.6685 11.3842C65.2151 11.3842 66.5194 12.0611 66.5194 13.3534C66.5194 13.4765 66.4573 13.5995 66.3952 13.6611C66.3331 13.7226 66.2089 13.7842 66.0846 13.7842H65.0287C64.7182 13.7842 64.4076 13.6611 64.2213 13.4149C63.9728 13.1072 63.4759 12.9226 62.8548 12.9226C61.9232 12.9226 61.4884 13.1688 61.4884 13.5996C61.4884 13.7842 61.6747 13.9688 62.0474 14.0919C62.42 14.2149 62.8548 14.338 63.3517 14.4611C63.8486 14.5842 64.4076 14.7072 64.9045 14.8303C65.4014 15.0149 65.8362 15.2611 66.2089 15.6303C66.5815 15.9995 66.7679 16.4303 66.7679 16.9842C66.7679 18.4611 65.4635 19.2611 62.9169 19.1995C60.3704 19.1995 59.066 18.5226 59.066 17.2303C59.066 17.1072 59.1281 16.9842 59.1902 16.9226C59.2524 16.8611 59.3766 16.7995 59.5008 16.7995H60.5567C60.8673 16.7995 61.1778 16.9226 61.3642 17.1688C61.6126 17.4765 62.1095 17.6611 62.7306 17.6611C63.7865 17.6611 64.3455 17.4149 64.3455 16.9842C64.3455 16.7996 64.1592 16.6149 63.7865 16.4919C63.4138 16.3688 62.9791 16.2457 62.4822 16.1226C61.9853 15.9995 61.4263 15.8765 60.9294 15.6919C60.4325 15.5072 59.9977 15.2611 59.625 14.8919C59.1902 14.5842 59.0039 14.1534 59.0039 13.5996Z" fill="#27353F"/>
<path fill-rule="evenodd" clip-rule="evenodd" d="M68.0117 15.9386V11.9386C68.0117 11.8155 68.0738 11.6924 68.1359 11.6309C68.1981 11.5693 68.3223 11.5078 68.4465 11.5078H69.9993C70.1235 11.5078 70.2477 11.5693 70.3099 11.6309C70.372 11.6924 70.4341 11.8155 70.4341 11.9386V15.9386C70.4341 17.0463 70.8689 17.6001 71.7384 17.6001C72.2974 17.6001 72.9807 17.2924 73.6018 16.6155V12.0001C73.6018 11.877 73.6639 11.754 73.726 11.6924C73.7881 11.6309 73.9123 11.5694 74.0366 11.5694H75.5894C75.7136 11.5694 75.8378 11.6309 75.8999 11.6924C75.962 11.754 76.0241 11.877 76.0241 12.0001V18.7694C76.0241 18.8924 75.962 19.0155 75.8999 19.077C75.8378 19.1386 75.7136 19.2001 75.5894 19.2001H74.0366C73.9123 19.2001 73.7881 19.1386 73.726 19.077C73.6639 19.0155 73.6018 18.8924 73.6018 18.7694V18.3386C72.7943 19.0155 71.9869 19.3232 71.1794 19.3232C70.1856 19.3232 69.4403 19.0771 68.8192 18.5232C68.3223 17.9078 68.0117 17.0463 68.0117 15.9386Z" fill="#27353F"/>
<path fill-rule="evenodd" clip-rule="evenodd" d="M77.8242 18.7078V11.9386C77.8242 11.8155 77.8863 11.6925 77.9484 11.6309C78.0106 11.5694 78.1348 11.5078 78.259 11.5078H79.8118C79.936 11.5078 80.0602 11.5694 80.1224 11.6309C80.1845 11.6925 80.2466 11.8155 80.2466 11.9386V12.3694C80.5571 12.0617 80.9298 11.8155 81.2404 11.6309C81.5509 11.4463 81.9857 11.3848 82.4205 11.3848C83.5385 11.3848 84.346 11.8155 84.905 12.7386C85.7745 11.8155 86.6441 11.3848 87.5758 11.3848C88.5075 11.3848 89.1907 11.6309 89.7497 12.1848C90.3087 12.7386 90.5572 13.6001 90.5572 14.7078V18.7078C90.5572 18.8309 90.495 18.954 90.4329 19.0155C90.3708 19.0771 90.2466 19.1386 90.1224 19.1386H88.5696C88.4453 19.1386 88.3211 19.0771 88.259 19.0155C88.1969 18.954 88.1348 18.8309 88.1348 18.7078V14.7078C88.1348 13.6001 87.7 13.0463 86.8925 13.0463C86.3957 13.0463 85.8988 13.4155 85.3397 14.0925C85.3397 14.2771 85.4019 14.5232 85.4019 14.7078V18.7078C85.4019 18.8309 85.3398 18.954 85.2776 19.0155C85.2155 19.0771 85.0913 19.1386 84.9671 19.1386H83.4143C83.2901 19.1386 83.1658 19.0771 83.1037 19.0155C83.0416 18.954 82.9795 18.8309 82.9795 18.7078V14.7078C82.9795 13.6001 82.5447 13.0463 81.7373 13.0463C81.2404 13.0463 80.7435 13.354 80.2466 14.0309V18.7078C80.2466 18.8309 80.1845 18.954 80.1224 19.0155C80.0602 19.0771 79.936 19.1386 79.8118 19.1386H78.259C78.1348 19.1386 78.0106 19.0771 77.9484 19.0155C77.8242 18.8925 77.8242 18.8309 77.8242 18.7078Z" fill="#27353F"/>
<path fill-rule="evenodd" clip-rule="evenodd" d="M92.8567 18.2771C92.1113 17.6001 91.8008 16.6155 91.8008 15.3848C91.8008 14.0925 92.1735 13.1078 92.8567 12.4309C93.602 11.754 94.5958 11.3848 95.8381 11.3848C97.1424 11.3848 98.1362 11.754 98.8194 12.4309C99.5648 13.1078 99.8753 14.0925 99.8753 15.3848V15.8155C99.8753 15.9386 99.8132 16.0617 99.7511 16.1232C99.689 16.1848 99.5648 16.2463 99.4406 16.2463H94.161C94.2231 16.8001 94.3474 17.1694 94.6579 17.4155C94.9685 17.6617 95.4033 17.7848 95.9623 17.7848C96.6455 17.7848 97.0803 17.6617 97.3287 17.354C97.5151 17.1078 97.8256 16.9848 98.1362 16.9848H99.1921C99.3163 16.9848 99.4405 17.0463 99.5027 17.1078C99.5648 17.1694 99.6269 17.2925 99.6269 17.4155C99.6269 18.7078 98.3225 19.3848 95.7759 19.3848C94.5958 19.2617 93.602 18.8925 92.8567 18.2771ZM94.2853 14.5848H97.5151C97.453 13.4771 96.9561 12.9232 95.9002 12.9232C94.8443 12.9232 94.3474 13.4771 94.2853 14.5848Z" fill="#27353F"/>
<path fill-rule="evenodd" clip-rule="evenodd" d="M71.3018 6.95377L69.8732 5.53839C69.5627 5.23069 69.0036 5.23069 68.6931 5.53839L68.5689 5.66146C68.2583 5.96915 68.2583 6.52301 68.5689 6.8307L69.9974 8.24607C70.308 8.55377 70.867 8.55377 71.1776 8.24607L71.3018 8.123C71.6123 7.81531 71.6123 7.26146 71.3018 6.95377ZM71.5502 8.61531L74.6558 5.53839C74.9664 5.23069 75.5254 5.23069 75.836 5.53839L75.9602 5.66146C76.2707 5.96915 76.2707 6.52301 75.9602 6.8307L72.8546 9.90762C72.544 10.2153 71.985 10.2153 71.6744 9.90762L71.5502 9.78454C71.2397 9.47684 71.2397 8.923 71.5502 8.61531Z" fill="#37ABFF"/>
</svg>
