<svg width="0" height="0" class="hidden">
  <symbol xmlns="http://www.w3.org/2000/svg" viewBox="0 0 16 16" id="ic_about_info1">
    <path fill-rule="evenodd" clip-rule="evenodd" d="M8.00072 0.333984L4.63317 4.82404L0.271484 3.37015L3.32369 11.0007H12.6778L15.73 3.37015L11.3683 4.82404L8.00072 0.333984ZM8.00072 3.66732L10.6332 7.17726L12.2715 6.63116L11.3237 9.00065H4.67775L3.72995 6.63116L5.36826 7.17726L8.00072 3.66732Z" fill="currentColor"></path>
    <path d="M4.00072 12.0007C3.44843 12.0007 3.00072 12.4484 3.00072 13.0007C3.00072 13.5529 3.44843 14.0007 4.00072 14.0007H12.0007C12.553 14.0007 13.0007 13.5529 13.0007 13.0007C13.0007 12.4484 12.553 12.0007 12.0007 12.0007H4.00072Z" fill="currentColor"></path>
  </symbol>
  <symbol xmlns="http://www.w3.org/2000/svg" viewBox="0 0 16 16" id="ic_about_info2">
    <path fill-rule="evenodd" clip-rule="evenodd" d="M11.3344 8.72588C12.3567 7.81038 13 6.48031 13 5C13 2.23858 10.7614 0 8 0C5.23858 0 3 2.23858 3 5C3 6.48031 3.6433 7.81038 4.66559 8.72588C2.50116 9.71967 0.856605 11.6511 0.252035 14C0.087506 14.6392 0 15.3094 0 16H16C16 15.3094 15.9125 14.6392 15.748 14C15.1434 11.6511 13.4988 9.71967 11.3344 8.72588ZM11 5C11 6.65685 9.65685 8 8 8C6.34315 8 5 6.65685 5 5C5 3.34315 6.34315 2 8 2C9.65685 2 11 3.34315 11 5ZM8 10C5.38756 10 3.16508 11.6696 2.34141 14H13.6586C12.8349 11.6696 10.6124 10 8 10Z" fill="currentColor"></path>
  </symbol>
  <symbol xmlns="http://www.w3.org/2000/svg" viewBox="0 0 16 16" id="ic_about_info3">
    <path fill-rule="evenodd" clip-rule="evenodd" d="M2 2C2 0.895431 2.89543 0 4 0H9.41421L14.5364 5.12218C15.2294 5.81515 14.7386 7 13.7586 7H9.2C8.53726 7 8 6.46274 8 5.8V2H5C4.44772 2 4 2.44772 4 3V13C4 13.5523 4.44772 14 5 14H13V9.5C13 8.94772 13.4477 8.5 14 8.5C14.5523 8.5 15 8.94772 15 9.5V14.8C15 15.4627 14.4627 16 13.8 16H4C2.89543 16 2 15.1046 2 14V2ZM10 3.41421L11.5858 5H10V3.41421Z" fill="currentColor"></path>
    <path d="M6 9.5C6 9.22386 6.22386 9 6.5 9H10.5C10.7761 9 11 9.22386 11 9.5C11 9.77614 10.7761 10 10.5 10H6.5C6.22386 10 6 9.77614 6 9.5Z" fill="currentColor"></path>
    <path d="M6.5 11C6.22386 11 6 11.2239 6 11.5C6 11.7761 6.22386 12 6.5 12H10.5C10.7761 12 11 11.7761 11 11.5C11 11.2239 10.7761 11 10.5 11H6.5Z" fill="currentColor"></path>
  </symbol>
  <symbol xmlns="http://www.w3.org/2000/svg" viewBox="0 0 16 16" id="ic_additional_info1">
    <path fill-rule="evenodd" clip-rule="evenodd" d="M2 2C2 0.895431 2.89543 0 4 0H9.41421L14.5364 5.12218C15.2294 5.81515 14.7386 7 13.7586 7H9.2C8.53726 7 8 6.46274 8 5.8V2H5C4.44772 2 4 2.44772 4 3V13C4 13.5523 4.44772 14 5 14H13V9.5C13 8.94772 13.4477 8.5 14 8.5C14.5523 8.5 15 8.94772 15 9.5V14.8C15 15.4627 14.4627 16 13.8 16H4C2.89543 16 2 15.1046 2 14V2ZM10 3.41421L11.5858 5H10V3.41421Z" fill="currentColor"></path>
    <path d="M6 9.5C6 9.22386 6.22386 9 6.5 9H10.5C10.7761 9 11 9.22386 11 9.5C11 9.77614 10.7761 10 10.5 10H6.5C6.22386 10 6 9.77614 6 9.5Z" fill="currentColor"></path>
    <path d="M6.5 11C6.22386 11 6 11.2239 6 11.5C6 11.7761 6.22386 12 6.5 12H10.5C10.7761 12 11 11.7761 11 11.5C11 11.2239 10.7761 11 10.5 11H6.5Z" fill="currentColor"></path>
  </symbol>
  <symbol xmlns="http://www.w3.org/2000/svg" viewBox="0 0 16 16" id="ic_additional_info2">
    <path fill-rule="evenodd" clip-rule="evenodd" d="M8.06319 6.57246C8.64783 5.87702 9 4.97964 9 4C9 1.79086 7.20914 0 5 0C2.79086 0 1 1.79086 1 4C1 4.97964 1.35217 5.87702 1.93681 6.57246C0.776139 7.27263 0 8.54567 0 10V11C0 11.5523 0.447715 12 1 12C1.55228 12 2 11.5523 2 11V10C2 8.89543 2.89543 8 4 8H6C7.10457 8 8 8.89543 8 10V11C8 11.5523 8.44772 12 9 12C9.55229 12 10 11.5523 10 11V10C10 8.54567 9.22386 7.27263 8.06319 6.57246ZM5 6C6.10457 6 7 5.10457 7 4C7 2.89543 6.10457 2 5 2C3.89543 2 3 2.89543 3 4C3 5.10457 3.89543 6 5 6Z" fill="currentColor"></path>
    <path d="M12 1C11.4477 1 11 1.44772 11 2C11 2.55228 11.4477 3 12 3H15C15.5523 3 16 2.55228 16 2C16 1.44772 15.5523 1 15 1H12Z" fill="currentColor"></path>
    <path d="M12 5C11.4477 5 11 5.44772 11 6C11 6.55228 11.4477 7 12 7H15C15.5523 7 16 6.55228 16 6C16 5.44772 15.5523 5 15 5H12Z" fill="currentColor"></path>
    <path d="M0 15C0 14.4477 0.447715 14 1 14H15C15.5523 14 16 14.4477 16 15C16 15.5523 15.5523 16 15 16H1C0.447715 16 0 15.5523 0 15Z" fill="currentColor"></path>
    <path d="M12 10C12 9.44771 12.4477 9 13 9H15C15.5523 9 16 9.44771 16 10C16 10.5523 15.5523 11 15 11H13C12.4477 11 12 10.5523 12 10Z" fill="currentColor"></path>
  </symbol>
  <symbol xmlns="http://www.w3.org/2000/svg" viewBox="0 0 16 16" id="ic_additional_info3">
    <path d="M1 4C0.447715 4 1.11564e-07 3.55228 8.74228e-08 3C6.32816e-08 2.44772 0.447715 2 1 2L2.17071 2C2.06015 2.31278 2 2.64936 2 3C2 3.35064 2.06015 3.68722 2.17071 4L1 4Z" fill="currentColor"></path>
    <path d="M8 3C8 2.64936 7.93985 2.31278 7.82929 2L15 2C15.5523 2 16 2.44771 16 3C16 3.55228 15.5523 4 15 4L7.82929 4C7.93985 3.68722 8 3.35064 8 3Z" fill="currentColor"></path>
    <path d="M7 3C7 1.89543 6.10457 1 5 1C3.89543 1 3 1.89543 3 3C3 4.10457 3.89543 5 5 5C6.10457 5 7 4.10457 7 3Z" fill="currentColor"></path>
    <path d="M1 14C0.447716 14 6.36101e-07 13.5523 6.11959e-07 13C5.87818e-07 12.4477 0.447716 12 1 12L2.17071 12C2.06015 12.3128 2 12.6494 2 13C2 13.3506 2.06015 13.6872 2.17071 14L1 14Z" fill="currentColor"></path>
    <path d="M8 13C8 12.6494 7.93985 12.3128 7.82929 12L15 12C15.5523 12 16 12.4477 16 13C16 13.5523 15.5523 14 15 14L7.82929 14C7.93985 13.6872 8 13.3506 8 13Z" fill="currentColor"></path>
    <path d="M7 13C7 11.8954 6.10457 11 5 11C3.89543 11 3 11.8954 3 13C3 14.1046 3.89543 15 5 15C6.10457 15 7 14.1046 7 13Z" fill="currentColor"></path>
    <path d="M16 8C16 8.55228 15.5523 9 15 9L13.8293 9C13.9398 8.68722 14 8.35063 14 8C14 7.64936 13.9398 7.31278 13.8293 7L15 7C15.5523 7 16 7.44771 16 8Z" fill="currentColor"></path>
    <path d="M8.17071 7C8.06015 7.31278 8 7.64936 8 8C8 8.35064 8.06015 8.68722 8.17071 9L1 9C0.447715 9 3.73832e-07 8.55228 3.49691e-07 8C3.2555e-07 7.44772 0.447715 7 1 7L8.17071 7Z" fill="currentColor"></path>
    <path d="M11 6C9.89543 6 9 6.89543 9 8C9 9.10457 9.89543 10 11 10C12.1046 10 13 9.10457 13 8C13 6.89543 12.1046 6 11 6Z" fill="currentColor"></path>
  </symbol>
  <symbol xmlns="http://www.w3.org/2000/svg" viewBox="0 0 16 16" id="ic_arr_ver">
    <path d="M2 6L8 12L14 6" stroke="currentColor" stroke-width="2" stroke-linecap="round" fill="none"></path>
  </symbol>
  <symbol xmlns="http://www.w3.org/2000/svg" viewBox="0 0 16 16" id="ic_arr_hor">
    <path fill-rule="evenodd" clip-rule="evenodd" d="M2.58594 8L10.293 15.7071C10.6836 16.0976 11.3167 16.0976 11.7073 15.7071C12.0978 15.3166 12.0978 14.6834 11.7073 14.2929L5.41436 8L11.7073 1.70711C12.0978 1.31658 12.0978 0.683417 11.7073 0.292893C11.3167 -0.0976314 10.6836 -0.0976314 10.293 0.292893L2.58594 8Z" fill="currentColor"></path>
  </symbol>
  <symbol xmlns="http://www.w3.org/2000/svg" viewBox="0 0 20 15" id="ic_arrow_hor">
    <path d="M0.294846 6.79289C-0.0956783 7.18342 -0.0956784 7.81658 0.294846 8.20711L6.65881 14.5711C7.04933 14.9616 7.6825 14.9616 8.07302 14.5711C8.46354 14.1805 8.46354 13.5474 8.07302 13.1569L2.41617 7.5L8.07302 1.84314C8.46355 1.45262 8.46355 0.819456 8.07302 0.428931C7.6825 0.0384067 7.04933 0.0384067 6.65881 0.428931L0.294846 6.79289ZM19.998 6.5L1.00195 6.5L1.00195 8.5L19.998 8.5L19.998 6.5Z" fill="currentColor"></path>
  </symbol>
  <symbol xmlns="http://www.w3.org/2000/svg" viewBox="0 0 32 32" id="ic_article_category1">
    <path d="M22.4589 13.9916V12.4854C22.4589 10.8992 21.6244 9.50502 20.3721 8.71627C21.8108 6.81171 20.4131 4.00396 18.0068 4.01665C15.6006 4.00383 14.2026 6.81215 15.6415 8.71627C14.3891 9.50502 13.5547 10.8992 13.5547 12.4854V13.9916C13.5547 14.5094 13.9744 14.9291 14.4922 14.9291H21.5214C22.0391 14.9291 22.4589 14.5094 22.4589 13.9916ZM18.0068 5.89165C18.5972 5.89165 19.0776 6.37202 19.0776 6.96246C19.0187 8.38308 16.9945 8.38265 16.9359 6.96246C16.9359 6.37202 17.4163 5.89165 18.0068 5.89165ZM20.5839 13.0541H15.4297V12.4854C15.5716 9.06571 20.4432 9.06833 20.5839 12.4854V13.0541Z" fill="currentColor"></path>
    <path d="M6.4599 10.9121H10.4766C11.7205 10.8625 11.7195 9.08617 10.4766 9.03711H6.4599C5.21602 9.08667 5.21696 10.863 6.4599 10.9121Z" fill="currentColor"></path>
    <path d="M6.4599 6.89551H10.4766C11.7205 6.84595 11.7195 5.06957 10.4766 5.02051H6.4599C5.21602 5.07007 5.21696 6.84645 6.4599 6.89551Z" fill="currentColor"></path>
    <path d="M6.4599 14.9297H10.4766C11.7205 14.8801 11.7195 13.1038 10.4766 13.0547H6.4599C5.21602 13.1042 5.21696 14.8806 6.4599 14.9297Z" fill="currentColor"></path>
    <path d="M29.5559 4.01669H26.4767V0.9375C26.4767 0.41975 26.0569 0 25.5392 0H2.44336C1.92561 0 1.50586 0.41975 1.50586 0.9375V27.0458C1.50586 27.5636 1.92561 27.9833 2.44336 27.9833H5.52255V31.0625C5.52255 31.5802 5.9423 32 6.46005 32H29.5559C30.0736 32 30.4934 31.5802 30.4934 31.0625V4.95419C30.4934 4.43637 30.0736 4.01669 29.5559 4.01669ZM3.38086 26.1083V1.875H24.6017V18.075H17.5059C16.9881 18.075 16.5684 18.4948 16.5684 19.0125V26.1083H3.38086ZM23.2759 19.95L18.4434 24.7825V19.95H23.2759ZM28.6184 30.125H7.39755V27.9833H17.5059C17.7545 27.9833 17.9929 27.8845 18.1687 27.7087L26.2021 19.6754C26.3779 19.4996 26.4767 19.2612 26.4767 19.0126V5.89169H28.6184V30.125Z" fill="currentColor"></path>
    <path d="M13.489 17.0703H6.4599C5.21602 17.1199 5.21696 18.8963 6.4599 18.9453H13.4891C14.733 18.8958 14.732 17.1194 13.489 17.0703Z" fill="currentColor"></path>
    <path d="M13.489 21.0879H6.4599C5.21602 21.1375 5.21696 22.9138 6.4599 22.9629H13.4891C14.733 22.9133 14.732 21.137 13.489 21.0879Z" fill="currentColor"></path>
  </symbol>
  <symbol xmlns="http://www.w3.org/2000/svg" viewBox="0 0 32 32" id="ic_article_category2">
    <path d="M24.6573 9.71363L31.7189 6.6872L16.2188 0L2.15453 6.06775V13.409C1.06321 13.796 0.279297 14.8382 0.279297 16.0605V20.7486H2.15453V32H30.283V13.2477H24.6573V9.71363ZM9.65545 10.5173L16.2188 13.3301L22.7821 10.5173V14.4325L16.2188 17.2453L9.65545 14.4325V10.5173ZM16.2188 2.04231L26.9718 6.68151L16.2188 11.29L5.46568 6.68151L16.2188 2.04231ZM4.02976 8.10631L7.78022 9.71363V13.2477H4.02976V8.10631ZM2.15453 16.0605C2.15453 15.5435 2.57514 15.1229 3.09214 15.1229C3.60914 15.1229 4.02976 15.5435 4.02976 16.0605V18.8734H2.15453V16.0605ZM28.4078 15.1229V30.1248H4.02976V20.7486H5.90499V16.0605C5.90499 15.7319 5.84779 15.4164 5.74372 15.1229H7.78022V15.6691L16.2188 19.2855L24.6573 15.6691V15.1229H28.4078Z" fill="currentColor"></path>
    <path d="M7.7793 20.749V26.3747H22.0649L27.6906 23.5619L22.0649 20.749H7.7793ZM9.65453 22.6243H11.5298V24.4995H9.65453V22.6243ZM21.6222 24.4995H13.405V22.6243H21.6222L23.4974 23.5619L21.6222 24.4995Z" fill="currentColor"></path>
  </symbol>
  <symbol xmlns="http://www.w3.org/2000/svg" viewBox="0 0 32 32" id="ic_article_category3">
    <path d="M30.0284 30.125V9.91438H23.4829V5.95469H29.0284V0H21.6079V9.91438H19.4261V16.9114H10.6989V23.0424H1.97156V30.125H0V32H32V30.125H30.0284ZM23.4829 1.875H27.1534V4.07969H23.4829V1.875ZM10.6988 30.125H3.84656V24.9174H10.6988V30.125ZM19.4261 30.125H12.5739V18.7864H19.4261V30.125ZM28.1534 30.125H21.3011V11.7894H28.1534V30.125Z" fill="currentColor"></path>
  </symbol>
  <symbol xmlns="http://www.w3.org/2000/svg" viewBox="0 0 32 32" id="ic_article_category4">
    <path d="M7.5 5.93066H9.375V11.5557H7.5V5.93066Z" fill="currentColor"></path>
    <path d="M7.5 13.4307H9.375V15.3057H7.5V13.4307Z" fill="currentColor"></path>
    <path d="M22.5625 19.0557H24.4375V20.9307H22.5625V19.0557Z" fill="currentColor"></path>
    <path d="M23.5 13.4307C24.0169 13.4307 24.4375 13.8512 24.4375 14.3682C24.4375 14.7176 24.2451 15.0359 23.9353 15.1989C23.0885 15.6445 22.5625 16.567 22.5625 17.6067H24.4375C24.4375 17.2757 24.5866 16.975 24.8084 16.8583C25.7361 16.3701 26.3125 15.416 26.3125 14.3682C26.3125 12.8174 25.0508 11.5557 23.5 11.5557C21.9492 11.5557 20.6875 12.8174 20.6875 14.3682H22.5625C22.5625 13.8512 22.9831 13.4307 23.5 13.4307Z" fill="currentColor"></path>
    <path d="M1.875 24.1315L6.95081 19.0557H15.0625V24.6807H24.9867L30.125 29.819V24.6807H32V7.80566H16.9375V2.18066H0V19.0557H1.875V24.1315ZM30.125 9.6806V22.8056H28.25V25.2923L25.7633 22.8056H16.9375C16.9375 22.162 16.9375 10.305 16.9375 9.6806H30.125ZM1.875 4.0556H15.0625V17.1806H6.17419L3.75 19.6048V17.1806H1.875V4.0556Z" fill="currentColor"></path>
  </symbol>
  <symbol xmlns="http://www.w3.org/2000/svg" viewBox="0 0 32 32" id="ic_article_category5">
    <path d="M8.85938 4.95996H17.3887V6.83464H8.85938V4.95996Z" fill="currentColor"></path>
    <path d="M31.1625 27.1285L27.2579 23.2238L25.9029 24.5789L24.8604 23.5364C27.1856 20.556 26.9785 16.2278 24.2384 13.4877C23.6501 12.8995 22.9884 12.4284 22.2828 12.0736V0H0V31.9983H22.2828V25.6542C22.7193 25.4348 23.139 25.1708 23.5348 24.862L24.5773 25.9045L23.2222 27.2596L27.1268 31.1641C27.6658 31.7031 28.3824 31.9999 29.1447 31.9999C29.9069 31.9999 30.6236 31.7031 31.1625 31.1641C31.7015 30.6252 31.9983 29.9085 31.9983 29.1463C31.9983 28.3841 31.7016 27.6674 31.1625 27.1285ZM22.9128 22.9144C20.6793 25.1479 17.0452 25.1479 14.8116 22.9144C12.5781 20.6809 12.5781 17.0468 14.8116 14.8133C15.9284 13.6965 17.3953 13.1382 18.8622 13.1382C20.3291 13.1382 21.796 13.6966 22.9127 14.8133C25.1463 17.0468 25.1463 20.681 22.9128 22.9144ZM1.87468 1.87468H4.12429V30.1236H1.87468V1.87468ZM20.4081 30.1236H5.99897V1.87468H20.4081V11.4225C19.413 11.2174 18.3847 11.2123 17.388 11.4077V9.6729H8.85867V11.5476H16.8009C15.5861 11.8876 14.4398 12.534 13.4861 13.4877C13.2027 13.7711 12.9465 14.0717 12.7173 14.3859H8.85867V16.2606H11.7199C11.3885 17.1741 11.2374 18.1387 11.2669 19.0989H8.85867V20.9736H11.5596C11.9032 22.1704 12.5451 23.2989 13.4861 24.24C14.9683 25.7222 16.9153 26.4633 18.8623 26.4633C19.3805 26.4633 19.8986 26.4103 20.4081 26.3053V30.1236ZM29.837 29.8386C29.6521 30.0235 29.4062 30.1253 29.1447 30.1253C28.8833 30.1253 28.6374 30.0235 28.4525 29.8386L25.8735 27.2596L27.258 25.8751L29.837 28.4541C30.0219 28.639 30.1237 28.8849 30.1237 29.1464C30.1237 29.4078 30.0219 29.6537 29.837 29.8386Z" fill="currentColor"></path>
  </symbol>
  <symbol xmlns="http://www.w3.org/2000/svg" viewBox="0 0 20 20" id="ic_categories">
    <path d="M8.28125 10.9375H0.78125C0.349766 10.9375 0 11.2873 0 11.7188V19.2188C0 19.6502 0.349766 20 0.78125 20H8.28125C8.71273 20 9.0625 19.6502 9.0625 19.2188V11.7188C9.0625 11.2873 8.71273 10.9375 8.28125 10.9375ZM7.5 18.4375H1.5625V12.5H7.5V18.4375ZM8.28125 0H0.78125C0.349766 0 0 0.349766 0 0.78125V8.28125C0 8.71273 0.349766 9.0625 0.78125 9.0625H8.28125C8.71273 9.0625 9.0625 8.71273 9.0625 8.28125V0.78125C9.0625 0.349766 8.71273 0 8.28125 0ZM7.5 7.5H1.5625V1.5625H7.5V7.5ZM19.2188 10.9375H11.7188C11.2873 10.9375 10.9375 11.2873 10.9375 11.7188V19.2188C10.9375 19.6502 11.2873 20 11.7188 20H19.2188C19.6502 20 20 19.6502 20 19.2188V11.7188C20 11.2873 19.6502 10.9375 19.2188 10.9375ZM18.4375 18.4375H12.5V12.5H18.4375V18.4375ZM19.2188 0H11.7188C11.2873 0 10.9375 0.349766 10.9375 0.78125V8.28125C10.9375 8.71273 11.2873 9.0625 11.7188 9.0625H19.2188C19.6502 9.0625 20 8.71273 20 8.28125V0.78125C20 0.349766 19.6502 0 19.2188 0ZM18.4375 7.5H12.5V1.5625H18.4375V7.5Z" fill="currentColor"></path>
  </symbol>
  <symbol xmlns="http://www.w3.org/2000/svg" viewBox="0 0 10 8" id="ic_check">
    <path d="M1 3L4 6L9 1" stroke="currentColor" stroke-width="2" stroke-linecap="round" fill="none"></path>
  </symbol>
  <symbol xmlns="http://www.w3.org/2000/svg" viewBox="0 0 12 12" id="ic_check2">
    <path fill-rule="evenodd" clip-rule="evenodd" d="M11.7803 1.71967C12.0732 2.01256 12.0732 2.48744 11.7803 2.78033L4.5 10.0607L0.21967 5.78033C-0.0732233 5.48744 -0.0732233 5.01256 0.21967 4.71967C0.512563 4.42678 0.987437 4.42678 1.28033 4.71967L4.5 7.93934L10.7197 1.71967C11.0126 1.42678 11.4874 1.42678 11.7803 1.71967Z" fill="currentColor"></path>
  </symbol>
  <symbol xmlns="http://www.w3.org/2000/svg" viewBox="0 0 16 16" id="ic_close">
    <path d="M3.29289 4.70711C2.90237 4.31658 2.90237 3.68342 3.29289 3.29289C3.68342 2.90237 4.31658 2.90237 4.70711 3.29289L8 6.58579L11.2929 3.29289C11.6834 2.90237 12.3166 2.90237 12.7071 3.29289C13.0976 3.68342 13.0976 4.31658 12.7071 4.70711L9.41421 8L12.7071 11.2929C13.0976 11.6834 13.0976 12.3166 12.7071 12.7071C12.3166 13.0976 11.6834 13.0976 11.2929 12.7071L8 9.41421L4.70711 12.7071C4.31658 13.0976 3.68342 13.0976 3.29289 12.7071C2.90237 12.3166 2.90237 11.6834 3.29289 11.2929L6.58579 8L3.29289 4.70711Z" fill="currentColor"></path>
  </symbol>
  <symbol xmlns="http://www.w3.org/2000/svg" viewBox="0 0 24 24" id="ic_close2">
    <path d="M3.29289 4.70711C2.90237 4.31658 2.90237 3.68342 3.29289 3.29289C3.68342 2.90237 4.31658 2.90237 4.70711 3.29289L12 10.5858L19.2929 3.29289C19.6834 2.90237 20.3166 2.90237 20.7071 3.29289C21.0976 3.68342 21.0976 4.31658 20.7071 4.70711L13.4142 12L20.7071 19.2929C21.0976 19.6834 21.0976 20.3166 20.7071 20.7071C20.3166 21.0976 19.6834 21.0976 19.2929 20.7071L12 13.4142L4.70711 20.7071C4.31658 21.0976 3.68342 21.0976 3.29289 20.7071C2.90237 20.3166 2.90237 19.6834 3.29289 19.2929L10.5858 12L3.29289 4.70711Z" fill="currentColor"></path>
  </symbol>
  <symbol xmlns="http://www.w3.org/2000/svg" viewBox="0 0 80 80" id="ic_error">
    <circle cx="40" cy="40" r="39" stroke="currentColor" stroke-width="2" fill="none"></circle>
    <path d="M24.6152 55.3845L55.3845 24.6152" stroke="currentColor" stroke-width="2" stroke-linecap="round" fill="none"></path>
    <path d="M55.3848 55.3845L24.6155 24.6152" stroke="currentColor" stroke-width="2" stroke-linecap="round" fill="none"></path>
  </symbol>
  <symbol xmlns="http://www.w3.org/2000/svg" viewBox="0 0 24 24" id="ic_fb">
    <path d="M3.51562 24H11.3438V15.4688H8.53125V12.6562H11.3438V9.14062C11.3438 7.20209 12.9208 5.625 14.8594 5.625H18.375V8.4375H15.5625C14.787 8.4375 14.1562 9.0683 14.1562 9.84375V12.6562H18.2481L17.7794 15.4688H14.1562V24H20.4844C22.4229 24 24 22.4229 24 20.4844V3.51562C24 1.57709 22.4229 0 20.4844 0H3.51562C1.57709 0 0 1.57709 0 3.51562V20.4844C0 22.4229 1.57709 24 3.51562 24ZM1.40625 3.51562C1.40625 2.35254 2.35254 1.40625 3.51562 1.40625H20.4844C21.6475 1.40625 22.5938 2.35254 22.5938 3.51562V20.4844C22.5938 21.6475 21.6475 22.5938 20.4844 22.5938H15.5625V16.875H18.9706L19.9081 11.25H15.5625V9.84375H19.7812V4.21875H14.8594C12.1454 4.21875 9.9375 6.42664 9.9375 9.14062V11.25H7.125V16.875H9.9375V22.5938H3.51562C2.35254 22.5938 1.40625 21.6475 1.40625 20.4844V3.51562Z" fill="currentColor"></path>
  </symbol>
  <symbol xmlns="http://www.w3.org/2000/svg" viewBox="0 0 16 16" id="ic_instagram">
    <path fill-rule="evenodd" clip-rule="evenodd" d="M8.00209 4.0166C5.80568 4.0166 4.01875 5.80348 4.01875 7.99986C4.01875 10.1962 5.80568 11.9831 8.00209 11.9831C10.1985 11.9831 11.9854 10.1962 11.9854 7.99986C11.9854 5.80348 10.1985 4.0166 8.00209 4.0166ZM8.00209 11.0456C6.32262 11.0456 4.95625 9.6793 4.95625 7.99986C4.95625 6.32042 6.32262 4.9541 8.00209 4.9541C9.68159 4.9541 11.0479 6.32042 11.0479 7.99986C11.0479 9.6793 9.68159 11.0456 8.00209 11.0456Z" fill="currentColor"></path>
    <path d="M11.4347 2.63467C11.5835 2.48533 11.7893 2.4 12 2.4C12.2107 2.4 12.4171 2.48533 12.5659 2.63467C12.7147 2.78347 12.8 2.98987 12.8 3.2C12.8 3.41067 12.7147 3.61707 12.5659 3.76587C12.4171 3.91467 12.2107 4 12 4C11.7893 4 11.5835 3.91467 11.4347 3.76587C11.2854 3.61707 11.2 3.41067 11.2 3.2C11.2 2.98933 11.2853 2.78347 11.4347 2.63467Z" fill="currentColor"></path>
    <path fill-rule="evenodd" clip-rule="evenodd" d="M11.7656 0H4.23438C1.89953 0 0 1.89953 0 4.23438V11.7656C0 14.1005 1.89953 16 4.23438 16H11.7656C14.1005 16 16 14.1005 16 11.7656V4.23438C16 1.89953 14.1005 0 11.7656 0ZM15.0625 11.7656C15.0625 13.5835 13.5835 15.0625 11.7656 15.0625H4.23438C2.41647 15.0625 0.9375 13.5835 0.9375 11.7656V4.23438C0.9375 2.41647 2.41647 0.9375 4.23438 0.9375H11.7656C13.5835 0.9375 15.0625 2.41647 15.0625 4.23438V11.7656Z" fill="currentColor"></path>
  </symbol>
  <symbol xmlns="http://www.w3.org/2000/svg" viewBox="0 0 16 16" id="ic_lk_edit">
    <path fill-rule="evenodd" clip-rule="evenodd" d="M11.1071 3.10696L12.8929 4.89274C13.2834 5.28327 13.9166 5.28327 14.3071 4.89274L15.2929 3.90696C15.6834 3.51643 15.6834 2.88327 15.2929 2.49274L13.5071 0.706956C13.1166 0.316432 12.4834 0.316432 12.0929 0.706956L11.1071 1.69274C10.7166 2.08327 10.7166 2.71643 11.1071 3.10696ZM0 15.9998L2.4 10.3998L8.89289 3.90696C9.28342 3.51643 9.91658 3.51643 10.3071 3.90696L12.0929 5.69274C12.4834 6.08327 12.4834 6.71643 12.0929 7.10696L5.6 13.5998L0 15.9998Z" fill="currentColor"></path>
  </symbol>
  <symbol xmlns="http://www.w3.org/2000/svg" viewBox="0 0 24 24" id="ic_like">
    <path d="M1.45312 23.2969C1.45312 23.6852 1.76788 24 2.15625 24H6.375C7.05103 24 7.65344 23.6799 8.03979 23.1837C9.75366 23.7252 11.5327 24 13.3323 24H19.0312C20.1943 24 21.1406 23.0537 21.1406 21.8906C21.1406 21.6161 21.0873 21.3539 20.9916 21.1132C21.8866 20.8693 22.5469 20.0495 22.5469 19.0781C22.5469 18.5383 22.3427 18.0454 22.008 17.6719C22.3429 17.2983 22.5469 16.8054 22.5469 16.2656C22.5469 15.7258 22.3427 15.2329 22.008 14.8594C22.3429 14.4858 22.5469 13.9929 22.5469 13.4531C22.5469 12.29 21.6006 11.3438 20.4375 11.3438H16.5888C16.6434 11.2145 16.6998 11.0834 16.7573 10.9501C17.1839 9.96075 17.625 8.93774 17.625 7.82812C17.625 5.88464 16.053 4.26562 14.1094 4.26562C13.7743 4.26562 13.4857 4.5022 13.42 4.83087L13.0609 6.62622C12.5892 8.98425 12.0683 9.25122 10.1301 10.2444C9.6178 10.5068 9.01593 10.8153 8.31354 11.2158C7.99017 10.4648 7.2431 9.9375 6.375 9.9375H2.15625C1.76788 9.9375 1.45312 10.2523 1.45312 10.6406V23.2969ZM10.7712 11.4959C11.8207 10.9581 12.5788 10.5698 13.1724 9.91223C13.7794 9.23969 14.1467 8.36755 14.4399 6.90198L14.6697 5.75244C15.5515 6.01062 16.2188 6.85675 16.2188 7.82812C16.2188 8.64734 15.8361 9.53485 15.4658 10.3932C15.3316 10.7047 15.1946 11.0231 15.0727 11.3438H14.1094C13.721 11.3438 13.4062 11.6585 13.4062 12.0469C13.4062 12.4352 13.721 12.75 14.1094 12.75H20.4375C20.8251 12.75 21.1406 13.0655 21.1406 13.4531C21.1406 13.8408 20.8251 14.1562 20.4375 14.1562H19.0312C18.6429 14.1562 18.3281 14.471 18.3281 14.8594C18.3281 15.2477 18.6429 15.5625 19.0312 15.5625H20.4375C20.8251 15.5625 21.1406 15.878 21.1406 16.2656C21.1406 16.6533 20.8251 16.9688 20.4375 16.9688H19.0312C18.6429 16.9688 18.3281 17.2835 18.3281 17.6719C18.3281 18.0602 18.6429 18.375 19.0312 18.375H20.4375C20.8251 18.375 21.1406 18.6905 21.1406 19.0781C21.1406 19.4658 20.8251 19.7812 20.4375 19.7812H19.0312C18.6429 19.7812 18.3281 20.096 18.3281 20.4844C18.3281 20.8727 18.6429 21.1875 19.0312 21.1875C19.4189 21.1875 19.7344 21.503 19.7344 21.8906C19.7344 22.2783 19.4189 22.5938 19.0312 22.5938H13.3323C11.6841 22.5938 10.0547 22.3433 8.48438 21.8496V12.744C9.39093 12.2034 10.1492 11.8147 10.7712 11.4959ZM2.85938 11.3438H6.375C6.76263 11.3438 7.07812 11.6592 7.07812 12.0469V21.8906C7.07812 22.2783 6.76263 22.5938 6.375 22.5938H2.85938V11.3438Z" fill="currentColor"></path>
    <path d="M5.67188 20.4844C5.67188 20.8727 5.35712 21.1875 4.96875 21.1875C4.58038 21.1875 4.26562 20.8727 4.26562 20.4844C4.26562 20.096 4.58038 19.7812 4.96875 19.7812C5.35712 19.7812 5.67188 20.096 5.67188 20.4844Z" fill="currentColor"></path>
    <path d="M14.1094 0.703125V2.15625C14.1094 2.54462 14.4241 2.85938 14.8125 2.85938C15.2009 2.85938 15.5156 2.54462 15.5156 2.15625V0.703125C15.5156 0.314758 15.2009 0 14.8125 0C14.4241 0 14.1094 0.314758 14.1094 0.703125Z" fill="currentColor"></path>
    <path d="M18.5325 1.86504L17.538 2.85948C17.2634 3.13414 17.2634 3.57927 17.538 3.85393C17.8127 4.1284 18.2578 4.1284 18.5325 3.85393L19.5267 2.85948C19.8014 2.58482 19.8014 2.13969 19.5267 1.86504C19.2521 1.59056 18.8069 1.59056 18.5325 1.86504Z" fill="currentColor"></path>
    <path d="M10.0966 1.86504C9.82196 2.13969 9.82196 2.58482 10.0966 2.85948L11.0909 3.85393C11.3655 4.1284 11.8107 4.1284 12.0853 3.85393C12.3598 3.57927 12.3598 3.13414 12.0853 2.85948L11.0909 1.86504C10.8164 1.59056 10.3711 1.59056 10.0966 1.86504Z" fill="currentColor"></path>
  </symbol>
  <symbol fill="none" xmlns="http://www.w3.org/2000/svg" viewBox="0 0 16 16" id="ic_lk_logout">
    <path fill-rule="evenodd" clip-rule="evenodd" d="M10.4016 7.00039C10.9538 7.00039 11.4016 7.44811 11.4016 8.00039C11.4016 8.55268 10.9538 9.00039 10.4016 9.00039L4.01578 9.00039L6.30867 11.2933C6.69919 11.6838 6.69919 12.317 6.30867 12.7075C5.91814 13.098 5.28498 13.098 4.89446 12.7075L0.894456 8.7075C0.503931 8.31697 0.503931 7.68381 0.894456 7.29328L4.89446 3.29328C5.28498 2.90276 5.91815 2.90276 6.30867 3.29328C6.69919 3.68381 6.69919 4.31697 6.30867 4.7075L4.01578 7.00039L10.4016 7.00039ZM11.2016 13.4004C10.6493 13.4004 10.2016 13.8481 10.2016 14.4004C10.2016 14.9527 10.6493 15.4004 11.2016 15.4004L14.4016 15.4004C14.9538 15.4004 15.4016 14.9527 15.4016 14.4004L15.4016 1.60039C15.4016 1.04811 14.9538 0.600391 14.4016 0.600391L11.2016 0.600391C10.6493 0.600391 10.2016 1.04811 10.2016 1.60039C10.2016 2.15268 10.6493 2.60039 11.2016 2.60039L13.4016 2.60039L13.4016 13.4004L11.2016 13.4004Z" fill="currentColor"></path>
  </symbol>
  <symbol xmlns="http://www.w3.org/2000/svg" viewBox="0 0 16 16" id="ic_lk_resume">
    <path fill-rule="evenodd" clip-rule="evenodd" d="M8.06319 6.57246C8.64783 5.87702 9 4.97964 9 4C9 1.79086 7.20914 0 5 0C2.79086 0 1 1.79086 1 4C1 4.97964 1.35217 5.87702 1.93681 6.57246C0.776139 7.27263 0 8.54567 0 10V11C0 11.5523 0.447715 12 1 12C1.55228 12 2 11.5523 2 11V10C2 8.89543 2.89543 8 4 8H6C7.10457 8 8 8.89543 8 10V11C8 11.5523 8.44772 12 9 12C9.55229 12 10 11.5523 10 11V10C10 8.54567 9.22386 7.27263 8.06319 6.57246ZM5 6C6.10457 6 7 5.10457 7 4C7 2.89543 6.10457 2 5 2C3.89543 2 3 2.89543 3 4C3 5.10457 3.89543 6 5 6Z" fill="currentColor"></path>
    <path d="M12 1C11.4477 1 11 1.44772 11 2C11 2.55228 11.4477 3 12 3H15C15.5523 3 16 2.55228 16 2C16 1.44772 15.5523 1 15 1H12Z" fill="currentColor"></path>
    <path d="M12 5C11.4477 5 11 5.44772 11 6C11 6.55228 11.4477 7 12 7H15C15.5523 7 16 6.55228 16 6C16 5.44772 15.5523 5 15 5H12Z" fill="currentColor"></path>
    <path d="M0 15C0 14.4477 0.447715 14 1 14H15C15.5523 14 16 14.4477 16 15C16 15.5523 15.5523 16 15 16H1C0.447715 16 0 15.5523 0 15Z" fill="currentColor"></path>
    <path d="M12 10C12 9.44771 12.4477 9 13 9H15C15.5523 9 16 9.44771 16 10C16 10.5523 15.5523 11 15 11H13C12.4477 11 12 10.5523 12 10Z" fill="currentColor"></path>
  </symbol>
  <symbol xmlns="http://www.w3.org/2000/svg" viewBox="0 0 16 16" id="ic_lk_settings">
    <path d="M1 4C0.447715 4 1.11564e-07 3.55228 8.74228e-08 3C6.32816e-08 2.44772 0.447715 2 1 2L2.17071 2C2.06015 2.31278 2 2.64936 2 3C2 3.35064 2.06015 3.68722 2.17071 4L1 4Z" fill="currentColor"></path>
    <path d="M8 3C8 2.64936 7.93985 2.31278 7.82929 2L15 2C15.5523 2 16 2.44771 16 3C16 3.55228 15.5523 4 15 4L7.82929 4C7.93985 3.68722 8 3.35064 8 3Z" fill="currentColor"></path>
    <path d="M7 3C7 1.89543 6.10457 1 5 1C3.89543 1 3 1.89543 3 3C3 4.10457 3.89543 5 5 5C6.10457 5 7 4.10457 7 3Z" fill="currentColor"></path>
    <path d="M1 14C0.447716 14 6.36101e-07 13.5523 6.11959e-07 13C5.87818e-07 12.4477 0.447716 12 1 12L2.17071 12C2.06015 12.3128 2 12.6494 2 13C2 13.3506 2.06015 13.6872 2.17071 14L1 14Z" fill="currentColor"></path>
    <path d="M8 13C8 12.6494 7.93985 12.3128 7.82929 12L15 12C15.5523 12 16 12.4477 16 13C16 13.5523 15.5523 14 15 14L7.82929 14C7.93985 13.6872 8 13.3506 8 13Z" fill="currentColor"></path>
    <path d="M7 13C7 11.8954 6.10457 11 5 11C3.89543 11 3 11.8954 3 13C3 14.1046 3.89543 15 5 15C6.10457 15 7 14.1046 7 13Z" fill="currentColor"></path>
    <path d="M16 8C16 8.55228 15.5523 9 15 9L13.8293 9C13.9398 8.68722 14 8.35063 14 8C14 7.64936 13.9398 7.31278 13.8293 7L15 7C15.5523 7 16 7.44771 16 8Z" fill="currentColor"></path>
    <path d="M8.17071 7C8.06015 7.31278 8 7.64936 8 8C8 8.35064 8.06015 8.68722 8.17071 9L1 9C0.447715 9 3.73832e-07 8.55228 3.49691e-07 8C3.2555e-07 7.44772 0.447715 7 1 7L8.17071 7Z" fill="currentColor"></path>
    <path d="M11 6C9.89543 6 9 6.89543 9 8C9 9.10457 9.89543 10 11 10C12.1046 10 13 9.10457 13 8C13 6.89543 12.1046 6 11 6Z" fill="currentColor"></path>
  </symbol>
  <symbol xmlns="http://www.w3.org/2000/svg" viewBox="0 0 24 24" id="ic_menu">
    <rect x="1" y="5" width="22" height="2" fill="currentColor"></rect>
    <rect x="1" y="11" width="22" height="2" fill="currentColor"></rect>
    <rect x="1" y="17" width="22" height="2" fill="currentColor"></rect>
  </symbol>
  <symbol xmlns="http://www.w3.org/2000/svg" viewBox="0 0 24 24" id="ic_percents">
    <path d="M3.38755 9.81111C2.46252 8.96667 2 7.88472 2 6.56528C2 5.24583 2.45362 4.17268 3.36086 3.34583C4.30368 2.51898 5.47776 2.10556 6.8831 2.10556C8.28844 2.10556 9.45362 2.51898 10.3787 3.34583C11.3037 4.15509 11.7662 5.22824 11.7662 6.56528C11.7662 7.88472 11.3037 8.96667 10.3787 9.81111C9.43583 10.638 8.27065 11.0514 6.8831 11.0514C5.49555 11.0514 4.33037 10.638 3.38755 9.81111ZM4.00127 6.56528C4.00127 7.37454 4.277 8.04306 4.82846 8.57083C5.39771 9.08102 6.08259 9.33611 6.8831 9.33611C7.7014 9.33611 8.38628 9.08102 8.93774 8.57083C9.4892 8.04306 9.76493 7.37454 9.76493 6.56528C9.76493 5.77361 9.4892 5.12269 8.93774 4.6125C8.38628 4.08472 7.7014 3.82083 6.8831 3.82083C6.0648 3.82083 5.37992 4.08472 4.82846 4.6125C4.277 5.12269 4.00127 5.77361 4.00127 6.56528ZM14.6213 19.6542C13.6963 18.8097 13.2338 17.7278 13.2338 16.4083C13.2338 15.0889 13.6874 14.0157 14.5947 13.1889C15.5375 12.362 16.7116 11.9486 18.1169 11.9486C19.5222 11.9486 20.6874 12.362 21.6125 13.1889C22.5375 13.9981 23 15.0713 23 16.4083C23 17.7278 22.5375 18.8097 21.6125 19.6542C20.6696 20.481 19.5044 20.8944 18.1169 20.8944C16.7294 20.8944 15.5642 20.481 14.6213 19.6542ZM15.2351 16.4083C15.2351 17.2176 15.5108 17.8861 16.0623 18.4139C16.6315 18.9241 17.3164 19.1792 18.1169 19.1792C18.9352 19.1792 19.6201 18.9241 20.1715 18.4139C20.723 17.8861 20.9987 17.2176 20.9987 16.4083C20.9987 15.6167 20.723 14.9657 20.1715 14.4556C19.6201 13.9278 18.9352 13.6639 18.1169 13.6639C17.2986 13.6639 16.6137 13.9278 16.0623 14.4556C15.5108 14.9657 15.2351 15.6167 15.2351 16.4083ZM6.29606 21L5.04193 20.1292L18.7573 2L19.9848 2.89722L6.29606 21Z" fill="currentColor"></path>
  </symbol>
  <symbol xmlns="http://www.w3.org/2000/svg" viewBox="0 0 24 24" id="ic_pinterest">
    <path d="M17.671 0H6.32671C2.77935 0 0 2.78013 0 6.32826V17.6725C0 21.2206 2.77935 24 6.32671 24H17.671C21.2199 24 24 21.2206 24 17.6717V6.32826C24 2.78013 21.2199 0 17.671 0ZM22.4516 17.6717C22.4516 20.3961 20.3969 22.4508 17.671 22.4508H6.32671C3.60232 22.4508 1.54839 20.3969 1.54839 17.6717V6.32826C1.54839 3.6031 3.60232 1.54839 6.32671 1.54839H17.671C20.3969 1.54839 22.4516 3.6031 22.4516 6.32826V17.6717Z" fill="currentColor"></path>
    <path d="M12.3428 4.90991C8.34413 4.90991 6.32812 7.68462 6.32812 9.99791C6.32812 11.3992 6.87625 12.6449 8.05071 13.1102C8.10025 13.1295 8.14903 13.1396 8.19471 13.1396C8.32632 13.1396 8.43238 13.0591 8.47264 12.9058C8.51213 12.7633 8.60348 12.4033 8.64529 12.2516C8.70103 12.0472 8.68013 11.9768 8.52451 11.7987C8.18542 11.4116 7.96787 10.9107 7.96787 10.2023C7.96787 8.14295 9.56116 6.30114 12.1129 6.30114C14.3728 6.30114 15.6146 7.6374 15.6146 9.42191C15.6146 11.77 14.5408 13.7528 12.9467 13.7528C12.0649 13.7528 11.4068 13.0475 11.6182 12.1835C11.8714 11.1515 12.3622 10.0382 12.3622 9.29417C12.3622 8.62682 11.9914 8.07172 11.2264 8.07172C10.3253 8.07172 9.60219 8.97211 9.60219 10.1798C9.60219 10.9478 9.87084 11.4689 9.87084 11.4689C9.87084 11.4689 8.95109 15.2454 8.78929 15.9073C8.46722 17.2242 8.74051 18.8392 8.76374 19.0018C8.77148 19.0598 8.82103 19.0916 8.87213 19.0916C8.90619 19.0916 8.94103 19.0777 8.96348 19.0482C9.04709 18.9445 10.1186 17.6632 10.4832 16.3827C10.5877 16.0204 11.0755 14.1445 11.0755 14.1445C11.3681 14.6841 12.2228 15.1587 13.1325 15.1587C15.8375 15.1587 17.6732 12.7734 17.6732 9.5783C17.6724 7.16049 15.5581 4.90991 12.3428 4.90991Z" fill="currentColor"></path>
  </symbol>
  <symbol xmlns="http://www.w3.org/2000/svg" viewBox="0 0 24 24" id="ic_plus">
    <path d="M0 12C0 5.37258 5.37258 0 12 0C18.6274 0 24 5.37258 24 12C24 18.6274 18.6274 24 12 24C5.37258 24 0 18.6274 0 12Z" fill="#F8FBFD"></path>
    <path d="M13.1998 5.9998C13.1998 5.33706 12.6625 4.7998 11.9998 4.7998C11.3371 4.7998 10.7998 5.33706 10.7998 5.9998V10.7998H5.9998C5.33706 10.7998 4.7998 11.3371 4.7998 11.9998C4.7998 12.6625 5.33706 13.1998 5.9998 13.1998H10.7998V17.9998C10.7998 18.6625 11.3371 19.1998 11.9998 19.1998C12.6625 19.1998 13.1998 18.6625 13.1998 17.9998V13.1998H17.9998C18.6625 13.1998 19.1998 12.6625 19.1998 11.9998C19.1998 11.3371 18.6625 10.7998 17.9998 10.7998H13.1998V5.9998Z" fill="currentColor"></path>
    <path d="M12 22C6.47715 22 2 17.5228 2 12H-2C-2 19.732 4.26801 26 12 26V22ZM22 12C22 17.5228 17.5228 22 12 22V26C19.732 26 26 19.732 26 12H22ZM12 2C17.5228 2 22 6.47715 22 12H26C26 4.26801 19.732 -2 12 -2V2ZM12 -2C4.26801 -2 -2 4.26801 -2 12H2C2 6.47715 6.47715 2 12 2V-2Z" fill="currentColor"></path>
  </symbol>
  <symbol xmlns="http://www.w3.org/2000/svg" viewBox="0 0 16 15" id="ic_star">
    <path d="M8 0L9.79611 5.52786H15.6085L10.9062 8.94427L12.7023 14.4721L8 11.0557L3.29772 14.4721L5.09383 8.94427L0.391548 5.52786H6.20389L8 0Z" fill="currentColor"></path>
  </symbol>
  <symbol xmlns="http://www.w3.org/2000/svg" viewBox="0 0 80 80" id="ic_success">
    <circle cx="40" cy="40" r="39" stroke="currentColor" stroke-width="2" fill="none"></circle>
    <path d="M22 38.5L35 51.5L57.5 29" stroke="currentColor" stroke-width="2" stroke-linecap="round" fill="none"></path>
  </symbol>
  <symbol xmlns="http://www.w3.org/2000/svg" viewBox="0 0 24 24" id="ic_telegram">
    <path fill-rule="evenodd" clip-rule="evenodd" d="M4.80839 9.63119L18.3808 4.20264C18.5787 4.1234 18.7956 4.104 19.0045 4.14686C19.2134 4.18972 19.4051 4.29295 19.5559 4.44374C19.7066 4.59453 19.8098 4.78626 19.8526 4.99516C19.8955 5.20405 19.876 5.42091 19.7967 5.61886L14.3685 19.1899C14.2918 19.3859 14.1594 19.5551 13.9877 19.6766C13.816 19.7982 13.6124 19.8668 13.4022 19.874C13.3863 19.875 13.3704 19.875 13.3545 19.875C13.1523 19.8762 12.9538 19.8203 12.7819 19.7138C12.61 19.6074 12.4716 19.4546 12.3826 19.273L11.1073 16.7226C10.9487 16.4067 10.896 16.0482 10.9571 15.7001L11.5055 12.54L11.4601 12.4949L8.30436 13.0456C7.95556 13.1048 7.59698 13.0522 7.27986 12.8954L4.72558 11.6171C4.5378 11.5231 4.38118 11.3768 4.27457 11.1959C4.16795 11.015 4.11589 10.8072 4.12463 10.5973C4.13338 10.3875 4.20257 10.1847 4.32388 10.0133C4.44518 9.84192 4.61343 9.70922 4.80839 9.63119ZM13.3237 18.808C13.3276 18.8166 13.3311 18.8245 13.3583 18.8249L18.8218 5.22867L18.771 5.17791L5.19861 10.6065L5.19579 10.6777L7.75007 11.9561C7.86544 12.0143 7.99662 12.0336 8.12387 12.0109L11.2796 11.4602C11.4517 11.4302 11.6285 11.4421 11.7951 11.4947C11.9617 11.5474 12.1131 11.6393 12.2367 11.7628C12.3603 11.8862 12.4524 12.0376 12.5052 12.2041C12.5581 12.3706 12.5701 12.5474 12.5403 12.7195L11.9919 15.8797C11.9694 16.0067 11.9887 16.1377 12.0467 16.2529L13.3214 18.8034L13.3237 18.808Z" fill="currentColor"></path>
    <path fill-rule="evenodd" clip-rule="evenodd" d="M0 6C0 2.68629 2.68629 0 6 0H18C21.3137 0 24 2.68629 24 6V18C24 21.3137 21.3137 24 18 24H6C2.68629 24 0 21.3137 0 18V6ZM6 1.56H18C20.4521 1.56 22.44 3.54786 22.44 6V18C22.44 20.4521 20.4521 22.44 18 22.44H6C3.54786 22.44 1.56 20.4521 1.56 18V6C1.56 3.54786 3.54786 1.56 6 1.56Z" fill="currentColor"></path>
  </symbol>
  <symbol xmlns="http://www.w3.org/2000/svg" viewBox="0 0 16 13" id="ic_telegram2">
    <path d="M0.745003 5.36689L14.9344 0.0648909C15.593 -0.165682 16.1682 0.220588 15.9548 1.18567L15.956 1.18448L13.54 12.2151C13.3609 12.9972 12.8814 13.1874 12.2106 12.8189L8.53139 10.1911L6.75679 11.8479C6.56057 12.0381 6.39501 12.1985 6.01483 12.1985L6.27605 8.56995L13.0948 2.60001C13.3916 2.34685 13.0286 2.20423 12.6374 2.4562L4.2108 7.59774L0.578213 6.49955C-0.21036 6.25709 -0.227529 5.73533 0.745003 5.36689Z" fill="currentColor"></path>
  </symbol>
  <symbol xmlns="http://www.w3.org/2000/svg" viewBox="0 0 24 24" id="ic_twitter">
    <path d="M17.6617 0H6.33832C2.784 0 0 2.784 0 6.33832V17.6617C0 21.216 2.784 24 6.33832 24H17.6617C21.216 24 24 21.216 24 17.6617V6.33832C24 2.784 21.2152 0 17.6617 0ZM22.4516 17.6617C22.4516 20.3481 20.3474 22.4516 17.6617 22.4516H6.33832C3.65265 22.4516 1.54839 20.3474 1.54839 17.6617V6.33832C1.54839 3.65265 3.65265 1.54839 6.33832 1.54839H17.6617C20.3481 1.54839 22.4516 3.65265 22.4516 6.33832V17.6617Z" fill="currentColor"></path>
    <path d="M19.547 6.12778C19.2985 5.94584 18.9656 5.93036 18.7 6.0852C18.4352 6.24081 17.8484 6.31746 17.3777 6.37939C17.2802 6.39255 17.1842 6.40494 17.0912 6.4181C16.4324 5.87152 15.5909 5.56494 14.723 5.56494C12.7682 5.56494 11.164 7.07772 11.0502 8.98068C9.27731 8.68184 7.65383 7.75746 6.50338 6.36855C6.33228 6.16107 6.06673 6.05965 5.79886 6.09449C5.53254 6.13165 5.30493 6.3043 5.19731 6.55049C5.14776 6.66352 4.71576 7.72649 4.71576 10.3557C4.71576 12.6326 6.51267 14.3056 7.74518 15.1858C6.90209 15.5691 5.93047 15.71 5.00764 15.6078C4.64686 15.5691 4.30931 15.7812 4.19009 16.1211C4.07086 16.4617 4.20247 16.8395 4.50751 17.0323C5.96299 17.9505 7.64531 18.4359 9.37331 18.4359C14.9227 18.4359 18.2812 14.0764 18.4058 9.7781C18.5653 9.54662 18.8696 9.09604 19.3836 8.30559C19.5896 7.98739 19.7622 7.30146 19.8466 6.92133C19.914 6.62094 19.7955 6.30894 19.547 6.12778ZM17.0092 9.07436C16.914 9.20597 16.8621 9.36546 16.8621 9.52804C16.8621 12.5838 14.5387 16.8875 9.37409 16.8875C8.90725 16.8875 8.44428 16.8449 7.9906 16.7613C8.59602 16.5322 9.16815 16.2124 9.69383 15.8075C9.90441 15.6457 10.0167 15.3856 9.99189 15.1216C9.96712 14.8576 9.80841 14.6238 9.57073 14.5038C9.53744 14.4867 6.26493 12.7657 6.26493 10.3564C6.26493 9.54894 6.30828 8.9141 6.36557 8.43101C7.88531 9.73939 9.81925 10.5221 11.8546 10.6227C11.8701 10.6235 11.8863 10.6243 11.9011 10.6235C12.3516 10.6104 12.683 10.2798 12.683 9.84933C12.683 9.74249 12.6613 9.64107 12.6218 9.54817C12.6025 9.43204 12.5924 9.31513 12.5924 9.19823C12.5924 8.04855 13.5478 7.11333 14.723 7.11333C15.3129 7.11333 15.8804 7.35488 16.2807 7.77526C16.4634 7.96572 16.7305 8.05165 16.9883 8.00133C17.164 7.96804 17.3669 7.94172 17.5798 7.91384C17.6556 7.90378 17.7323 7.89372 17.8105 7.88288C17.2291 8.76855 17.0192 9.06043 17.0092 9.07436Z" fill="currentColor"></path>
  </symbol>
  <symbol xmlns="http://www.w3.org/2000/svg" viewBox="0 0 24 24" id="ic_vk">
    <path d="M12.0254 17.62C11.2541 17.62 10.5418 17.5829 9.33366 16.9997C8.89046 16.8201 5.14815 15.1238 2.92581 8.31488C2.81138 7.97583 2.78809 7.42969 3.09732 6.9968C3.29818 6.71555 3.7112 6.3803 4.53774 6.3803H6.49716C6.79979 6.3803 7.06848 6.57394 7.1642 6.86105C7.16823 6.87314 7.58077 8.10178 8.19854 9.35635C8.61591 10.204 8.97643 10.7649 9.27146 11.1362V9.04233C9.27146 9.00314 9.27179 8.98228 9.27812 8.94502C9.28379 8.88741 9.31834 8.41402 8.97465 8.03597C8.91474 7.97006 8.86791 7.89338 8.8366 7.80994C8.74946 7.57753 8.73451 7.21622 8.95416 6.89934C9.19285 6.55491 9.61684 6.38025 10.2144 6.38025H12.8525C12.8858 6.38025 12.919 6.38259 12.9519 6.38733C13.4448 6.45773 13.9753 6.93075 13.9753 7.80286V10.6239C14.4881 10.0787 15.2253 9.08255 15.8437 7.63238C15.9829 7.16138 16.4933 6.38025 17.5889 6.38025H19.4695C19.4884 6.38025 19.5074 6.381 19.5262 6.38255C19.7996 6.40467 20.1639 6.56362 20.3659 6.94341C20.7375 7.64166 20.2445 8.51869 20.0825 8.80688C20.0725 8.82446 20.0619 8.84166 20.0505 8.85835L18.4532 11.202C18.3233 11.3925 18.2128 11.547 18.1053 11.6881C17.9106 11.9438 17.8723 12.1646 17.9914 12.3444C18.0012 12.3591 18.0179 12.3797 18.041 12.4054L20.3141 14.9385C20.3678 14.9945 20.5697 15.2113 20.7573 15.4842C20.8993 15.6909 21.3315 16.3197 21.0695 16.9405C20.9389 17.2502 20.6124 17.6192 19.799 17.6192H18.3492C17.5847 17.6192 16.845 17.3466 16.2663 16.8514L16.2506 16.838C16.241 16.8298 16.2316 16.8213 16.2225 16.8126L14.0653 14.7573C14.0369 14.7401 14.0004 14.7212 13.9604 14.7082V16.1919C13.9627 16.3305 13.9398 16.7823 13.5811 17.1587C13.3809 17.3688 13.0089 17.6192 12.3731 17.6192C12.312 17.6192 12.2524 17.6194 12.194 17.6197C12.1374 17.6199 12.0812 17.62 12.0254 17.62ZM12.5549 16.2282C12.555 16.2299 12.5551 16.2317 12.5551 16.2335C12.555 16.2317 12.555 16.23 12.5549 16.2282ZM9.8642 15.6974C9.88716 15.7057 9.90137 15.7121 9.92391 15.7231C10.9414 16.2177 11.41 16.2164 12.1892 16.2134C12.2492 16.2132 12.3105 16.2129 12.3732 16.2129C12.4693 16.2129 12.5273 16.1997 12.5543 16.1898V14.223C12.5543 14.0248 12.6378 13.8359 12.7844 13.7027C13.5757 12.9834 14.5308 13.3481 14.9252 13.6414C14.9482 13.6584 14.9701 13.6769 14.9907 13.6966L17.1799 15.7823C17.5048 16.0602 17.9197 16.2129 18.3492 16.2129H19.5504C19.4735 16.108 19.383 15.9984 19.2945 15.9069C19.2884 15.9007 19.2815 15.8933 19.2757 15.8868L16.9945 13.3448C16.924 13.2662 16.8683 13.1952 16.8193 13.1213C16.361 12.4297 16.4236 11.5755 16.9864 10.8361C17.0787 10.7151 17.1755 10.5796 17.2912 10.4099L18.8708 8.09236C18.9392 7.96852 18.9869 7.86745 19.0201 7.7865H17.5889C17.3792 7.7865 17.2462 7.86816 17.1933 8.02927C17.1849 8.07624 17.1776 8.08852 17.1574 8.13633C16.095 10.6525 14.7865 11.826 14.4541 12.0959C14.2374 12.3386 13.9588 12.4746 13.6602 12.4814C13.1434 12.4929 12.7982 12.1171 12.7346 12.0417C12.6276 11.9148 12.5689 11.7542 12.5689 11.5883V7.80291C12.5689 7.79724 12.5689 7.7918 12.5688 7.78655H10.4665C10.7177 8.36297 10.6962 8.8935 10.6776 9.08218V12.5394C10.6776 12.754 10.5796 12.9568 10.4116 13.0902C10.2435 13.2236 10.0236 13.2729 9.81474 13.2241C8.84002 12.9967 7.89648 11.9303 6.93024 9.96413C6.51052 9.11007 6.18577 8.28549 6.00104 7.78655H4.5377C4.38165 7.78655 4.29554 7.8067 4.25406 7.82095C4.25504 7.84242 4.25785 7.86427 4.25795 7.8645C4.25907 7.86783 4.2602 7.87116 4.26127 7.87449C5.35402 11.2243 6.82398 13.1752 7.86474 14.2219C8.95557 15.3189 9.81385 15.677 9.8642 15.6974Z" fill="currentColor"></path>
    <path d="M17.3241 24H6.67594C2.99484 24 0 21.0052 0 17.3241V6.67594C0 2.9948 2.99484 0 6.67594 0H17.3241C21.0052 0 24 2.9948 24 6.67594V17.3241C24 21.0052 21.0052 24 17.3241 24ZM6.67594 1.40625C3.77025 1.40625 1.40625 3.77025 1.40625 6.67594V17.3241C1.40625 20.2297 3.77025 22.5938 6.67594 22.5938H17.3241C20.2297 22.5938 22.5938 20.2297 22.5938 17.3241V6.67594C22.5938 3.77025 20.2297 1.40625 17.3241 1.40625H6.67594Z" fill="currentColor"></path>
  </symbol>
  <symbol xmlns="http://www.w3.org/2000/svg" viewBox="0 0 16 16" id="ic_views">
    <path d="M15.76 7.60039C13.68 4.24039 10.96 2.40039 8 2.40039C5.04 2.40039 2.32 4.24039 0.24 7.60039L0 8.00039L0.24 8.40039C2.24 11.7604 5.04 13.6004 8 13.6004C10.96 13.6004 13.68 11.7604 15.76 8.40039L16 8.00039L15.76 7.60039ZM8 12.0004C5.76 12.0004 3.6 10.5604 1.92 8.00039C3.6 5.44039 5.76 4.00039 8 4.00039C10.24 4.00039 12.4 5.44039 14.08 8.00039C12.4 10.5604 10.24 12.0004 8 12.0004Z" fill="currentColor"></path>
    <path d="M8.00156 10.4006C9.32705 10.4006 10.4016 9.32607 10.4016 8.00059C10.4016 6.6751 9.32705 5.60059 8.00156 5.60059C6.67608 5.60059 5.60156 6.6751 5.60156 8.00059C5.60156 9.32607 6.67608 10.4006 8.00156 10.4006Z" fill="currentColor"></path>
  </symbol>
  <symbol xmlns="http://www.w3.org/2000/svg" viewBox="0 0 16 16" id="ic_user">
    <path fill-rule="evenodd" clip-rule="evenodd" d="M11.3344 8.72588C12.3567 7.81038 13 6.48031 13 5C13 2.23858 10.7614 0 8 0C5.23858 0 3 2.23858 3 5C3 6.48031 3.6433 7.81038 4.66559 8.72588C2.50116 9.71967 0.856605 11.6511 0.252035 14C0.087506 14.6392 0 15.3094 0 16H16C16 15.3094 15.9125 14.6392 15.748 14C15.1434 11.6511 13.4988 9.71967 11.3344 8.72588ZM11 5C11 6.65685 9.65685 8 8 8C6.34315 8 5 6.65685 5 5C5 3.34315 6.34315 2 8 2C9.65685 2 11 3.34315 11 5ZM8 10C5.38756 10 3.16508 11.6696 2.34141 14H13.6586C12.8349 11.6696 10.6124 10 8 10Z" fill="currentColor"></path>
  </symbol>
  <symbol xmlns="http://www.w3.org/2000/svg" viewBox="0 0 24 24" id="ic_wallet">
    <path d="M22.125 11.1094V4.6875H2.8125C2.29556 4.6875 1.875 4.26694 1.875 3.75C1.875 3.23306 2.29556 2.8125 2.8125 2.8125H20.25V0.9375H2.8125C1.26169 0.9375 0 2.19919 0 3.75V20.25C0 21.8008 1.26169 23.0625 2.8125 23.0625H22.125V16.7344H24V11.1094H22.125ZM20.25 21.1875H2.8125C2.29556 21.1875 1.875 20.7669 1.875 20.25V6.40125C2.16844 6.50531 2.48386 6.5625 2.8125 6.5625H20.25V11.1094H18.0938C16.5429 11.1094 15.2812 12.3711 15.2812 13.9219C15.2812 15.4727 16.5429 16.7344 18.0938 16.7344H20.25V21.1875ZM22.125 14.8594H18.0938C17.5768 14.8594 17.1562 14.4388 17.1562 13.9219C17.1562 13.4049 17.5768 12.9844 18.0938 12.9844H22.125V14.8594Z" fill="currentColor"></path>
  </symbol>
  <symbol xmlns="http://www.w3.org/2000/svg" viewBox="0 0 24 24" id="ic_youtube">
    <path d="M15.6947 10.9214L10.3926 8.02027C10.0877 7.85346 9.72735 7.85968 9.42853 8.03675C9.12952 8.21399 8.95117 8.5271 8.95117 8.87464V14.6271C8.95117 14.973 9.12842 15.2855 9.42541 15.463C9.5805 15.5556 9.75244 15.6021 9.92474 15.6021C10.0826 15.6021 10.2408 15.5631 10.3863 15.4847L15.6887 12.6336C16.0034 12.4642 16.1999 12.137 16.2014 11.7794C16.2027 11.4218 16.0086 11.0931 15.6947 10.9214ZM10.3576 13.9034V9.60413L14.3203 11.7725L10.3576 13.9034Z" fill="currentColor"></path>
    <path d="M23.8234 7.19659L23.8223 7.18561C23.802 6.99243 23.5996 5.27417 22.7643 4.40021C21.7988 3.37225 20.7042 3.24738 20.1778 3.1875C20.1342 3.18256 20.0943 3.17798 20.0586 3.17322L20.0166 3.16882C16.8438 2.93811 12.0521 2.90662 12.0042 2.90643L12 2.90625L11.9957 2.90643C11.9478 2.90662 7.1561 2.93811 3.9547 3.16882L3.9124 3.17322C3.87834 3.1778 3.84081 3.18201 3.79997 3.18677C3.27959 3.24683 2.19671 3.37189 1.22845 4.43701C0.43286 5.30164 0.20288 6.98309 0.17926 7.17206L0.176513 7.19659C0.169372 7.27698 0 9.19061 0 11.1118V12.9077C0 14.8288 0.169372 16.7424 0.176513 16.823L0.177795 16.8351C0.198119 17.0251 0.400267 18.7119 1.23175 19.5862C2.13958 20.5798 3.28746 20.7112 3.90489 20.7819C4.00249 20.7931 4.08653 20.8026 4.14384 20.8127L4.19932 20.8204C6.03129 20.9947 11.7751 21.0806 12.0186 21.084L12.026 21.0842L12.0333 21.084C12.0813 21.0839 16.8727 21.0524 20.0456 20.8217L20.0875 20.8173C20.1276 20.812 20.1726 20.8072 20.2221 20.8021C20.7395 20.7471 21.8166 20.6331 22.7715 19.5824C23.567 18.7176 23.7972 17.0361 23.8206 16.8474L23.8234 16.8228C23.8305 16.7422 24.0001 14.8288 24.0001 12.9077V11.1118C23.9999 9.19061 23.8305 7.27716 23.8234 7.19659ZM22.5935 12.9077C22.5935 14.6858 22.4382 16.517 22.4236 16.6851C22.3639 17.1482 22.1213 18.212 21.7336 18.6334C21.136 19.2909 20.522 19.3561 20.0738 19.4035C20.0196 19.4092 19.9694 19.4147 19.924 19.4203C16.8552 19.6423 12.2444 19.6763 12.032 19.6776C11.7938 19.6741 6.13401 19.5875 4.35789 19.4225C4.26689 19.4077 4.16856 19.3964 4.06493 19.3846C3.53923 19.3244 2.81963 19.242 2.26629 18.6334L2.25329 18.6194C1.87243 18.2227 1.63677 17.2278 1.5769 16.6906C1.56573 16.5635 1.40643 14.7107 1.40643 12.9077V11.1118C1.40643 9.33563 1.56133 7.50641 1.57635 7.33484C1.64758 6.78937 1.89477 5.78998 2.26629 5.38605C2.88225 4.70856 3.53172 4.63348 3.96129 4.58386C4.0023 4.5791 4.04057 4.57471 4.07591 4.57013C7.18942 4.34711 11.8333 4.31396 12 4.31268C12.1666 4.31378 16.8088 4.34711 19.8947 4.57013C19.9326 4.57489 19.974 4.57965 20.0185 4.58478C20.4603 4.63513 21.1281 4.7113 21.7409 5.36499L21.7466 5.37103C22.1275 5.76782 22.3631 6.78003 22.423 7.32806C22.4336 7.448 22.5935 9.30487 22.5935 11.1118V12.9077Z" fill="currentColor"></path>
  </symbol>
</svg>